<!-- Generated by IcoMoon.io -->
<svg version="1.1" xmlns="http://www.w3.org/2000/svg" width="32" height="32" viewBox="0 0 32 32">
<title>address-book</title>
<path fill="#4c7bc1" d="M26.256 3.333c0.953 0 1.73 0.784 1.722 1.747v21.584c0 0.963-0.77 1.741-1.724 1.741h-17.968c-0.952 0-1.723-0.78-1.723-1.741v-3.141h-1.325c-0.684 0-1.237-0.558-1.237-1.25v-0.61c0-0.692 0.553-1.25 1.237-1.25h1.325v-2.997h-1.325c-0.684 0-1.237-0.558-1.237-1.25v-0.604c0-0.692 0.553-1.25 1.237-1.25h1.325v-2.997h-1.325c-0.684 0-1.237-0.558-1.237-1.25v-0.604c0-0.692 0.553-1.25 1.237-1.25h1.325v-3.139c0-0.963 0.769-1.741 1.723-1.741h17.97zM17.403 17.347c2.117 0 3.833-1.982 3.833-4.426s-1.716-4.254-3.833-4.254c-2.117 0-3.831 1.811-3.831 4.254s1.715 4.426 3.831 4.426zM11.444 23.331l12.043 0c0 0 0.753 0.062 1.089-0.404 0.188-0.26 0.047-0.779-0.090-1.067l-0.332-0.698c0 0-0.808-1.967-1.828-3.087-0.61-0.669-1.283-0.537-1.726-0.324-0.294 0.142-0.62 0.555-0.865 0.767-0.338 0.292-0.934 0.625-1.909 0.643h-0.598c-0.975-0.019-1.572-0.351-1.91-0.643-0.245-0.212-0.581-0.612-0.878-0.75-0.482-0.223-1.227-0.38-1.853 0.307-1.020 1.12-1.916 3.052-1.916 3.052l-0.324 0.712c-0.132 0.291-0.267 0.811-0.074 1.068 0.358 0.476 1.171 0.424 1.171 0.424z"></path>
</svg>
