<!-- Generated by IcoMoon.io -->
<svg version="1.1" xmlns="http://www.w3.org/2000/svg" width="32" height="32" viewBox="0 0 32 32">
<title>alert</title>
<path fill="#4c7bc1" d="M26.968 9.642c-1.133-1.941-2.669-3.477-4.61-4.61s-4.060-1.699-6.358-1.699c-2.298 0-4.417 0.566-6.358 1.699s-3.477 2.669-4.61 4.61c-1.133 1.941-1.699 4.060-1.699 6.358s0.566 4.417 1.699 6.358c1.133 1.94 2.669 3.477 4.61 4.61s4.060 1.699 6.358 1.699 4.418-0.566 6.358-1.699c1.941-1.132 3.477-2.669 4.61-4.61s1.699-4.060 1.699-6.358c0-2.298-0.566-4.418-1.698-6.358v0zM18.112 23.9c0 0.154-0.050 0.283-0.149 0.387s-0.22 0.157-0.363 0.157h-3.167c-0.143 0-0.269-0.055-0.379-0.165s-0.165-0.236-0.165-0.379v-3.133c0-0.143 0.055-0.27 0.165-0.38s0.236-0.165 0.379-0.165h3.167c0.143 0 0.265 0.052 0.363 0.156 0.099 0.105 0.149 0.234 0.149 0.388v3.133zM18.078 18.227c-0.011 0.11-0.069 0.206-0.173 0.289s-0.234 0.123-0.387 0.123h-3.051c-0.154 0-0.286-0.041-0.396-0.123s-0.165-0.179-0.165-0.289l-0.28-10.242c0-0.132 0.055-0.231 0.165-0.297 0.11-0.088 0.242-0.132 0.396-0.132h3.629c0.154 0 0.286 0.044 0.396 0.132 0.11 0.066 0.165 0.165 0.165 0.297l-0.297 10.242z"></path>
</svg>
