<!-- Generated by IcoMoon.io -->
<svg version="1.1" xmlns="http://www.w3.org/2000/svg" width="32" height="32" viewBox="0 0 32 32">
<title>analytics</title>
<path fill="#4c7bc1" d="M2.667 5.335c0-0.369 0.292-0.669 0.664-0.669h20.005c0.367 0 0.664 0.292 0.664 0.669v3.329c0 0.369-0.292 0.669-0.664 0.669h-20.005c-0.367 0-0.664-0.292-0.664-0.669v-3.329zM2.667 11.335c0-0.369 0.301-0.669 0.669-0.669h16.662c0.369 0 0.669 0.292 0.669 0.669v3.329c0 0.369-0.301 0.669-0.669 0.669h-16.662c-0.369 0-0.669-0.292-0.669-0.669v-3.329zM2.667 17.335c0-0.369 0.293-0.669 0.664-0.669h18.005c0.367 0 0.664 0.292 0.664 0.669v3.329c0 0.369-0.293 0.669-0.664 0.669h-18.005c-0.367 0-0.664-0.292-0.664-0.669v-3.329zM2.667 23.335c0-0.369 0.301-0.669 0.663-0.669h12.007c0.366 0 0.663 0.292 0.663 0.669v3.329c0 0.369-0.301 0.669-0.663 0.669h-12.007c-0.366 0-0.663-0.292-0.663-0.669v-3.329zM22.667 11.335c0-0.369 0.296-0.669 0.667-0.669h2c0.368 0 0.667 0.292 0.667 0.669v3.329c0 0.369-0.296 0.669-0.667 0.669h-2c-0.368 0-0.667-0.292-0.667-0.669v-3.329zM24 17.335c0-0.369 0.296-0.669 0.667-0.669h2c0.368 0 0.667 0.292 0.667 0.669v3.329c0 0.369-0.296 0.669-0.667 0.669h-2c-0.368 0-0.667-0.292-0.667-0.669v-3.329zM18 23.335c0-0.369 0.296-0.669 0.667-0.669h2c0.368 0 0.667 0.292 0.667 0.669v3.329c0 0.369-0.296 0.669-0.667 0.669h-2c-0.368 0-0.667-0.292-0.667-0.669v-3.329zM26 5.335c0-0.369 0.296-0.669 0.667-0.669h2c0.368 0 0.667 0.292 0.667 0.669v3.329c0 0.369-0.296 0.669-0.667 0.669h-2c-0.368 0-0.667-0.292-0.667-0.669v-3.329z"></path>
</svg>
