<!-- Generated by IcoMoon.io -->
<svg version="1.1" xmlns="http://www.w3.org/2000/svg" width="32" height="32" viewBox="0 0 32 32">
<title>asset</title>
<path fill="#4c7bc1" d="M15.168 14.959v12.953l-10.172-5.31v-12.953l10.172 5.31zM25.975 8.333l-9.976 5.206-9.975-5.206 9.975-4.61 9.976 4.61zM28.643 8.106c-0.028-0.101-0.048-0.15-0.073-0.196-0.047-0.085-0.085-0.135-0.13-0.181-0.069-0.064-0.108-0.095-0.15-0.122-0.073-0.042-0.085-0.052-0.101-0.060l-11.836-5.47c-0.224-0.103-0.483-0.103-0.707 0l-11.836 5.47c-0.055 0.032-0.066 0.034-0.075 0.039-0.068 0.047-0.107 0.078-0.142 0.112-0.078 0.076-0.116 0.127-0.148 0.181-0.040 0.078-0.059 0.125-0.074 0.175-0.026 0.103-0.032 0.154-0.034 0.206-0 0.009-0.004 14.835-0.004 14.835 0 0.303 0.17 0.581 0.442 0.723l11.835 6.178c0.036 0.019 0.074 0.029 0.111 0.042 0.137 0.044 0.207 0.054 0.278 0.054s0.141-0.010 0.21-0.028c0.105-0.039 0.144-0.049 0.18-0.068l11.836-6.178c0.273-0.142 0.442-0.42 0.442-0.723v-14.773c-0.005-0.112-0.012-0.164-0.024-0.215z"></path>
</svg>
