<!-- Generated by IcoMoon.io -->
<svg version="1.1" xmlns="http://www.w3.org/2000/svg" width="32" height="32" viewBox="0 0 32 32">
<title>attach</title>
<path fill="#4c7bc1" d="M12.971 2.524c-2.368-1.263-6.179-0.091-8.152 1.882-2.376 2.376-3.027 6.855-0.714 9.32 0.066 0.092 0.243 0.243 0.243 0.243l15.057 15.057c0.756 0.756 1.93 0.807 2.623 0.115s0.423-2.085-0.115-2.623l-15.155-15.155c-1.053-1.053-0.437-3.376 0.602-4.415 1.003-1.003 3.2-1.611 4.299-0.706l14.091 14.091c1.053 1.053-0.224 2.33-1.277 1.277l-10.168-10.168c-0.702-0.702-1.833-0.709-2.525-0.017s-0.685 1.823 0.017 2.525c0 0 11.358 11.214 11.677 11.287 2.369 1.263 2.952 0.775 5.461-1.733s-0.773-5.778-0.773-5.778l-13.132-13.132c-0.035-0.042-0.071-0.083-0.11-0.122 0-0-1.63-1.876-1.949-1.949z"></path>
</svg>
