<!-- Generated by IcoMoon.io -->
<svg version="1.1" xmlns="http://www.w3.org/2000/svg" width="32" height="32" viewBox="0 0 32 32">
<title>battery-low</title>
<path fill="#4c7bc1" d="M28.578 12h-1.911v-1.299c0-1.935-1.333-3.368-3.259-3.368h-18.075c-1.926 0-2.674 1.065-2.674 3v11.333c0 1.935 0.749 2.979 2.674 2.979h18.075c1.926 0 3.259-1.574 3.259-3.51v-1.136h1.911c1.143 0 2.071-1.212 2.071-2.362v-3.297c0-1.15-0.928-2.341-2.071-2.341zM24 21.372c0 0.361-0.233 0.648-0.592 0.648h-17.341c-0.359 0-0.734-0.288-0.734-0.648v-10.671c0-0.361 0.375-0.727 0.734-0.727h17.266c0.359 0 0.667 0.366 0.667 0.727v10.671zM10.081 11.333h-2.844c-0.319 0-0.578 0.26-0.578 0.581v8.216c0 0.321 0.259 0.581 0.578 0.581h2.844c0.319 0 0.578-0.26 0.578-0.581v-8.216c0-0.321-0.259-0.581-0.578-0.581z"></path>
</svg>
