<!-- Generated by IcoMoon.io -->
<svg version="1.1" xmlns="http://www.w3.org/2000/svg" width="32" height="32" viewBox="0 0 32 32">
<title>bin</title>
<path fill="#4c7bc1" d="M11.925 28.667h8.151c1.89 0 2.257-1.666 2.257-1.666l1.687-16.334h-16.038l1.687 16.334c0 0 0.367 1.666 2.257 1.666zM20.478 12.204c0.454 0 0.822 0.367 0.822 0.82l-0.822 12.306c0 0.453-0.368 0.82-0.822 0.82s-0.822-0.367-0.822-0.82l0.822-12.306c0-0.453 0.368-0.82 0.822-0.82zM15.988 12.204c0.546 0 0.988 0.367 0.988 0.82v12.306c0 0.453-0.442 0.82-0.988 0.82s-0.988-0.367-0.988-0.82v-12.306c0-0.453 0.442-0.82 0.988-0.82zM12.418 13.024l0.822 12.306c0 0.453-0.368 0.82-0.822 0.82s-0.822-0.367-0.822-0.82l-0.822-12.306c0-0.453 0.368-0.82 0.822-0.82s0.822 0.367 0.822 0.82zM20.022 6.667v-1.333c0-1.245-0.105-1.333-1.345-1.333h-5.34c-1.281 0-1.293 0.243-1.293 1.333v1.333h-4.063c-0.727 0-1.314 0.653-1.314 1.333s0.588 1.333 1.314 1.333h16.038c0.727 0 1.314-0.653 1.314-1.333s-0.588-1.333-1.314-1.333h-3.996zM13.337 6.667v-1.333h5.34v1.333h-5.34z"></path>
</svg>
