<!-- Generated by IcoMoon.io -->
<svg version="1.1" xmlns="http://www.w3.org/2000/svg" width="32" height="32" viewBox="0 0 32 32">
<title>bookmark</title>
<path fill="#4c7bc1" d="M26.31 4.171c-0.216-0.313-0.508-0.541-0.874-0.687-0.233-0.1-0.477-0.151-0.732-0.151v-0h-17.441c-0.255 0-0.499 0.050-0.732 0.151-0.366 0.145-0.657 0.374-0.874 0.687s-0.325 0.658-0.325 1.038v21.581c0 0.38 0.108 0.725 0.325 1.038s0.508 0.541 0.874 0.686c0.233 0.1 0.477 0.15 0.732 0.15 0.522 0 0.982-0.184 1.381-0.552l7.339-7.099 7.339 7.099c0.388 0.357 0.849 0.535 1.381 0.535 0.277 0 0.522-0.044 0.732-0.134 0.366-0.145 0.657-0.374 0.874-0.687s0.324-0.658 0.324-1.038v-21.581c0-0.38-0.108-0.725-0.324-1.038z"></path>
</svg>
