<!-- Generated by IcoMoon.io -->
<svg version="1.1" xmlns="http://www.w3.org/2000/svg" width="32" height="32" viewBox="0 0 32 32">
<title>break</title>
<path fill="#4c7bc1" d="M12.445 8.277c0.633 0.628 1.5 1.489 1.5 3.117 0 0.636-0.519 1.152-1.16 1.152s-1.16-0.516-1.16-1.152c0-0.647-0.251-0.924-0.82-1.489-0.633-0.628-1.5-1.489-1.499-3.117s0.867-2.489 1.499-3.117c0.453-0.45 1.187-0.45 1.64 0s0.453 1.179-0 1.628c-0.569 0.565-0.82 0.842-0.82 1.489s0.251 0.924 0.82 1.489zM17.857 8.277c0.633 0.628 1.5 1.489 1.5 3.117 0 0.636-0.519 1.152-1.16 1.152s-1.16-0.516-1.16-1.152c0-0.647-0.251-0.924-0.82-1.489-0.633-0.628-1.5-1.489-1.499-3.117s0.867-2.489 1.5-3.117c0.453-0.45 1.187-0.45 1.64 0s0.453 1.179-0 1.628c-0.569 0.565-0.82 0.842-0.82 1.489s0.251 0.924 0.82 1.489zM22.514 23.149c-0.506 1.176-1.261 2.365-2.199 3.214h2.522c0.64 0 1.16 0.516 1.16 1.152s-0.519 1.152-1.16 1.152h-17.010c-0.641 0-1.16-0.516-1.16-1.152s0.519-1.152 1.16-1.152h2.522c-1.786-1.616-2.909-4.086-2.909-6.669v-3.838c0-0.636 0.519-1.152 1.16-1.152h17.010c2.345 0 4.253 1.894 4.253 4.222s-1.906 4.221-4.253 4.222h-1.096zM23.223 19.695c0 0.39-0.026 0.775-0.076 1.152h0.462c1.066 0 1.933-0.861 1.933-1.919s-0.867-1.919-1.933-1.919h-0.387v2.687z"></path>
</svg>
