<!-- Generated by IcoMoon.io -->
<svg version="1.1" xmlns="http://www.w3.org/2000/svg" width="32" height="32" viewBox="0 0 32 32">
<title>bug</title>
<path fill="#4c7bc1" d="M29.006 17.403c0.212 0.209 0.318 0.458 0.318 0.744s-0.106 0.535-0.317 0.744c-0.211 0.209-0.461 0.314-0.75 0.314h-3.732c0 1.885-0.372 3.483-1.116 4.794l3.465 3.455c0.211 0.209 0.316 0.457 0.316 0.744s-0.106 0.535-0.316 0.744c-0.2 0.209-0.45 0.314-0.75 0.314s-0.549-0.105-0.75-0.314l-3.299-3.257c-0.055 0.055-0.139 0.126-0.25 0.215s-0.344 0.245-0.7 0.471c-0.355 0.226-0.717 0.427-1.083 0.603s-0.822 0.336-1.366 0.479c-0.544 0.143-1.083 0.215-1.616 0.215v-14.813h-2.133v14.813c-0.566 0-1.13-0.075-1.691-0.224s-1.044-0.331-1.449-0.545c-0.405-0.215-0.772-0.43-1.099-0.645s-0.569-0.393-0.725-0.537l-0.25-0.232-3.049 3.422c-0.222 0.232-0.489 0.347-0.8 0.347-0.267 0-0.505-0.088-0.716-0.265-0.211-0.199-0.325-0.444-0.341-0.736s0.069-0.548 0.258-0.769l3.365-3.753c-0.644-1.256-0.966-2.767-0.966-4.53h-3.732c-0.289 0-0.539-0.105-0.75-0.314s-0.317-0.457-0.317-0.744c0-0.286 0.106-0.535 0.317-0.744s0.461-0.314 0.75-0.314h3.732v-4.861l-2.882-2.86c-0.211-0.209-0.317-0.457-0.317-0.744s0.105-0.534 0.316-0.744c0.211-0.209 0.461-0.314 0.75-0.314s0.539 0.105 0.75 0.314l2.882 2.86h14.061l2.882-2.86c0.211-0.209 0.461-0.314 0.75-0.314s0.539 0.105 0.75 0.314c0.211 0.21 0.317 0.457 0.317 0.744s-0.106 0.535-0.317 0.744l-2.882 2.86v4.861h3.732c0.289 0 0.539 0.105 0.75 0.314zM19.771 4.892c1.038 1.039 1.557 2.297 1.557 3.775h-10.662c0-1.478 0.519-2.736 1.557-3.775s2.296-1.558 3.773-1.558c1.477 0 2.735 0.52 3.773 1.558z"></path>
</svg>
