<!-- Generated by IcoMoon.io -->
<svg version="1.1" xmlns="http://www.w3.org/2000/svg" width="32" height="32" viewBox="0 0 32 32">
<title>bus</title>
<path fill="#4c7bc1" d="M26.755 9.258c-0.22-2.152-0.571-3.827-1.125-4.486-2.287-2.708-17.594-2.906-19.413 0-0.445 0.712-0.757 2.382-0.966 4.49-0.676 0.079-1.202 0.648-1.202 1.345v2.636c0 0.586 0.371 1.080 0.89 1.273-0.123 4.152 0.010 9.101 0.161 10.638s0.723 1.537 1.117 1.537h0.469v1.645c0 0.712 0.734 1.288 1.638 1.288 0.905 0 1.639-0.576 1.639-1.288v-1.645h12.047v1.645c0 0.712 0.733 1.288 1.639 1.288 0.904 0 1.638-0.576 1.638-1.288v-1.645h0.344c0 0 1.253-0.086 1.423-1.537s0.112-6.125 0-10.62c0.551-0.173 0.953-0.681 0.953-1.292v-2.636c0.001-0.713-0.551-1.292-1.251-1.349zM10 5.667c0-0.552 0.406-1 0.902-1h10.196c0.498 0 0.902 0.444 0.902 1 0 0.552-0.406 1-0.902 1h-10.196c-0.498 0-0.902-0.444-0.902-1zM10.666 24c-1.105 0-2-0.896-2-2.001s0.895-1.999 2-1.999 2 0.895 2 1.999c0 1.105-0.895 2.001-2 2.001zM21.334 23.999c-1.104 0-2.001-0.896-2.001-2s0.896-1.999 2.001-1.999 1.999 0.895 1.999 1.999c0.001 1.104-0.895 2-1.999 2zM24.667 15.392c0 0.736-0.789 1.275-1.556 1.275h-14.398c-0.762 0-1.379-0.542-1.379-1.275v-6.043c0-0.736 0.612-1.349 1.379-1.349h14.398c0.762 0 1.556 0.616 1.556 1.349v6.043z"></path>
</svg>
