<!-- Generated by IcoMoon.io -->
<svg version="1.1" xmlns="http://www.w3.org/2000/svg" width="32" height="32" viewBox="0 0 32 32">
<title>calander</title>
<path fill="#4c7bc1" d="M9.74 9.398c0.486 0 0.88-0.384 0.88-0.859v-5.015c-0.001-0.474-0.395-0.859-0.881-0.859h-1.597c-0.486 0-0.88 0.384-0.88 0.859v5.015c0 0.474 0.394 0.859 0.88 0.859h1.599zM23.779 9.398c0.486 0 0.878-0.384 0.878-0.859v-5.015c0-0.474-0.393-0.859-0.878-0.859h-1.599c-0.486 0-0.878 0.384-0.878 0.859v5.015c0 0.474 0.393 0.859 0.878 0.859h1.599zM26.38 8.541c0 1.382-1.147 2.497-2.561 2.497h-1.616c-1.414 0-2.577-1.115-2.577-2.497v-3.219h-7.286v3.219c0 1.382-1.163 2.497-2.577 2.497h-1.616c-1.414 0-2.561-1.115-2.561-2.497v-3.208c-1.236 0.037-2.252 1.185-2.252 2.414v18.388c0 1.253 1.037 2.532 2.318 2.532h20.661c1.279 0 2.38-1.696 2.38-2.946v-18.388c0-1.229-1.077-1.963-2.312-2v3.208zM24.961 26h-17.924c-0.574 0-1.036-0.451-1.036-1.008v-9.986c0-0.557 0.464-1.006 1.036-1.006h17.926c0.573 0 1.038 0.451 1.038 1.006v9.986c-0.001 0.557-0.466 1.008-1.039 1.008zM23.998 15.333h-2.005c-0.324 0-0.66 0.35-0.66 0.667v2.714c0 0.318 0.336 0.62 0.66 0.62h2.005c0.324 0 0.658-0.303 0.658-0.62v-2.714c0-0.318-0.334-0.667-0.658-0.667zM23.998 20.667h-2.005c-0.324 0-0.66 0.35-0.66 0.667v2.714c0 0.318 0.336 0.62 0.66 0.62h2.005c0.324 0 0.658-0.303 0.658-0.62v-2.714c0-0.318-0.334-0.667-0.658-0.667zM19.331 15.333h-2.005c-0.324 0-0.66 0.35-0.66 0.667v2.714c0 0.318 0.336 0.62 0.66 0.62h2.005c0.324 0 0.658-0.303 0.658-0.62v-2.714c0-0.318-0.334-0.667-0.658-0.667zM19.331 20.667h-2.005c-0.324 0-0.66 0.35-0.66 0.667v2.714c0 0.318 0.336 0.62 0.66 0.62h2.005c0.324 0 0.658-0.303 0.658-0.62v-2.714c0-0.318-0.334-0.667-0.658-0.667zM14.665 15.333h-2.005c-0.324 0-0.66 0.35-0.66 0.667v2.714c0 0.318 0.336 0.62 0.66 0.62h2.005c0.324 0 0.658-0.303 0.658-0.62v-2.714c0-0.318-0.334-0.667-0.658-0.667zM14.665 20.667h-2.005c-0.324 0-0.66 0.35-0.66 0.667v2.714c0 0.318 0.336 0.62 0.66 0.62h2.005c0.324 0 0.658-0.303 0.658-0.62v-2.714c0-0.318-0.334-0.667-0.658-0.667zM9.998 15.333h-2.005c-0.324 0-0.66 0.35-0.66 0.667v2.714c0 0.318 0.336 0.62 0.66 0.62h2.005c0.324 0 0.658-0.303 0.658-0.62v-2.714c0-0.318-0.334-0.667-0.658-0.667zM9.998 20.667h-2.005c-0.324 0-0.66 0.35-0.66 0.667v2.714c0 0.318 0.336 0.62 0.66 0.62h2.005c0.324 0 0.658-0.303 0.658-0.62v-2.714c0-0.318-0.334-0.667-0.658-0.667z"></path>
</svg>
