<!-- Generated by IcoMoon.io -->
<svg version="1.1" xmlns="http://www.w3.org/2000/svg" width="32" height="32" viewBox="0 0 32 32">
<title>camera</title>
<path fill="#4c7bc1" d="M25.253 12.612c0 0.794 0.619 1.438 1.382 1.438s1.382-0.643 1.382-1.438-0.619-1.438-1.382-1.438c-0.763 0-1.382 0.644-1.382 1.438zM30.037 24.96c0 1.311-1.046 2.373-2.306 2.373h-23.451c-1.259 0-2.28-1.062-2.28-2.373v-13.27c0-1.311 1.021-2.356 2.28-2.356h4.391l1.972-2.667c0.541-0.695 1.511-1.333 2.557-1.333h5.609c1.046 0 2.016 0.638 2.557 1.333l1.986 2.667h4.38c1.259 0 2.306 1.046 2.306 2.356zM16 11.333c-3.676 0-6.666 2.991-6.666 6.667s2.991 6.666 6.666 6.666c3.676 0 6.667-2.991 6.667-6.666s-2.991-6.667-6.667-6.667zM16 22.667c-2.573 0-4.667-2.093-4.667-4.666s2.094-4.667 4.667-4.667 4.667 2.093 4.667 4.667c0 2.573-2.094 4.666-4.667 4.666z"></path>
</svg>
