<!-- Generated by IcoMoon.io -->
<svg version="1.1" xmlns="http://www.w3.org/2000/svg" width="32" height="32" viewBox="0 0 32 32">
<title>cancel</title>
<path fill="#4c7bc1" d="M10.813 6.099c-0.776-0.776-2.046-0.78-2.827 0.001l-1.885 1.885c-0.779 0.779-0.782 2.047-0.001 2.827l5.187 5.187-5.187 5.187c-0.776 0.776-0.78 2.046 0.001 2.827l1.885 1.885c0.779 0.779 2.047 0.782 2.827 0.001l5.187-5.187 5.187 5.187c0.776 0.776 2.046 0.78 2.827-0.001l1.885-1.885c0.779-0.779 0.782-2.047 0.001-2.827l-5.187-5.187 5.187-5.187c0.776-0.776 0.78-2.046-0.001-2.827l-1.885-1.885c-0.779-0.779-2.047-0.782-2.827-0.001l-5.187 5.187-5.187-5.187z"></path>
</svg>
