<!-- Generated by IcoMoon.io -->
<svg version="1.1" xmlns="http://www.w3.org/2000/svg" width="32" height="32" viewBox="0 0 32 32">
<title>cloud</title>
<path fill="#4c7bc1" d="M24.556 12.872c-0.375-3.854-3.693-6.872-7.732-6.872-3.111 0-5.79 1.783-7.029 4.362-0.415-0.152-0.864-0.231-1.325-0.231-2.143 0-3.877 1.698-3.877 3.797 0 0.457 0.081 0.897 0.236 1.303-1.688 0.965-2.829 2.765-2.829 4.819 0 2.979 2.391 5.727 5.393 5.891h6.464v-5.947h-2.777c-0.565 0-0.853-0.666-0.461-1.061l4.92-4.96c0.254-0.254 0.668-0.254 0.916 0l4.92 4.96c0.392 0.395 0.109 1.061-0.461 1.061h-2.777v5.958h5.744c3.416-0.237 6.119-3.177 6.119-6.573 0.006-3.177-2.351-5.987-5.444-6.506z"></path>
</svg>
