<!-- Generated by IcoMoon.io -->
<svg version="1.1" xmlns="http://www.w3.org/2000/svg" width="32" height="32" viewBox="0 0 32 32">
<title>cog</title>
<path fill="#4c7bc1" d="M11.333 16c0-2.573 2.093-4.666 4.667-4.666s4.667 2.093 4.667 4.666c0 2.573-2.093 4.667-4.667 4.667s-4.667-2.093-4.667-4.667v0zM28.321 13.832c-1.219 0-2.299-0.715-2.753-1.822-0.463-1.133-0.165-2.455 0.743-3.288 0.286-0.261 0.321-0.699 0.081-1.002-0.623-0.792-1.333-1.507-2.107-2.128-0.303-0.243-0.747-0.209-1.011 0.082-0.792 0.878-2.216 1.204-3.316 0.745-1.145-0.481-1.867-1.642-1.796-2.887 0.023-0.391-0.263-0.731-0.653-0.777-0.993-0.115-1.995-0.118-2.991-0.008-0.386 0.043-0.672 0.375-0.658 0.761 0.043 1.233-0.687 2.373-1.821 2.837-1.087 0.444-2.501 0.12-3.292-0.75-0.261-0.286-0.699-0.322-1.003-0.084-0.797 0.625-1.522 1.342-2.151 2.127-0.246 0.306-0.21 0.748 0.079 1.011 0.925 0.838 1.224 2.171 0.744 3.317-0.459 1.094-1.594 1.798-2.893 1.798-0.422-0.014-0.722 0.269-0.768 0.653-0.117 0.999-0.119 2.017-0.006 3.024 0.042 0.376 0.491 0.654 0.872 0.654 1.158-0.029 2.27 0.687 2.736 1.822 0.464 1.133 0.166 2.454-0.744 3.288-0.285 0.261-0.321 0.698-0.081 1.002 0.618 0.787 1.327 1.503 2.104 2.128 0.304 0.245 0.748 0.211 1.012-0.080 0.796-0.88 2.219-1.206 3.315-0.746 1.148 0.48 1.869 1.64 1.798 2.886-0.023 0.392 0.264 0.732 0.653 0.777 0.508 0.059 1.019 0.088 1.532 0.088 0.486 0 0.973-0.026 1.459-0.081 0.386-0.042 0.672-0.374 0.658-0.761-0.044-1.233 0.687-2.373 1.82-2.836 1.095-0.447 2.502-0.119 3.293 0.75 0.263 0.285 0.698 0.32 1.003 0.084 0.796-0.624 1.519-1.34 2.151-2.127 0.245-0.305 0.211-0.748-0.079-1.011-0.925-0.838-1.225-2.171-0.745-3.317 0.452-1.079 1.545-1.803 2.72-1.803l0.165 0.004c0.382 0.032 0.732-0.262 0.778-0.652 0.117-1 0.119-2.017 0.006-3.024-0.042-0.374-0.478-0.655-0.855-0.655v0z"></path>
</svg>
