<!-- Generated by IcoMoon.io -->
<svg version="1.1" xmlns="http://www.w3.org/2000/svg" width="32" height="32" viewBox="0 0 32 32">
<title>container</title>
<path fill="#4c7bc1" d="M3.333 23.324c0 0.041 0.002 0.081 0.006 0.12-0.587 0.033-1.050 0.515-1.050 1.105v0.344c0 0.076 0.008 0.15 0.022 0.221-0.007 0.051-0.011 0.104-0.011 0.157v0.362c0 0.612 0.502 1.109 1.121 1.109h0.348c0.491 0 0.906-0.31 1.059-0.742h22.343c0.153 0.432 0.569 0.742 1.058 0.742h0.348c0.622 0 1.121-0.497 1.121-1.109v-0.362c0-0.053-0.004-0.106-0.011-0.157 0.015-0.072 0.022-0.145 0.022-0.221v-0.344c0-0.592-0.465-1.072-1.051-1.105 0.004-0.039 0.007-0.079 0.007-0.12v-14.729c0.584-0.036 1.044-0.517 1.044-1.105v-0.344c0-0.076-0.008-0.15-0.022-0.221 0.007-0.051 0.011-0.104 0.011-0.157v-0.362c0-0.612-0.502-1.109-1.121-1.109h-0.348c-0.491 0-0.906 0.31-1.059 0.742h-22.343c-0.153-0.432-0.569-0.742-1.058-0.742h-0.348c-0.622 0-1.121 0.497-1.121 1.109v0.362c0 0.053 0.004 0.106 0.011 0.157-0.015 0.072-0.022 0.146-0.022 0.221v0.344c0 0.59 0.461 1.069 1.044 1.105v14.729zM6 8.667c0.368 0 0.667 0.327 0.667 0.727v13.212c0 0.402-0.296 0.727-0.667 0.727-0.368 0-0.667-0.327-0.667-0.727v-13.212c0-0.402 0.296-0.727 0.667-0.727v0zM14 8.667c0.368 0 0.667 0.327 0.667 0.727v13.212c0 0.402-0.296 0.727-0.667 0.727-0.368 0-0.667-0.327-0.667-0.727v-13.212c0-0.402 0.296-0.727 0.667-0.727v0zM10 8.667c0.368 0 0.667 0.327 0.667 0.727v13.212c0 0.402-0.296 0.727-0.667 0.727-0.368 0-0.667-0.327-0.667-0.727v-13.212c0-0.402 0.296-0.727 0.667-0.727v0zM18 8.667c0.368 0 0.667 0.327 0.667 0.727v13.212c0 0.402-0.296 0.727-0.667 0.727-0.368 0-0.667-0.327-0.667-0.727v-13.212c0-0.402 0.296-0.727 0.667-0.727v0zM22 8.667c0.368 0 0.667 0.327 0.667 0.727v13.212c0 0.402-0.296 0.727-0.667 0.727-0.368 0-0.667-0.327-0.667-0.727v-13.212c0-0.402 0.296-0.727 0.667-0.727v0zM26 8.667c0.368 0 0.667 0.327 0.667 0.727v13.212c0 0.402-0.296 0.727-0.667 0.727-0.368 0-0.667-0.327-0.667-0.727v-13.212c0-0.402 0.296-0.727 0.667-0.727v0z"></path>
</svg>
