<!-- Generated by IcoMoon.io -->
<svg version="1.1" xmlns="http://www.w3.org/2000/svg" width="32" height="32" viewBox="0 0 32 32">
<title>coverjobs</title>
<path fill="#4c7bc1" d="M14.106 23.758c-0.381 0-0.692 0.309-0.692 0.688v1.547c0 0.378 0.311 0.688 0.692 0.688h14.907c0.381 0 0.692-0.309 0.692-0.688v-1.547c0-0.378-0.311-0.688-0.692-0.688h-14.907zM14.106 14.384c-0.381 0-0.692 0.309-0.692 0.688v1.547c0 0.378 0.311 0.688 0.692 0.688h14.907c0.381 0 0.692-0.309 0.692-0.688v-1.547c0-0.378-0.311-0.688-0.692-0.688h-14.907zM14.106 5.073c-0.381 0-0.692 0.309-0.692 0.688v1.547c0 0.378 0.311 0.688 0.692 0.688h14.907c0.381 0 0.692-0.309 0.692-0.688v-1.547c0-0.378-0.311-0.688-0.692-0.688h-14.907zM2.667 25.098c0 2.136 1.743 3.867 3.893 3.867s3.893-1.732 3.893-3.867c0-2.136-1.743-3.867-3.893-3.867s-3.893 1.732-3.893 3.867v0zM2.667 15.816c0 2.136 1.743 3.867 3.893 3.867s3.893-1.732 3.893-3.867c0-2.136-1.743-3.867-3.893-3.867s-3.893 1.732-3.893 3.867v0zM6.56 10.402c-2.15 0-3.893-1.732-3.893-3.867s1.743-3.867 3.893-3.867c2.15 0 3.893 1.732 3.893 3.867s-1.743 3.867-3.893 3.867v0z"></path>
</svg>
