<!-- Generated by IcoMoon.io -->
<svg version="1.1" xmlns="http://www.w3.org/2000/svg" width="32" height="32" viewBox="0 0 32 32">
<title>customer</title>
<path fill="#4c7bc1" d="M21.293 7.329l5.831 5.701c0.248 0.242 0.248 0.635 0 0.876l-4.029 3.937 0.981 0.96c0.741 0.725 0.691 1.954-0.112 2.739-0.393 0.385-0.893 0.589-1.389 0.617-0.029 0.485-0.238 0.973-0.63 1.357-0.394 0.384-0.893 0.588-1.387 0.617-0.030 0.484-0.24 0.973-0.633 1.356-0.391 0.384-0.892 0.589-1.387 0.617-0.029 0.484-0.238 0.973-0.63 1.356-0.805 0.785-2.061 0.836-2.804 0.11l-2.327-2.274-1.185 1.158c-0.496 0.485-1.35 0.434-1.907-0.109-0.558-0.546-0.608-1.379-0.112-1.863-0.495 0.484-1.349 0.434-1.907-0.11s-0.608-1.378-0.112-1.863c-0.496 0.485-1.35 0.433-1.907-0.11-0.558-0.545-0.608-1.379-0.112-1.863-0.496 0.485-1.35 0.434-1.906-0.109-0.558-0.546-0.608-1.38-0.113-1.863l1.122-1.097-3.785-3.698c-0.247-0.243-0.247-0.636 0-0.877 0.248-0.243 0.65-0.243 0.897 0l3.795 3.708c0.505-0.388 1.282-0.319 1.803 0.191 0.557 0.546 0.608 1.38 0.112 1.864 0.497-0.484 1.35-0.434 1.907 0.11 0.558 0.544 0.608 1.378 0.113 1.862 0.495-0.484 1.349-0.434 1.907 0.11s0.606 1.379 0.111 1.864c0.495-0.485 1.351-0.435 1.907 0.108 0.496 0.487 0.588 1.2 0.253 1.692l2.343 2.292c0.242 0.238 0.704 0.187 1.010-0.11 0.303-0.297 0.355-0.749 0.112-0.987l-1.925-1.882c-0.247-0.241-0.247-0.634 0-0.876s0.65-0.242 0.897 0l1.925 1.88c0.244 0.238 0.706 0.187 1.009-0.109s0.356-0.749 0.113-0.986l-1.925-1.881c-0.248-0.243-0.248-0.636 0-0.876 0.247-0.243 0.649-0.243 0.897 0l1.926 1.88c0.242 0.237 0.705 0.187 1.009-0.11 0.304-0.297 0.355-0.748 0.112-0.985l-1.925-1.882c-0.248-0.242-0.248-0.635 0-0.876 0.248-0.243 0.649-0.243 0.897 0l1.925 1.88c0.243 0.237 0.706 0.186 1.010-0.11s0.355-0.749 0.112-0.987c0 0-6.852-6.724-8.159-7.957-0.151-0.142-0.508-0.478-1.257 0.255-0.22 0.215-0.428 0.486-0.572 0.749l-0.873 1.583c-0.086 0.156-0.231 0.34-0.402 0.507-0.654 0.638-1.489 0.894-2.294 0.706-0.719-0.168-1.321-0.636-1.655-1.284-0.233-0.454-0.284-0.909-0.135-1.251l2.598-5.972c0.094-0.214 0.276-0.46 0.515-0.693 0.409-0.401 1.926-1.649 4.259-0.934l5.833 1.79c0.097 0.030 0.186 0.081 0.259 0.152zM30.842 8.714c0.495 0.484 0.495 1.27 0 1.754l-1.794 1.753c-0.495 0.484-1.299 0.484-1.795 0l-5.135-5.019c-0.495-0.484-0.495-1.269 0-1.753l1.795-1.753c0.496-0.485 1.3-0.485 1.795 0l5.135 5.018zM28.147 11.27c0.575 0 1.041-0.456 1.042-1.017 0-0.563-0.467-1.018-1.042-1.018s-1.041 0.456-1.041 1.018 0.467 1.017 1.041 1.017z"></path>
</svg>
