<!-- Generated by IcoMoon.io -->
<svg version="1.1" xmlns="http://www.w3.org/2000/svg" width="32" height="32" viewBox="0 0 32 32">
<title>data-transfer</title>
<path fill="#4c7bc1" d="M29.252 21.446c0.28 0.281 0.28 0.736 0 1.016l-2.247 2.248c-0.206 0.206-0.515 0.268-0.784 0.156s-0.444-0.373-0.444-0.664v-1.438h-1.849v-1.613h1.849v-1.443c0-0.29 0.175-0.552 0.444-0.663 0.269-0.112 0.578-0.050 0.783 0.155l2.247 2.247zM7.79 11.697l-2.247-2.248c-0.28-0.28-0.28-0.736 0-1.016l2.247-2.247c0.206-0.207 0.515-0.268 0.783-0.157 0.27 0.112 0.444 0.374 0.444 0.665v1.441h1.937v1.613h-1.937v1.44c0 0.291-0.176 0.553-0.444 0.664s-0.577 0.050-0.783-0.156zM26.696 14.962c0 0.524-0.426 0.949-0.949 0.949h-2.693c-0.487-0.454-1.135-0.737-1.852-0.737h-7.322c-0.025-0.954-0.547-1.78-1.311-2.248v-7.309c0-0.524 0.425-0.949 0.949-0.949h4.010c0.524 0 0.949 0.425 0.949 0.949v1.177c0 0.075 0.061 0.135 0.136 0.135h7.135c0.524 0 0.949 0.425 0.949 0.949v7.084zM20.86 16.787c0.616 0 1.115 0.499 1.115 1.115v8.314c0 0.616-0.498 1.115-1.115 1.115h-14.412c-0.616 0-1.114-0.499-1.114-1.115v-10.969c0-0.616 0.498-1.115 1.114-1.115h4.705c0.616 0 1.115 0.499 1.115 1.115v1.38c0 0.088 0.072 0.159 0.159 0.159h8.434z"></path>
</svg>
