<!-- Generated by IcoMoon.io -->
<svg version="1.1" xmlns="http://www.w3.org/2000/svg" width="32" height="32" viewBox="0 0 32 32">
<title>data</title>
<path fill="#4c7bc1" d="M24.837 12.778c0.366 0 0.663 0.298 0.663 0.667v5.778c0 0.368-0.297 0.667-0.663 0.667h-17.508c-0.366 0-0.663-0.298-0.663-0.667v-5.778c0-0.368 0.297-0.667 0.663-0.667h17.508zM16.374 17c0.366 0 0.663-0.298 0.663-0.667s-0.297-0.667-0.663-0.667h-4.951c-0.366 0-0.663 0.298-0.663 0.667s0.297 0.667 0.663 0.667h4.951zM20.255 17.613c0.703 0 1.272-0.573 1.272-1.28s-0.57-1.28-1.272-1.28c-0.703 0-1.272 0.573-1.272 1.28s0.57 1.28 1.272 1.28zM24.506 2.667c0.549 0 0.994 0.448 0.994 1v7.111c0 0.368-0.297 0.667-0.663 0.667h-17.508c-0.366 0-0.663-0.298-0.663-0.667v-7.111c0-0.552 0.445-1 0.994-1h16.845zM16.374 7.889c0.366 0 0.663-0.298 0.663-0.667s-0.297-0.667-0.663-0.667h-4.951c-0.366 0-0.663 0.298-0.663 0.667s0.297 0.667 0.663 0.667h4.951zM20.255 8.502c0.703 0 1.272-0.573 1.272-1.28s-0.57-1.28-1.272-1.28-1.272 0.573-1.272 1.28c0 0.707 0.57 1.28 1.272 1.28zM24.837 21.222c0.366 0 0.663 0.298 0.663 0.667v7.111c0 0.552-0.445 1-0.994 1h-16.845c-0.549 0-0.994-0.448-0.994-1v-7.111c0-0.368 0.297-0.667 0.663-0.667h17.508zM16.374 26.111c0.366 0 0.663-0.298 0.663-0.667s-0.297-0.667-0.663-0.667h-4.951c-0.366 0-0.663 0.298-0.663 0.667s0.297 0.667 0.663 0.667h4.951zM20.255 26.724c0.703 0 1.272-0.573 1.272-1.28s-0.57-1.28-1.272-1.28c-0.703 0-1.272 0.573-1.272 1.28s0.57 1.28 1.272 1.28z"></path>
</svg>
