<!-- Generated by IcoMoon.io -->
<svg version="1.1" xmlns="http://www.w3.org/2000/svg" width="32" height="32" viewBox="0 0 32 32">
<title>dispatch-truck</title>
<path fill="#4c7bc1" d="M11.899 15.663c0 0.363 0.244 0.498 0.545 0.291l1.77-1.217c0.103-0.039 0.194-0.102 0.265-0.182l2.669-1.835c0.296-0.204 0.301-0.543 0-0.75l-4.704-3.234c-0.296-0.204-0.545-0.077-0.545 0.291v1.175h-11.231c-0.375 0-0.667 0.298-0.667 0.665v3.246c0 0.365 0.299 0.665 0.667 0.665h11.231v0.884zM2.746 7.158c0-0.64 0.502-1.158 1.121-1.158h16.337c0.618 0 1.12 0.452 1.12 1.092v11.575c0 0.639-0.502 1.333-1.12 1.333h-16.337c-0.619 0-1.121-0.627-1.121-1.267v-3.040h8.258c0.16 1.054 1.227 1.516 2.171 0.868l4.279-2.942c0.942-0.648 0.947-1.899 0-2.55l-4.279-2.942c-1.017-0.699-2.191-0.098-2.191 1.147l-8.238 0.012v-2.128zM3.891 23.731c0 1.622 1.272 2.936 2.842 2.936s2.842-1.314 2.842-2.936c0-1.622-1.271-2.937-2.842-2.937s-2.842 1.315-2.842 2.937zM27.598 10h-3.697c-0.62 0-1.122 0.518-1.122 1.158v7.439c0 0.818 0.519 1.403 1.236 1.403h3.048c1.532 0 3.064 1.381 3.064 3.194 0 0.485 0.455 0.798 0.882 0.798 0.462 0 0.991-0.399 0.991-0.846v-6.479l-3.223-5.508c-0.247-0.511-0.56-1.158-1.179-1.158zM11.712 20.667c-0.565 0-1.022 0.447-1.022 1 0 0.552-0.169 1 0.395 1h10.743c0.563 0 1.020-0.448 1.020-1 0-0.553 0.039-1-0.524-1h-10.612zM23.546 23.731c0 1.622 1.272 2.936 2.842 2.936 1.569 0 2.842-1.314 2.842-2.936s-1.272-2.937-2.842-2.937c-1.571 0-2.842 1.315-2.842 2.937z"></path>
</svg>
