<!-- Generated by IcoMoon.io -->
<svg version="1.1" xmlns="http://www.w3.org/2000/svg" width="32" height="32" viewBox="0 0 32 32">
<title>document</title>
<path fill="#4c7bc1" d="M21.333 8.748v-3.076l3.333 3.076h-3.333zM10.379 14.667c-0.577 0-1.045-0.448-1.045-1s0.468-1 1.045-1h11.243c0.578 0 1.045 0.448 1.045 1s-0.468 1-1.045 1h-11.243zM10.379 20c-0.577 0-1.045-0.448-1.045-1s0.468-1 1.045-1h11.243c0.578 0 1.045 0.448 1.045 1s-0.468 1-1.045 1h-11.243zM10.379 26c-0.577 0-1.045-0.447-1.045-1 0-0.552 0.468-1 1.045-1h11.243c0.578 0 1.045 0.447 1.045 1 0 0.553-0.468 1-1.045 1h-11.243zM15.69 6.667c0.539 0 0.977 0.447 0.977 1s-0.438 1-0.977 1h-5.379c-0.54 0-0.978-0.447-0.978-1s0.438-1 0.978-1h5.379zM22.328 3.57c-0.186-0.171-0.432-0.267-0.688-0.267l-15.017 0.031c-0.711 0-1.289 0.563-1.289 1.255v23.49c0 0.692 0.578 1.255 1.289 1.255l18.755-0.031c0.71 0 1.289-0.563 1.289-1.255v-20.048c0-0.266-0.112-0.521-0.31-0.704l-4.029-3.726z"></path>
</svg>
