<!-- Generated by IcoMoon.io -->
<svg version="1.1" xmlns="http://www.w3.org/2000/svg" width="32" height="32" viewBox="0 0 32 32">
<title>download</title>
<path fill="#4c7bc1" d="M19.743 13.485h2.483c0.457 0 0.613 0.302 0.35 0.672l-6.079 8.552c-0.264 0.371-0.692 0.371-0.956 0l-6.079-8.552c-0.264-0.371-0.109-0.672 0.35-0.672h2.483v-8.664c0-0.454 0.369-0.821 0.826-0.821h5.797c0.456 0 0.826 0.37 0.826 0.821v8.664zM6.667 25.327c0-0.365 0.293-0.661 0.664-0.661h17.338c0.367 0 0.664 0.301 0.664 0.661v2.679c0 0.365-0.293 0.661-0.664 0.661h-17.338c-0.367 0-0.664-0.301-0.664-0.661v-2.679z"></path>
</svg>
