<!-- Generated by IcoMoon.io -->
<svg version="1.1" xmlns="http://www.w3.org/2000/svg" width="32" height="32" viewBox="0 0 32 32">
<title>driving</title>
<path fill="#4c7bc1" d="M16 5.333c-5.891 0-10.667 4.776-10.667 10.667s4.776 10.667 10.667 10.667c5.891 0 10.667-4.776 10.667-10.667s-4.776-10.667-10.667-10.667zM16 8c3.471 0 6.403 2.236 7.511 5.333h-15.021c1.107-3.097 4.039-5.333 7.511-5.333zM16 17.333c-0.737 0-1.333-0.597-1.333-1.333s0.597-1.333 1.333-1.333c0.737 0 1.333 0.597 1.333 1.333s-0.597 1.333-1.333 1.333zM8 16c3.643 0 6.594 3.511 6.656 7.865-3.771-0.646-6.656-3.914-6.656-7.865zM17.344 23.865c0.062-4.354 3.013-7.865 6.656-7.865 0 3.951-2.885 7.219-6.656 7.865z"></path>
</svg>
