<!-- Generated by IcoMoon.io -->
<svg version="1.1" xmlns="http://www.w3.org/2000/svg" width="32" height="32" viewBox="0 0 32 32">
<title>drivers</title>
<path fill="#4c7bc1" d="M13.493 19.433c-0.445-0.214-0.881-0.097-1.198 0.065-0.29 0.148-0.613 0.58-0.855 0.802-0.334 0.306-0.923 0.653-1.886 0.672h-0.591c-0.963-0.020-1.553-0.367-1.886-0.672-0.242-0.222-0.574-0.64-0.867-0.784-0.476-0.233-1.212-0.397-1.83 0.321-1.007 1.171-1.892 3.19-1.892 3.19l-0.32 0.744c-0.131 0.304-0.264 0.848-0.073 1.117 0.354 0.497 1.156 0.443 1.156 0.443l5.289 0c-0.013-0.046-0.015-0.097-0.005-0.151l0.371-1.945-0.907-1.188c-0.118-0.154-0.059-0.279 0.127-0.279h2.045c0.187 0 0.246 0.123 0.127 0.279l-0.905 1.185 0.372 1.948c0.010 0.054 0.008 0.106-0.005 0.151h1.933c-0.043-0.047-0.083-0.098-0.121-0.151-0.378-0.531-0.28-1.317 0.020-2.016l0.391-0.91c0.018-0.042 0.052-0.118 0.101-0.222 0.079-0.172 0.171-0.363 0.273-0.568 0.291-0.587 0.609-1.175 0.946-1.726 0.063-0.104 0.127-0.205 0.19-0.304v0zM9.138 19.075c-2.090 0-3.784-2.073-3.784-4.627s1.694-4.448 3.784-4.448c2.091 0 3.786 1.893 3.786 4.448s-1.695 4.627-3.786 4.627zM22.026 25.33c0.016-0.056 0.018-0.118 0.006-0.184l-0.453-2.371 1.102-1.443c0.145-0.19 0.074-0.339-0.154-0.339h-2.489c-0.225 0-0.297 0.152-0.154 0.339l1.105 1.446-0.452 2.368c-0.013 0.066-0.010 0.129 0.006 0.184l-6.439-0c0 0-0.977 0.066-1.408-0.54-0.233-0.327-0.071-0.99 0.088-1.36l0.389-0.906c0 0 1.077-2.459 2.303-3.884 0.753-0.874 1.649-0.675 2.228-0.391 0.357 0.175 0.76 0.684 1.055 0.954 0.406 0.372 1.124 0.795 2.296 0.819h0.72c1.172-0.024 1.889-0.447 2.295-0.819 0.295-0.27 0.687-0.795 1.041-0.976 0.532-0.272 1.341-0.439 2.075 0.412 1.227 1.425 2.198 3.929 2.198 3.929l0.399 0.888c0.165 0.367 0.334 1.027 0.108 1.358-0.403 0.593-1.309 0.514-1.309 0.514l-6.556-0zM21.267 17.715c-2.545 0-4.607-2.523-4.607-5.633s2.062-5.415 4.607-5.415c2.545 0 4.609 2.305 4.609 5.415s-2.064 5.633-4.609 5.633z"></path>
</svg>
