<!-- Generated by IcoMoon.io -->
<svg version="1.1" xmlns="http://www.w3.org/2000/svg" width="32" height="32" viewBox="0 0 32 32">
<title>driver</title>
<path fill="#4c7bc1" d="M17.128 29.328l10.034 0c0 0 1.386 0.115 2.004-0.753 0.346-0.485 0.087-1.451-0.166-1.989l-0.611-1.301c0 0-1.487-3.666-3.364-5.753-1.123-1.246-2.362-1.002-3.175-0.604-0.541 0.265-1.142 1.034-1.593 1.429-0.621 0.545-1.719 1.164-3.513 1.199h-1.101c-1.795-0.035-2.893-0.654-3.515-1.199-0.451-0.395-1.069-1.141-1.615-1.397-0.887-0.416-2.258-0.707-3.411 0.572-1.877 2.087-3.525 5.687-3.525 5.687l-0.596 1.327c-0.243 0.541-0.491 1.512-0.135 1.991 0.659 0.886 2.154 0.79 2.154 0.79l9.856 0c-0.024-0.081-0.028-0.173-0.008-0.27l0.692-3.467-1.691-2.118c-0.219-0.274-0.109-0.497 0.236-0.497h3.81c0.349 0 0.458 0.218 0.236 0.497l-1.687 2.113 0.693 3.472c0.019 0.097 0.015 0.188-0.009 0.27v0zM15.967 18.177c-3.895 0-7.051-3.694-7.051-8.249s3.156-7.929 7.051-7.929c3.896 0 7.054 3.375 7.054 7.929s-3.159 8.249-7.054 8.249v0z"></path>
</svg>
