<!-- Generated by IcoMoon.io -->
<svg version="1.1" xmlns="http://www.w3.org/2000/svg" width="32" height="32" viewBox="0 0 32 32">
<title>edit</title>
<path fill="#4c7bc1" d="M15.101 19.182c-0.54-0.991-1.316-1.755-2.338-2.258-0.289-0.143-0.594-0.233-0.947-0.201-0.171 0.8-0.348 1.58-0.503 2.364 0.84 0.148 1.509 0.795 1.675 1.622 0.744-0.148 1.482-0.313 2.226-0.461 0.145-0.027 0.198-0.095 0.16-0.228-0.085-0.281-0.134-0.583-0.273-0.837zM30.246 6.979c-0.027 0.308-0.134 0.546-0.353 0.758-4.43 4.384-8.86 8.768-13.284 13.162-0.171 0.17-0.358 0.265-0.588 0.313-1.91 0.398-3.82 0.795-5.73 1.198-0.449 0.095-0.786-0.239-0.69-0.684 0.406-1.908 0.808-3.817 1.23-5.72 0.043-0.185 0.155-0.382 0.289-0.519 1.268-1.272 2.547-2.534 3.82-3.796 3.151-3.122 6.302-6.244 9.448-9.372 0.23-0.233 0.487-0.35 0.797-0.313 0.353 0.043 0.722 0.080 1.049 0.212 1.728 0.694 2.959 1.919 3.707 3.605 0.161 0.36 0.203 0.769 0.305 1.156zM16.609 6.667c-0.465 0.461-3.199 3.333-3.199 3.333h-6.077v14.667h14.667v-6.026l3.333-3.154 0.098 10.513c0 0.821-0.674 1.97-1.503 1.97h-18.425c-0.829 0-1.503-0.668-1.503-1.489v-18.267c0-0.822 0.674-1.547 1.503-1.547h11.106z"></path>
</svg>
