<!-- Generated by IcoMoon.io -->
<svg version="1.1" xmlns="http://www.w3.org/2000/svg" width="32" height="32" viewBox="0 0 32 32">
<title>edit-route</title>
<path fill="#4c7bc1" d="M22.168 15.236c-0.029 0.102 0.012 0.156 0.124 0.176 0.574 0.114 1.143 0.241 1.717 0.356 0.128-0.638 0.644-1.137 1.292-1.247v-0.004c-0.12-0.605-0.256-1.207-0.388-1.824-0.272-0.025-0.508 0.045-0.731 0.155-0.788 0.388-1.387 0.978-1.804 1.742-0.107 0.196-0.144 0.429-0.21 0.646zM10.929 4.283c0.578-1.3 1.527-2.245 2.86-2.781 0.252-0.102 0.537-0.131 0.809-0.164 0.239-0.029 0.437 0.061 0.615 0.241 2.427 2.413 4.858 4.822 7.289 7.231 0.982 0.973 1.969 1.947 2.947 2.928 0.103 0.106 0.19 0.258 0.223 0.401 0.326 1.468 0.636 2.941 0.949 4.413 0.074 0.343-0.186 0.601-0.532 0.528-1.473-0.311-2.947-0.618-4.421-0.924-0.177-0.037-0.322-0.11-0.454-0.241-3.413-3.39-6.831-6.773-10.249-10.155-0.169-0.164-0.252-0.348-0.272-0.585 0.078-0.298 0.111-0.614 0.235-0.892zM6.963 30.013c-0.078 0-0.153-0.033-0.207-0.090-0.456-0.489-1.356-1.501-2.259-2.786-1.14-1.619-2.498-3.993-2.498-6.109 0-2.763 2.227-5.012 4.963-5.012s4.963 2.248 4.963 5.012c0 2.114-1.356 4.487-2.494 6.105-0.904 1.285-1.805 2.299-2.262 2.79-0.053 0.057-0.129 0.090-0.207 0.090zM9.353 20.985c0-1.3-1.054-2.357-2.349-2.357s-2.349 1.057-2.349 2.357c0 1.299 1.054 2.357 2.349 2.357s2.349-1.058 2.349-2.357zM21.288 30.401h-11.561c-0.52 0-0.804-0.607-0.47-1.006 0.324-0.387 0.639-0.787 0.941-1.197 0.116-0.157 0.299-0.249 0.493-0.249h10.597c4.189 0 5.271-0.535 5.276-2.312 0.004-1.438-0.826-1.753-5.462-1.753-5.374 0-6.911-0.823-6.758-4.294 0.089-2.017 0.188-3.73 4.825-3.875 0.207-0.006 0.404 0.092 0.522 0.262 0.032 0.046 0.325 0.281 0.358 0.328 0.259 0.369 1.068 0.505 2.646 0.788s-0.317 0.476-0.828 0.479c-3.99 0.024-5.050 0.51-5.072 2.051-0.023 1.679 0.241 1.808 4.306 1.808 2.924 0 4.116 0.099 5.247 0.473 1.754 0.579 2.672 1.852 2.667 3.74-0.010 3.508-2.235 4.757-7.728 4.757z"></path>
</svg>
