<!-- Generated by IcoMoon.io -->
<svg version="1.1" xmlns="http://www.w3.org/2000/svg" width="32" height="32" viewBox="0 0 32 32">
<title>engine</title>
<path fill="#4c7bc1" d="M26.961 12.099c-0.307-0.229-0.719-0.267-1.065-0.099-0.345 0.167-0.563 0.512-0.563 0.89v2.522h-1.333v-2.031c0-0.549-0.454-1.381-1.015-1.381h-1.652v-3.007c0-0.549-0.454-0.993-1.015-0.993h-2.998v-1.347h0.85c0.56 0 1.015-0.445 1.015-0.993s-0.455-0.993-1.015-0.993h-6.557c-0.561 0-1.015 0.445-1.015 0.993s0.454 0.993 1.015 0.993h1.053v1.347h-4.318c-0.56 0-1.015 0.445-1.015 0.993v1.647h-1.652c-0.561 0-1.015 0.445-1.015 0.993v2.366h-1.97v-2.912c0-0.549-0.454-0.993-1.015-0.993s-1.014 0.445-1.014 0.993v10.391c0 0.55 0.454 0.994 1.015 0.994s1.015-0.445 1.015-0.994v-2.818h1.97v2.33c0 0.548 0.454 0.993 1.015 0.993h2.413l3.581 4.316c0.193 0.233 0.482 0.367 0.788 0.367h10.522c0.56 0 1.015-0.445 1.015-0.993v-1.673h1.333v2.431c0 0.388 0.231 0.74 0.591 0.902 0.135 0.061 0.28 0.091 0.424 0.091 0.237 0 0.473-0.082 0.661-0.239l3.304-3.764c0.225-0.189 0.354-0.465 0.354-0.755v-6.618c0-0.311-0.149-0.603-0.401-0.791l-3.304-3.159z"></path>
</svg>
