<!-- Generated by IcoMoon.io -->
<svg version="1.1" xmlns="http://www.w3.org/2000/svg" width="32" height="32" viewBox="0 0 32 32">
<title>engine-power</title>
<path fill="#4c7bc1" d="M26.961 12.099l3.304 3.159c0.253 0.188 0.401 0.48 0.401 0.791v6.618c0 0.29-0.129 0.565-0.354 0.755l-3.304 3.764c-0.188 0.157-0.423 0.239-0.661 0.239-0.144 0-0.289-0.030-0.424-0.091-0.36-0.162-0.591-0.515-0.591-0.902v-2.431h-1.333v1.673c0 0.549-0.454 0.993-1.015 0.993h-10.522c-0.305 0-0.595-0.134-0.788-0.367l-3.581-4.316h-2.413c-0.56 0-1.015-0.445-1.015-0.993v-2.33h-1.97v2.818c0 0.549-0.455 0.994-1.015 0.994s-1.015-0.444-1.015-0.994v-10.391c0-0.549 0.454-0.993 1.014-0.993 0.561 0 1.015 0.445 1.015 0.993v2.912h1.97v-2.366c0-0.549 0.454-0.993 1.015-0.993h1.652v-1.647c0-0.549 0.455-0.993 1.015-0.993h4.318v-1.347h-1.053c-0.561 0-1.015-0.445-1.015-0.993s0.454-0.993 1.015-0.993h6.557c0.56 0 1.015 0.445 1.015 0.993s-0.455 0.993-1.015 0.993h-0.85v1.347h2.998c0.561 0 1.015 0.445 1.015 0.993v3.007h1.652c0.561 0 1.015 0.832 1.015 1.381v2.031h1.333v-2.522c0-0.377 0.218-0.722 0.563-0.89 0.346-0.169 0.758-0.13 1.065 0.099zM20.843 15.325c-0.083-0.19-0.269-0.312-0.474-0.312h-3.901l1.605-4.302c0.060-0.162 0.038-0.343-0.058-0.485s-0.256-0.227-0.427-0.227h-3.859c-0.216 0-0.409 0.135-0.485 0.34l-2.446 6.559c-0.060 0.162-0.038 0.343 0.058 0.485s0.256 0.227 0.427 0.227l4.329-0.026-2.287 6.171c-0.030 0.082 0.001 0.173 0.074 0.219s0.168 0.031 0.226-0.034l7.131-8.049c0.137-0.154 0.171-0.376 0.088-0.566z"></path>
</svg>
