<!-- Generated by IcoMoon.io -->
<svg version="1.1" xmlns="http://www.w3.org/2000/svg" width="32" height="32" viewBox="0 0 32 32">
<title>exit</title>
<path fill="#4c7bc1" d="M10.693 3.391h6.189c0.602 0 1.092 0.49 1.092 1.095v5.665c0 0.301-0.247 0.546-0.552 0.546h-1.52c-0.309 0-0.552-0.244-0.552-0.545v-4.137h-4.657v20.035h4.657v-4.157c0-0.295 0.247-0.544 0.552-0.544h1.52c0.309 0 0.552 0.246 0.552 0.55v5.734c0 0.606-0.489 1.097-1.092 1.097h-6.189v1.268c0 0.606-0.461 0.932-1.032 0.728l-5.962-1.996c-0.57-0.204-1.032-0.86-1.032-1.457v-22.422c0-0.601 0.462-1.254 1.032-1.457l5.962-1.996c0.57-0.204 1.032 0.116 1.032 0.728v1.268zM21.165 12.657h-7.691c-0.412 0-0.751 0.332-0.751 0.741v5.203c0 0.409 0.336 0.741 0.751 0.741h7.691v2.228c0 0.412 0.275 0.551 0.615 0.314l7.815-5.456c0.339-0.237 0.339-0.621 0-0.858l-7.815-5.456c-0.339-0.237-0.615-0.096-0.615 0.314v2.228z"></path>
</svg>
