<!-- Generated by IcoMoon.io -->
<svg version="1.1" xmlns="http://www.w3.org/2000/svg" width="32" height="32" viewBox="0 0 32 32">
<title>fail-report</title>
<path fill="#4c7bc1" d="M21.333 8.748h3.333l-3.333-3.076v3.076zM22.328 3.57l4.029 3.726c0.198 0.184 0.31 0.438 0.31 0.704v20.048c0 0.692-0.579 1.255-1.289 1.255l-18.756 0.031c-0.711 0-1.289-0.563-1.289-1.255v-23.49c0-0.692 0.578-1.255 1.289-1.255l15.017-0.031c0.256 0 0.502 0.096 0.688 0.267zM13.032 13.001c-0.444-0.444-1.171-0.446-1.618 0.001l-1.079 1.079c-0.446 0.446-0.447 1.171-0.001 1.618l2.968 2.968-2.968 2.968c-0.444 0.444-0.446 1.171 0.001 1.618l1.079 1.079c0.446 0.446 1.171 0.447 1.618 0.001l2.968-2.968 2.968 2.968c0.444 0.444 1.171 0.446 1.618-0.001l1.079-1.079c0.446-0.446 0.447-1.171 0.001-1.618l-2.968-2.968 2.968-2.968c0.444-0.444 0.446-1.171-0.001-1.618l-1.079-1.079c-0.446-0.446-1.171-0.447-1.618-0.001l-2.968 2.968-2.968-2.968z"></path>
</svg>
