<!-- Generated by IcoMoon.io -->
<svg version="1.1" xmlns="http://www.w3.org/2000/svg" width="32" height="32" viewBox="0 0 32 32">
<title>fast-forward</title>
<path fill="#4c7bc1" d="M15.312 6.043c0-0.197 0.11-0.379 0.286-0.469 0.176-0.091 0.387-0.077 0.549 0.037l13.979 10.048c0.141 0.098 0.225 0.26 0.225 0.432s-0.084 0.334-0.225 0.432l-13.979 10.048c-0.091 0.064-0.198 0.097-0.305 0.097-0.083 0-0.167-0.020-0.244-0.059-0.175-0.091-0.286-0.272-0.286-0.47v-8.571l-13.144 9.003c-0.091 0.064-0.198 0.097-0.305 0.097-0.083 0-0.167-0.020-0.244-0.059-0.175-0.091-0.286-0.272-0.286-0.47v-20.095c0-0.197 0.11-0.379 0.286-0.469 0.176-0.091 0.387-0.077 0.549 0.037l13.144 9.003v-8.571z"></path>
</svg>
