<!-- Generated by IcoMoon.io -->
<svg version="1.1" xmlns="http://www.w3.org/2000/svg" width="32" height="32" viewBox="0 0 32 32">
<title>flag</title>
<path fill="#4c7bc1" d="M7.333 4.593c0 0 0 12.841 0 12.841v9.972c0 0.696-0.597 1.26-1.333 1.26s-1.333-0.564-1.333-1.26v-22.813c0-0.696 0.597-1.26 1.333-1.26s1.333 0.564 1.333 1.26zM23.912 10.222c1.203 1.625 2.405 3.465 3.608 5.638 0.181 0.329 0.214 0.665 0.084 0.86s-0.401 0.227-0.697 0.102c-6.070-2.585-12.14 2.778-18.21 1.151v-12.605c6.061 1.626 12.12-3.714 18.185-1.162 0.298 0.125 1.626 0.723 0.608 1.542-1.156 0.93-2.38 2.095-3.57 3.516-0.223 0.268-0.225 0.664-0.006 0.958z"></path>
</svg>
