<!-- Generated by IcoMoon.io -->
<svg version="1.1" xmlns="http://www.w3.org/2000/svg" width="32" height="32" viewBox="0 0 32 32">
<title>forwards</title>
<path fill="#4c7bc1" d="M2.433 14.778c1.779-4.585 6.583-6.877 14.412-6.877h3.689v-4.368c0-0.296 0.104-0.552 0.313-0.768s0.456-0.324 0.741-0.324c0.286 0 0.533 0.108 0.741 0.324l8.433 8.737c0.209 0.216 0.313 0.472 0.313 0.768s-0.104 0.552-0.313 0.768l-8.433 8.737c-0.209 0.216-0.456 0.324-0.741 0.324s-0.532-0.108-0.741-0.324c-0.209-0.216-0.313-0.472-0.313-0.768v-4.369h-3.689c-1.076 0-2.039 0.034-2.89 0.102s-1.697 0.191-2.537 0.367c-0.84 0.176-1.571 0.418-2.191 0.725s-1.2 0.703-1.738 1.186c-0.538 0.484-0.977 1.058-1.318 1.724s-0.607 1.453-0.799 2.363c-0.192 0.91-0.288 1.94-0.288 3.088 0 0.626 0.028 1.325 0.082 2.099 0 0.068 0.014 0.202 0.041 0.401s0.041 0.35 0.041 0.452c0 0.17-0.047 0.313-0.14 0.427s-0.223 0.17-0.387 0.17c-0.176 0-0.329-0.097-0.461-0.29-0.077-0.102-0.148-0.227-0.214-0.376s-0.14-0.318-0.222-0.512c-0.083-0.193-0.14-0.329-0.173-0.409-1.394-3.242-2.092-5.807-2.092-7.695 0-2.264 0.291-4.158 0.873-5.682z"></path>
</svg>
