<!-- Generated by IcoMoon.io -->
<svg version="1.1" xmlns="http://www.w3.org/2000/svg" width="32" height="32" viewBox="0 0 32 32">
<title>fuel</title>
<path fill="#4c7bc1" d="M19.333 13.184c0 0.451-0.339 0.816-0.757 0.816h-7.819c-0.418 0-0.757-0.365-0.757-0.816v-5.7c0-0.451 0.339-0.816 0.757-0.816h7.819c0.418 0 0.757 0.365 0.757 0.816v5.7zM23.538 6.863c-0.522 0.558-0.491 1.431 0.067 1.951 0.712 0.663 1.456 1.608 1.526 1.882v2.009c0 0.46 0.229 0.866 0.576 1.116v6.273c0.002 0.6 0.003 1.509-0.205 1.717-0.044 0.044-0.162 0.050-0.229 0.050-0.397 0-0.772 0-0.772-1.984v-6.158c0-0.445-0.361-0.805-0.807-0.805h-1.694v-8.777c0-0.445-0.335-0.805-0.748-0.805h-13.171c-0.413 0-0.748 0.36-0.748 0.805v20.528h-2.751c-0.322 0-0.582 0.26-0.582 0.581v2.171c0 0.321 0.261 0.581 0.582 0.581h20.108c0.322 0 0.582-0.26 0.582-0.581v-2.171c0-0.321-0.261-0.581-0.582-0.581h-2.69v-10.141h0.887v5.353c0 1.076 0 3.594 2.387 3.594 0.562 0 1.023-0.176 1.371-0.523 0.682-0.681 0.679-1.788 0.677-2.859v-6.27c0.348-0.251 0.577-0.656 0.577-1.116v-2.009c0-1.501-1.682-3.227-2.405-3.9-0.559-0.519-1.435-0.489-1.955 0.067z"></path>
</svg>
