<!-- Generated by IcoMoon.io -->
<svg version="1.1" xmlns="http://www.w3.org/2000/svg" width="32" height="32" viewBox="0 0 32 32">
<title>fullscreen</title>
<path fill="#4c7bc1" d="M4.037 4.040c-0.006-0.391 0.314-0.712 0.706-0.707l7.684 0.112c0.615 0.010 0.919 0.752 0.482 1.19l-2.138 2.142 3.555 3.561-3.301 3.306-3.555-3.561-2.138 2.141c-0.432 0.433-1.178 0.127-1.189-0.489l-0.106-7.696zM26.701 12.27c0.437 0.437 1.178 0.133 1.19-0.483l0.112-7.696c0.005-0.392-0.315-0.712-0.707-0.707l-7.684 0.112c-0.614 0.010-0.919 0.752-0.482 1.19l2.133 2.132-3.555 3.561 3.302 3.306 3.554-3.556 2.138 2.141zM19.607 27.888l7.684 0.112c0.39 0.006 0.711-0.315 0.706-0.708l-0.112-7.695c-0.010-0.615-0.752-0.921-1.189-0.484l-2.137 2.142-3.556-3.561-3.302 3.306 3.555 3.561-2.133 2.137c-0.436 0.437-0.132 1.18 0.483 1.191zM12.427 27.838c0.615-0.010 0.919-0.752 0.482-1.19l-2.138-2.137 3.555-3.561-3.301-3.306-3.555 3.561-2.138-2.141c-0.436-0.438-1.178-0.134-1.189 0.483l-0.112 7.696c0 0.392 0.32 0.712 0.711 0.708l7.684-0.112z"></path>
</svg>
