<!-- Generated by IcoMoon.io -->
<svg version="1.1" xmlns="http://www.w3.org/2000/svg" width="32" height="32" viewBox="0 0 32 32">
<title>grid</title>
<path fill="#4c7bc1" d="M4.639 3.333h8.722c0.721 0 1.306 0.596 1.306 1.33l-0.009 8.673c0 0.735-0.585 1.33-1.306 1.33h-8.722c-0.721 0-1.306-0.595-1.306-1.33l0.009-8.673c0-0.734 0.584-1.33 1.306-1.33zM4.639 17.333h8.722c0.721 0 1.306 0.596 1.306 1.33l-0.009 8.673c0 0.735-0.585 1.33-1.306 1.33h-8.722c-0.721 0-1.306-0.595-1.306-1.33l0.009-8.673c0-0.734 0.584-1.33 1.306-1.33zM18.639 3.333h8.722c0.721 0 1.306 0.596 1.306 1.33l-0.009 8.673c0 0.735-0.585 1.33-1.306 1.33h-8.722c-0.721 0-1.306-0.595-1.306-1.33l0.009-8.673c0-0.734 0.584-1.33 1.306-1.33zM18.639 17.333h8.722c0.721 0 1.306 0.596 1.306 1.33l-0.009 8.673c0 0.735-0.585 1.33-1.306 1.33h-8.722c-0.721 0-1.306-0.595-1.306-1.33l0.009-8.673c0-0.734 0.584-1.33 1.306-1.33z"></path>
</svg>
