<!-- Generated by IcoMoon.io -->
<svg version="1.1" xmlns="http://www.w3.org/2000/svg" width="32" height="32" viewBox="0 0 32 32">
<title>grip-alt</title>
<path fill="#4c7bc1" d="M13.611 11.329c0-1.102 0.889-1.995 1.994-1.995h0.985c1.101 0 1.994 0.902 1.994 1.995v9.434c0 1.102-0.889 1.995-1.994 1.995h-0.985c-1.101 0-1.994-0.902-1.994-1.995v-9.434zM3.667 11.329c0-1.102 0.889-1.995 1.994-1.995h0.985c1.101 0 1.994 0.902 1.994 1.995v9.434c0 1.102-0.889 1.995-1.994 1.995h-0.985c-1.101 0-1.994-0.902-1.994-1.995v-9.434zM23.555 11.329c0-1.102 0.889-1.995 1.994-1.995h0.985c1.101 0 1.994 0.902 1.994 1.995v9.434c0 1.102-0.889 1.995-1.994 1.995h-0.985c-1.101 0-1.994-0.902-1.994-1.995v-9.434z"></path>
</svg>
