<!-- Generated by IcoMoon.io -->
<svg version="1.1" xmlns="http://www.w3.org/2000/svg" width="32" height="32" viewBox="0 0 32 32">
<title>grip</title>
<path fill="#4c7bc1" d="M9.333 5.33c0-1.103 0.899-1.997 2.001-1.997h0.442c1.105 0 2.001 0.895 2.001 1.997v22.006c0 1.103-0.899 1.997-2.001 1.997h-0.442c-1.105 0-2.001-0.895-2.001-1.997v-22.006zM18.222 5.33c0-1.103 0.899-1.997 2.001-1.997h0.442c1.105 0 2.001 0.895 2.001 1.997v22.006c0 1.103-0.899 1.997-2.001 1.997h-0.442c-1.105 0-2.001-0.895-2.001-1.997v-22.006z"></path>
</svg>
