<!-- Generated by IcoMoon.io -->
<svg version="1.1" xmlns="http://www.w3.org/2000/svg" width="32" height="32" viewBox="0 0 32 32">
<title>hardhat</title>
<path fill="#4c7bc1" d="M24.626 18.637c-0.283 0.19-0.574 0.37-0.868 0.544-0.642 0.377-1.304 0.718-1.982 1.029-1.287 0.591-2.633 1.075-4.017 1.389-1.258 0.285-2.598 0.46-3.881 0.239-1.234-0.212-2.448-0.632-3.551-1.226-1.097-0.59-2.221-1.332-3.018-2.305 0.498 0.218 1 0.426 1.506 0.623 0.325-1.119 0.703-2.228 1.156-3.303 0.441-1.045 0.957-2.049 1.708-2.907 0.884-1.010 1.98-1.853 3.136-2.531 0.971-0.569 2.010-1.016 3.114-1.254-0.437 0.162-0.86 0.352-1.268 0.579-1.217 0.678-2.312 1.593-3.235 2.632-0.406 0.457-0.834 0.958-1.118 1.502-0.314 0.602-0.517 1.249-0.683 1.905-0.328 1.304-0.522 2.644-0.648 3.981-0.013 0.14-0.008 0.127 0.13 0.165 0.087 0.024 0.175 0.048 0.263 0.072 0.159 0.047 0.319 0.085 0.479 0.123 0.333 0.080 0.668 0.15 1.003 0.218 2.015 0.43 4.698-0.063 6.36-0.433 1.678-0.372 3.345-0.8 5.020-1.188-0.001 0 0.014-0.004 0.052-0.013 0.249-0.056 0.193-0.043 0.101-0.022 0.234-0.053 0.469-0.104 0.705-0.151-0 0.070-0.414 0.296-0.466 0.33zM30.617 17.236l-1.32-1.928c-0.392-3.375-1.358-5.872-2.942-7.613-1.855-2.038-4.505-3.028-8.103-3.028-0.507 0-1.042 0.020-1.589 0.060-6.131 0.447-9.413 7.497-10.713 11.161-0.065 0.028-0.13 0.056-0.195 0.085-2.979 1.306-4.425 2.76-4.422 4.446 0.001 0.636 0.376 1.315 1.214 2.202 0.609 0.645 1.44 1.363 2.34 2.024 1.059 0.778 3.762 2.595 5.995 2.683 0.1 0.004 0.206 0.006 0.318 0.006v0c3.515 0 14.642-2.070 19.404-8.731 0.291-0.407 0.297-0.953 0.014-1.367z"></path>
</svg>
