<!-- Generated by IcoMoon.io -->
<svg version="1.1" xmlns="http://www.w3.org/2000/svg" width="32" height="32" viewBox="0 0 32 32">
<title>heart-empty</title>
<path fill="#4c7bc1" d="M22.752 8c-1.288 0-2.352 0.813-3.128 1.766s-3.409 4.222-3.409 4.222c0 0-2.725-3.278-3.409-4.222s-1.841-1.766-3.129-1.766c-2.029 0-3.676 1.65-3.676 3.69 0 1.079 0.464 2.075 1.267 2.777l0.103 0.090 0.096 0.096 8.749 8.68 8.845-8.777 0.103-0.090c0.804-0.702 1.267-1.698 1.267-2.777 0-2.039-1.648-3.69-3.677-3.69zM16.215 7.674c0 0 1.883-2.066 2.952-2.781s2.289-0.892 3.585-0.892c4.24 0 7.677 3.443 7.677 7.69 0 2.312-1.023 4.381-2.635 5.79l-10.879 10.897c-0.186 0.186-0.438 0.291-0.701 0.291s-0.515-0.105-0.701-0.291l-10.879-10.897c-1.612-1.409-2.635-3.477-2.635-5.79 0-4.247 3.436-7.69 7.676-7.69 1.297 0 2.156 0.093 3.586 0.893s2.952 2.781 2.952 2.781z"></path>
</svg>
