<!-- Generated by IcoMoon.io -->
<svg version="1.1" xmlns="http://www.w3.org/2000/svg" width="32" height="32" viewBox="0 0 32 32">
<title>history</title>
<path fill="#4c7bc1" d="M20.69 4.317c-1.543-0.652-3.181-0.984-4.867-0.984-1.241 0-2.467 0.182-3.644 0.54-1.14 0.347-2.224 0.856-3.223 1.514-0.984 0.648-1.872 1.43-2.64 2.326-0.477 0.557-0.908 1.159-1.28 1.789-0.108 0.184-0.212 0.372-0.311 0.562l-3.994-2.232c-0.173-0.097-0.387-0.080-0.543 0.043s-0.223 0.327-0.169 0.518l2.275 8.046c0.035 0.125 0.119 0.231 0.233 0.295 0.074 0.041 0.156 0.062 0.24 0.062 0.045 0 0.090-0.006 0.134-0.018l8.062-2.27c0.191-0.054 0.331-0.217 0.354-0.414s-0.074-0.388-0.247-0.485l-3.488-1.949c0.098-0.192 0.203-0.382 0.313-0.566 0.242-0.402 0.517-0.789 0.818-1.151 0.568-0.682 1.228-1.279 1.964-1.774 0.746-0.502 1.558-0.89 2.412-1.155 0.883-0.274 1.804-0.413 2.737-0.413 1.246 0 2.455 0.245 3.594 0.726 1.1 0.465 2.089 1.131 2.939 1.979s1.517 1.835 1.983 2.933c0.483 1.137 0.727 2.344 0.727 3.587s-0.245 2.45-0.727 3.587c-0.466 1.098-1.133 2.085-1.983 2.933s-1.839 1.514-2.939 1.98c-1.139 0.481-2.348 0.726-3.594 0.726-1.061 0-2.102-0.179-3.094-0.532-0.959-0.341-1.85-0.836-2.651-1.473-0.793-0.63-1.474-1.38-2.023-2.23-0.275-0.426-0.517-0.876-0.718-1.34-0.204-0.471-0.369-0.962-0.491-1.459-0.031-0.128-0.113-0.238-0.226-0.305s-0.25-0.087-0.377-0.052l-2.214 0.589c-0.259 0.069-0.414 0.332-0.35 0.592 0.145 0.58 0.334 1.155 0.561 1.708 0.295 0.718 0.66 1.413 1.085 2.066 0.744 1.143 1.665 2.153 2.737 3.001 1.082 0.857 2.287 1.524 3.582 1.983 1.34 0.475 2.746 0.716 4.179 0.716 1.686 0 3.324-0.331 4.867-0.983 1.49-0.63 2.828-1.532 3.978-2.679s2.053-2.484 2.684-3.971c0.654-1.54 0.986-3.175 0.986-4.858s-0.332-3.318-0.986-4.858c-0.631-1.487-1.534-2.823-2.684-3.971s-2.488-2.049-3.978-2.679zM14 8.613v7.969c0 0.185 0.095 0.358 0.252 0.458l5.651 3.541c0.088 0.056 0.191 0.086 0.294 0.086 0.039 0 0.078-0.004 0.117-0.013 0.141-0.031 0.265-0.116 0.342-0.238l1.175-1.834c0.162-0.253 0.088-0.59-0.165-0.752l-4.289-2.738v-6.48c0-0.301-0.244-0.544-0.545-0.544h-2.286c-0.301 0-0.545 0.243-0.545 0.544z"></path>
</svg>
