<!-- Generated by IcoMoon.io -->
<svg version="1.1" xmlns="http://www.w3.org/2000/svg" width="32" height="32" viewBox="0 0 32 32">
<title>home</title>
<path fill="#4c7bc1" d="M16 9.333l10.648 8.641c0.012 0.024 0.019 0.060 0.019 0.109v8.75c0 0.316-0.118 0.59-0.352 0.82s-0.512 0.347-0.833 0.347h-7.111v-7h-4.741v7h-7.111c-0.321 0-0.599-0.116-0.833-0.347s-0.352-0.504-0.352-0.82v-8.75c0-0.012 0.003-0.030 0.019-0.109l10.648-8.641zM30.464 15.702c0.121 0.094 0.188 0.221 0.2 0.379s-0.030 0.297-0.127 0.415l-1.128 1.306c-0.098 0.106-0.225 0.171-0.437 0.194-0.158 0-0.285-0.041-0.382-0.123l-12.591-10.188-12.59 10.188c-0.146 0.094-0.291 0.135-0.437 0.124-0.158-0.024-0.285-0.088-0.382-0.194l-1.128-1.307c-0.097-0.118-0.14-0.256-0.127-0.415s0.079-0.285 0.2-0.379l13.082-10.577c0.388-0.306 0.849-0.459 1.383-0.459s0.995 0.153 1.383 0.459l4.617 3.744v-3.596c0-0.165 0.040-0.3 0.149-0.406s0.249-0.201 0.419-0.201h3.54c0.17 0 0.31 0.095 0.418 0.201s0.164 0.241 0.164 0.406c0 0-0.070 7.328 0 7.384 1.258 1.015 3.774 3.044 3.774 3.044z"></path>
</svg>
