<!-- Generated by IcoMoon.io -->
<svg version="1.1" xmlns="http://www.w3.org/2000/svg" width="32" height="32" viewBox="0 0 32 32">
<title>hourglass</title>
<path fill="#4c7bc1" d="M23.222 8h1.429c0.344 0 0.622-0.377 0.622-0.725v-3.312c0-0.348-0.279-0.63-0.622-0.63h-17.362c-0.344 0-0.622 0.282-0.622 0.63v3.312c0 0.348 0.279 0.725 0.622 0.725h1.429c0.577 3.906 2.377 6.682 4.725 8.025-2.348 1.342-4.148 4.070-4.725 7.975h-1.429c-0.344 0-0.622 0.426-0.622 0.774v3.312c0 0.348 0.279 0.63 0.622 0.63h17.362c0.344 0 0.622-0.282 0.622-0.63v-3.312c0-0.348-0.279-0.774-0.622-0.774h-1.429c-0.577-3.906-2.377-6.633-4.725-7.975 2.348-1.342 4.149-4.119 4.725-8.025zM16.792 18.050c2.278 2.934 3.393 4.354 3.699 5.029 0.088 0.195 0.073 0.422-0.042 0.602s-0.312 0.318-0.524 0.318h-7.911c-0.212 0-0.409-0.138-0.524-0.318s-0.13-0.408-0.042-0.602c0.306-0.675 1.513-2.095 3.792-5.030l0.066-0.086v-3.271l-0.084-0.091c-1.265-1.371-2.597-2.466-3.241-3.254-0.187-0.229-0.191-0.558-0.009-0.791s0.499-0.306 0.763-0.175c0.854 0.424 2.108 0.93 3.234 0.93 1.136 0 2.383-0.502 3.228-0.923 0.263-0.131 0.581-0.058 0.763 0.175s0.178 0.563-0.009 0.792c-0.645 0.788-1.882 1.881-3.143 3.248l-0.084 0.091v3.272l0.066 0.086z"></path>
</svg>
