<!-- Generated by IcoMoon.io -->
<svg version="1.1" xmlns="http://www.w3.org/2000/svg" width="32" height="32" viewBox="0 0 32 32">
<title>iap</title>
<path fill="#4c7bc1" d="M23.786 24.118l2.876-9.129 2.875 9.129h-5.752zM8.399 24.118h-5.751l2.876-9.129 2.875 9.129zM31.414 24.532c-0.015-0.027-0.037-0.047-0.054-0.072l-3.917-12.436c-0.003-0.008-0.009-0.014-0.012-0.023-0.024-0.072-0.058-0.14-0.101-0.201-0.006-0.009-0.014-0.017-0.021-0.026-0.043-0.055-0.091-0.104-0.146-0.146-0.009-0.007-0.018-0.015-0.027-0.022-0.061-0.043-0.127-0.077-0.198-0.102-0.015-0.005-0.029-0.009-0.044-0.014-0.074-0.022-0.151-0.037-0.232-0.037h-8.34c-0.335-0.907-1.204-1.56-2.23-1.56s-1.895 0.652-2.23 1.56h-8.339c-0.081 0-0.158 0.015-0.232 0.037-0.015 0.004-0.030 0.008-0.045 0.014-0.071 0.025-0.138 0.059-0.198 0.102-0.009 0.007-0.018 0.015-0.027 0.022-0.055 0.043-0.104 0.091-0.146 0.146-0.007 0.009-0.014 0.017-0.021 0.026-0.043 0.061-0.076 0.129-0.101 0.201-0.003 0.008-0.009 0.015-0.012 0.023l-3.918 12.437c-0.018 0.024-0.039 0.044-0.054 0.071-0.145 0.257-0.14 0.571 0.014 0.822 0.052 0.085 1.322 2.106 4.738 2.106s4.686-2.020 4.738-2.106c0.153-0.252 0.158-0.566 0.013-0.822-0.015-0.026-0.036-0.046-0.053-0.071l-3.584-11.379h7.225c0.209 0.565 0.626 1.025 1.16 1.295l-1.748 15.372c-0.026 0.231 0.048 0.462 0.203 0.635s0.377 0.271 0.61 0.271h3.996c0.233 0 0.454-0.098 0.61-0.271s0.229-0.404 0.203-0.635l-1.746-15.365c0.541-0.269 0.962-0.732 1.173-1.302h7.226l-3.585 11.379c-0.017 0.024-0.038 0.044-0.053 0.071-0.145 0.257-0.14 0.571 0.014 0.822 0.052 0.085 1.322 2.106 4.739 2.106s4.686-2.020 4.739-2.106c0.153-0.252 0.158-0.566 0.013-0.822v0zM10.126 6c1.617-1.529 3.736-2.37 5.967-2.37 2.249 0 4.38 0.854 6.002 2.404 0.158 0.151 0.362 0.226 0.566 0.226 0.215 0 0.429-0.084 0.59-0.251 0.312-0.324 0.302-0.84-0.024-1.152-1.927-1.842-4.461-2.857-7.134-2.857-2.651 0-5.17 1-7.093 2.817-0.328 0.309-0.341 0.824-0.030 1.151s0.828 0.341 1.156 0.031v0zM12.001 8.199c-0.32 0.318-0.319 0.834 0.001 1.152 0.16 0.159 0.369 0.238 0.577 0.238s0.419-0.080 0.579-0.239c0.783-0.782 1.825-1.212 2.934-1.212 1.103 0 2.141 0.426 2.923 1.201 0.321 0.317 0.839 0.315 1.156-0.003s0.317-0.835-0.003-1.152c-1.090-1.080-2.538-1.675-4.076-1.675-1.546 0-2.999 0.6-4.091 1.69v0z"></path>
</svg>
