<!-- Generated by IcoMoon.io -->
<svg version="1.1" xmlns="http://www.w3.org/2000/svg" width="32" height="32" viewBox="0 0 32 32">
<title>id</title>
<path fill="#4c7bc1" d="M2 7.328c0-0.733 0.599-1.328 1.335-1.328h25.331c0.737 0 1.335 0.599 1.335 1.328v17.344c0 0.733-0.599 1.328-1.335 1.328h-25.331c-0.737 0-1.335-0.599-1.335-1.328v-17.345zM18 10.673v1.321c0 0.377 0.301 0.673 0.672 0.673h8.657c0.372 0 0.672-0.301 0.672-0.673v-1.321c0-0.377-0.301-0.673-0.672-0.673h-8.657c-0.372 0-0.672 0.301-0.672 0.673zM18 15.34v1.321c0 0.377 0.301 0.673 0.672 0.673h8.657c0.372 0 0.672-0.301 0.672-0.673v-1.321c0-0.377-0.301-0.673-0.672-0.673h-8.657c-0.372 0-0.672 0.301-0.672 0.673zM18 20.006v1.321c0 0.377 0.297 0.673 0.664 0.673h6.006c0.367 0 0.664-0.301 0.664-0.673v-1.321c0-0.377-0.297-0.673-0.664-0.673h-6.006c-0.367 0-0.664 0.301-0.664 0.673zM6.812 13.285c0 2.045 1.42 3.705 3.173 3.705s3.174-1.659 3.174-3.704c0-2.045-1.421-3.561-3.174-3.561s-3.173 1.516-3.173 3.561zM4.080 21.643c0.296 0.398 0.969 0.355 0.969 0.355l9.973 0c0 0 0.624 0.052 0.902-0.338 0.156-0.218 0.039-0.652-0.075-0.893l-0.275-0.584c0 0-0.669-1.646-1.514-2.584-0.505-0.56-1.063-0.45-1.429-0.271-0.244 0.119-0.514 0.464-0.717 0.642-0.28 0.245-0.774 0.523-1.581 0.538h-0.496c-0.808-0.016-1.302-0.294-1.582-0.538-0.203-0.178-0.481-0.513-0.727-0.628-0.399-0.187-1.016-0.318-1.535 0.257-0.845 0.937-1.586 2.554-1.586 2.554l-0.268 0.596c-0.11 0.243-0.221 0.679-0.061 0.894z"></path>
</svg>
