<!-- Generated by IcoMoon.io -->
<svg version="1.1" xmlns="http://www.w3.org/2000/svg" width="32" height="32" viewBox="0 0 32 32">
<title>info</title>
<path fill="#4c7bc1" d="M16 3.333c-6.994 0-12.667 5.673-12.667 12.667s5.673 12.667 12.667 12.667c6.994 0 12.667-5.673 12.667-12.667s-5.671-12.667-12.667-12.667v0 0zM18.638 22.964c-0.652 0.257-1.171 0.453-1.561 0.588-0.388 0.133-0.841 0.202-1.353 0.202-0.789 0-1.403-0.193-1.84-0.579-0.438-0.384-0.656-0.871-0.656-1.467 0-0.229 0.017-0.465 0.049-0.706s0.086-0.508 0.157-0.815l0.815-2.883c0.073-0.272 0.135-0.534 0.184-0.781s0.073-0.472 0.073-0.678c0-0.367-0.077-0.624-0.227-0.768-0.154-0.146-0.442-0.217-0.873-0.217-0.21 0-0.427 0.032-0.648 0.097-0.219 0.069-0.41 0.129-0.568 0.189l0.217-0.888c0.534-0.217 1.044-0.403 1.533-0.558 0.487-0.157 0.95-0.234 1.383-0.234 0.785 0 1.388 0.191 1.814 0.568 0.422 0.38 0.635 0.871 0.635 1.476 0 0.124-0.013 0.345-0.043 0.661-0.028 0.315-0.081 0.605-0.161 0.871l-0.813 2.874c-0.067 0.229-0.124 0.493-0.18 0.789-0.051 0.294-0.077 0.519-0.077 0.669 0 0.382 0.086 0.643 0.255 0.781s0.468 0.208 0.888 0.208c0.199 0 0.42-0.034 0.671-0.103 0.247-0.069 0.427-0.131 0.54-0.182l-0.214 0.886zM18.492 11.299c-0.375 0.352-0.832 0.528-1.366 0.528-0.532 0-0.991-0.176-1.373-0.528-0.38-0.352-0.573-0.779-0.573-1.278 0-0.498 0.193-0.929 0.573-1.283 0.382-0.356 0.841-0.534 1.373-0.534 0.534 0 0.989 0.178 1.366 0.534 0.38 0.356 0.57 0.785 0.57 1.283 0 0.502-0.191 0.927-0.57 1.278v0 0z"></path>
</svg>
