<!-- Generated by IcoMoon.io -->
<svg version="1.1" xmlns="http://www.w3.org/2000/svg" width="32" height="32" viewBox="0 0 32 32">
<title>information</title>
<path fill="#4c7bc1" d="M21.521 26.456l-0.376 1.523c-1.127 0.441-2.027 0.777-2.697 1.008s-1.451 0.347-2.339 0.347c-1.364 0-2.425-0.331-3.182-0.99-0.757-0.661-1.135-1.499-1.135-2.515 0-0.393 0.027-0.798 0.085-1.21s0.149-0.878 0.274-1.397l1.408-4.944c0.125-0.473 0.232-0.922 0.317-1.346 0.086-0.422 0.128-0.809 0.128-1.159 0-0.631-0.132-1.073-0.394-1.321s-0.763-0.373-1.506-0.373c-0.364 0-0.738 0.058-1.12 0.17-0.383 0.112-0.71 0.221-0.985 0.322l0.377-1.524c0.922-0.373 1.804-0.692 2.648-0.956s1.64-0.398 2.394-0.398c1.355 0 2.4 0.325 3.134 0.974s1.101 1.493 1.101 2.531c0 0.215-0.024 0.593-0.076 1.135-0.051 0.542-0.145 1.039-0.282 1.491l-1.402 4.925c-0.115 0.396-0.218 0.848-0.308 1.357-0.093 0.505-0.137 0.892-0.137 1.151 0 0.654 0.147 1.1 0.442 1.338 0.297 0.237 0.808 0.355 1.534 0.355 0.341 0 0.729-0.060 1.16-0.178 0.43-0.118 0.743-0.221 0.938-0.312v0zM21.877 5.781c0 0.858-0.326 1.591-0.981 2.193-0.653 0.605-1.441 0.907-2.362 0.907-0.924 0-1.713-0.303-2.374-0.907-0.66-0.603-0.99-1.335-0.99-2.193 0-0.856 0.331-1.59 0.99-2.2s1.45-0.914 2.374-0.914c0.921 0 1.708 0.305 2.362 0.914 0.656 0.61 0.981 1.344 0.981 2.2v0z"></path>
</svg>
