<!-- Generated by IcoMoon.io -->
<svg version="1.1" xmlns="http://www.w3.org/2000/svg" width="32" height="32" viewBox="0 0 32 32">
<title>insert</title>
<path fill="#4c7bc1" d="M5.77 22h7.127c0.609 0 1.103 0.477 1.103 1.065v4.536c0 0.589-0.494 1.065-1.103 1.065h-7.127c-0.61 0-1.103-0.477-1.103-1.065v-4.536c0-0.588 0.494-1.065 1.103-1.065zM19.103 22h7.127c0.609 0 1.103 0.477 1.103 1.065v4.536c0 0.589-0.494 1.065-1.103 1.065h-7.127c-0.61 0-1.103-0.477-1.103-1.065v-4.536c0-0.588 0.494-1.065 1.103-1.065zM13.854 11.964c0-4.421 1.294-7.133 3.883-8.138 0.861-0.329 1.93-0.493 3.209-0.493 1.066 0 2.515 0.394 4.345 1.181 0.045 0.019 0.122 0.051 0.231 0.098s0.206 0.088 0.289 0.126c0.084 0.037 0.154 0.078 0.212 0.121 0.109 0.074 0.164 0.161 0.164 0.26 0 0.093-0.032 0.166-0.096 0.219s-0.145 0.079-0.241 0.079c-0.058 0-0.143-0.008-0.255-0.023s-0.188-0.023-0.226-0.023c-0.437-0.031-0.832-0.047-1.185-0.047-0.649 0-1.23 0.054-1.744 0.163s-0.959 0.259-1.334 0.451c-0.376 0.192-0.7 0.44-0.973 0.744s-0.496 0.631-0.67 0.981c-0.174 0.35-0.31 0.763-0.41 1.237s-0.169 0.952-0.207 1.432c-0.038 0.48-0.058 1.024-0.058 1.632v2.083h2.467c0.167 0 0.312 0.059 0.434 0.177s0.183 0.257 0.183 0.418c0 0.161-0.061 0.301-0.183 0.419l-4.933 4.762c-0.122 0.118-0.267 0.177-0.434 0.177s-0.311-0.059-0.434-0.177l-4.933-4.762c-0.122-0.118-0.183-0.257-0.183-0.419s0.061-0.301 0.183-0.418c0.122-0.118 0.267-0.177 0.434-0.177h2.467v-2.083z"></path>
</svg>
