<!-- Generated by IcoMoon.io -->
<svg version="1.1" xmlns="http://www.w3.org/2000/svg" width="32" height="32" viewBox="0 0 32 32">
<title>inspect</title>
<path fill="#4c7bc1" d="M25.972 21.8c-3.651 3.579-9.080 4.121-13.32 1.628 0 0-0.306-0.179-0.565 0.074-1.405 1.377-5.619 5.509-5.619 5.509-1.121 1.099-2.688 1.36-3.682 0.386l-0.171-0.168c-0.994-0.975-0.727-2.511 0.394-3.61 0 0 4.223-4.141 5.631-5.521 0.247-0.242 0.064-0.542 0.064-0.542-2.543-4.157-1.99-9.48 1.66-13.059 4.303-4.219 11.305-4.219 15.608 0s4.303 11.084 0 15.302zM17.079 13.752l3.281-3.21c0.714-0.699 1.874-0.699 2.588 0s0.715 1.833 0 2.532l-4.575 4.476c-0.357 0.35-0.826 0.525-1.294 0.525s-0.937-0.175-1.294-0.525l-2.745-2.686c-0.715-0.699-0.715-1.833 0-2.532s1.874-0.699 2.588 0l1.451 1.419zM12.402 19.802c3.18 3.117 8.353 3.117 11.533 0s3.18-8.19 0-11.307c-3.18-3.117-8.353-3.117-11.533 0s-3.18 8.189-0 11.307z"></path>
</svg>
