<!-- Generated by IcoMoon.io -->
<svg version="1.1" xmlns="http://www.w3.org/2000/svg" width="32" height="32" viewBox="0 0 32 32">
<title>inspect-alert</title>
<path fill="#4c7bc1" d="M27.171 21.39c-3.833 3.758-9.534 4.327-13.986 1.709 0 0-0.322-0.188-0.593 0.078-1.475 1.446-5.9 5.784-5.9 5.784-1.177 1.154-2.822 1.428-3.866 0.405l-0.18-0.176c-1.044-1.023-0.763-2.637 0.413-3.79 0 0 4.434-4.348 5.912-5.797 0.259-0.254 0.067-0.569 0.067-0.569-2.671-4.365-2.090-9.954 1.743-13.712 4.518-4.43 11.87-4.43 16.388 0s4.518 11.638 0 16.068zM12.922 19.292c3.339 3.273 8.771 3.273 12.109 0s3.339-8.599 0-11.872c-3.338-3.273-8.771-3.273-12.109 0s-3.339 8.599-0 11.872zM20.67 14.713c-0.008 0.076-0.051 0.143-0.129 0.2s-0.175 0.085-0.29 0.085h-2.286c-0.115 0-0.214-0.028-0.297-0.085s-0.124-0.124-0.124-0.2l-0.21-7.083c0-0.091 0.041-0.16 0.123-0.205 0.082-0.061 0.181-0.091 0.297-0.091h2.719c0.115 0 0.214 0.030 0.296 0.091 0.082 0.046 0.123 0.114 0.123 0.205l-0.222 7.083zM20.549 18.962c-0.078 0.076-0.174 0.114-0.287 0.114l-2.332-0.005c-0.113 0-0.213-0.040-0.299-0.12s-0.13-0.172-0.13-0.276v-2.283c0-0.104 0.043-0.197 0.13-0.277s0.187-0.12 0.299-0.12l2.332 0.005c0.113 0 0.209 0.038 0.287 0.114s0.117 0.17 0.117 0.283v2.283c0 0.112-0.039 0.206-0.117 0.282z"></path>
</svg>
