<!-- Generated by IcoMoon.io -->
<svg version="1.1" xmlns="http://www.w3.org/2000/svg" width="32" height="32" viewBox="0 0 32 32">
<title>invisible</title>
<path fill="#4c7bc1" d="M17.124 10.098c-0.521-0.104-1.065-0.143-1.625-0.109-3.051 0.187-5.524 2.608-5.715 5.596-0.11 1.709 0.511 3.275 1.585 4.429l1.545-2.662c-0.229-0.476-0.344-1.016-0.305-1.586 0.099-1.574 1.377-2.853 2.971-3.007l1.544-2.661zM11.797 26.811c-0.261 0.45-0.846 0.608-1.306 0.352l-1.639-0.912c-0.46-0.256-0.621-0.828-0.359-1.279l1.066-1.837c-3.029-1.322-5.753-3.566-7.997-6.487-0.304-0.397-0.304-0.951 0-1.348 3.724-4.843 8.772-7.825 14.337-7.825 0.887 0 1.761 0.076 2.619 0.223l1.483-2.556c0.261-0.45 0.846-0.608 1.306-0.352l1.639 0.912c0.46 0.256 0.621 0.828 0.359 1.279l-11.508 19.83zM15.899 24.478c-0.093 0-0.185-0.001-0.278-0.003l1.523-2.625c2.646-0.542 4.69-2.783 4.868-5.483 0.053-0.827-0.065-1.62-0.323-2.349l2.452-4.225c2.271 1.34 4.331 3.217 6.094 5.513 0.304 0.397 0.304 0.951 0 1.348-3.724 4.843-8.772 7.825-14.337 7.825z"></path>
</svg>
