<!-- Generated by IcoMoon.io -->
<svg version="1.1" xmlns="http://www.w3.org/2000/svg" width="32" height="32" viewBox="0 0 32 32">
<title>key</title>
<path fill="#4c7bc1" d="M23.481 11.421c-1.652 0.045-2.97-1.157-3.047-2.837-0.068-1.507 1.136-2.874 2.708-2.989 1.681-0.123 3.086 1.042 3.203 2.668 0.125 1.743-1.149 3.117-2.865 3.158zM29.146 9.233c-0.96-4.325-5.048-7.135-9.467-6.468-2.748 0.414-4.801 1.867-6.137 4.263-1.165 2.088-1.257 4.296-0.588 6.555 0.060 0.202 0.035 0.329-0.125 0.486-3.331 3.274-6.653 6.554-9.98 9.833-0.124 0.123-0.183 0.242-0.182 0.423 0.007 1.446 0.003 2.893 0.003 4.337v0.27h4.944v-2.918h2.981v-2.907c0.157 0 0.288 0.001 0.415 0 0.842-0.003 1.681-0.008 2.523-0.014 0.597-0.584 1.195-1.168 1.791-1.754 0.823-0.808 1.649-1.617 2.461-2.436 0.136-0.137 0.247-0.16 0.425-0.104 1.352 0.422 2.729 0.517 4.13 0.298 4.638-0.723 7.813-5.328 6.805-9.864z"></path>
</svg>
