<!-- Generated by IcoMoon.io -->
<svg version="1.1" xmlns="http://www.w3.org/2000/svg" width="32" height="32" viewBox="0 0 32 32">
<title>light</title>
<path fill="#4c7bc1" d="M19.247 27.051v0.838c0 0.667-0.486 1.221-1.119 1.315l-0.205 0.761c-0.111 0.413-0.481 0.702-0.908 0.702h-2.034c-0.428 0-0.797-0.289-0.908-0.702l-0.199-0.761c-0.639-0.1-1.125-0.649-1.125-1.321v-0.838c0-0.448 0.357-0.808 0.803-0.808h4.893c0.445 0.006 0.803 0.366 0.803 0.814zM23.015 15.761c0 1.905-0.75 3.633-1.969 4.902-0.926 0.967-1.524 2.2-1.723 3.515-0.088 0.566-0.574 0.985-1.149 0.985h-4.354c-0.568 0-1.061-0.413-1.143-0.979-0.205-1.315-0.809-2.566-1.735-3.527-1.196-1.25-1.94-2.949-1.957-4.819-0.041-3.928 3.065-7.108 6.968-7.137 3.897-0.030 7.062 3.144 7.062 7.061zM16.791 11.485c0-0.437-0.352-0.796-0.791-0.796-2.79 0-5.063 2.283-5.063 5.096 0 0.436 0.352 0.796 0.791 0.796 0.434 0 0.791-0.354 0.791-0.796 0-1.935 1.565-3.504 3.481-3.504 0.44 0 0.791-0.354 0.791-0.796zM16 6.383c0.434 0 0.791-0.354 0.791-0.796v-2.79c0-0.437-0.352-0.796-0.791-0.796s-0.791 0.354-0.791 0.796v2.79c0 0.442 0.357 0.796 0.791 0.796zM6.688 15.755c0-0.437-0.352-0.796-0.791-0.796h-2.772c-0.434 0-0.791 0.354-0.791 0.796 0 0.436 0.352 0.796 0.791 0.796h2.772c0.44 0 0.791-0.354 0.791-0.796zM28.875 14.959h-2.772c-0.434 0-0.791 0.354-0.791 0.796 0 0.436 0.352 0.796 0.791 0.796h2.772c0.434 0 0.791-0.354 0.791-0.796 0-0.437-0.352-0.796-0.791-0.796zM8.299 22.385l-1.963 1.976c-0.311 0.313-0.311 0.814 0 1.127 0.152 0.153 0.357 0.23 0.557 0.23s0.404-0.077 0.557-0.23l1.963-1.976c0.311-0.313 0.311-0.814 0-1.127-0.305-0.313-0.809-0.313-1.114 0zM23.144 9.361c0.199 0 0.404-0.077 0.557-0.23l1.963-1.976c0.311-0.313 0.311-0.814 0-1.127s-0.809-0.313-1.119 0l-1.963 1.976c-0.311 0.313-0.311 0.814 0 1.127 0.158 0.153 0.358 0.23 0.563 0.23zM8.299 9.125c0.152 0.153 0.357 0.23 0.557 0.23s0.404-0.077 0.557-0.23c0.311-0.313 0.311-0.814 0-1.127l-1.963-1.976c-0.311-0.313-0.809-0.313-1.119 0s-0.311 0.814 0 1.127l1.969 1.976zM23.701 22.385c-0.311-0.313-0.809-0.313-1.119 0s-0.311 0.814 0 1.127l1.963 1.976c0.152 0.153 0.358 0.23 0.557 0.23s0.404-0.077 0.557-0.23c0.311-0.313 0.311-0.814 0-1.127l-1.957-1.976z"></path>
</svg>
