<!-- Generated by IcoMoon.io -->
<svg version="1.1" xmlns="http://www.w3.org/2000/svg" width="32" height="32" viewBox="0 0 32 32">
<title>like</title>
<path fill="#4c7bc1" d="M24.612 17.247c1.022 0.047 1.889-0.761 1.933-1.805s-0.674-1.982-1.696-2.027l-6.788-0.856c0 0 1.415-2.376 1.415-5.896 0-2.347-1.67-2.663-2.652-2.663-0.772-0-0.98 1.503-0.98 1.503h-0.002c-0.175 0.964-0.403 1.805-1.194 3.355-0.886 1.737-2.092 1.574-3.501 3.121-0.249 0.272-0.583 0.722-0.908 1.275-0.027 0.029-0.051 0.070-0.075 0.128-0.029 0.069-0.064 0.116-0.094 0.18-0.054 0.099-0.107 0.199-0.159 0.303-0.872 0.875-2.23 0.786-2.808 0.786-1.16 0-1.768 0.677-1.768 1.775l-0 8.115c0 1.232 0.502 1.648 1.768 1.648h1.768c0.89 0 1.587 0.512 2.652 0.887 1.458 0.507 3.637 0.888 7.389 0.888 0.656 0 2.691 0.002 2.691 0.002 0.623 0 1.124-0.286 1.485-0.631 0.137-0.131 0.281-0.322 0.342-0.694 0.010-0.058 0.021-0.299 0.019-0.332 0.047-1.064-0.593-1.449-0.956-1.57 0.010-0.003 0.003-0.012 0.023-0.012l1.152 0.052c1.023 0.047 2.032-0.693 2.032-1.951 0-1.043-0.842-1.779-1.861-1.829l0.611 0.028c1.022 0.045 1.887-0.763 1.934-1.807 0.045-1.044-0.748-1.927-1.769-1.974z"></path>
</svg>
