<!-- Generated by IcoMoon.io -->
<svg version="1.1" xmlns="http://www.w3.org/2000/svg" width="32" height="32" viewBox="0 0 32 32">
<title>link</title>
<path fill="#4c7bc1" d="M28.59 19.346l-3.483-3.483c-0.938-0.938-2.076-1.407-3.416-1.407-1.362 0-2.523 0.491-3.483 1.474l-1.474-1.474c0.983-0.96 1.474-2.127 1.474-3.5 0-1.34-0.463-2.473-1.39-3.4l-3.45-3.466c-0.927-0.949-2.065-1.424-3.416-1.424-1.34 0-2.473 0.463-3.4 1.39l-2.462 2.445c-0.949 0.927-1.423 2.060-1.423 3.399s0.469 2.479 1.407 3.416l3.483 3.483c0.938 0.938 2.077 1.407 3.416 1.407 1.362 0 2.523-0.491 3.483-1.474l1.474 1.474c-0.982 0.96-1.474 2.127-1.474 3.5 0 1.34 0.463 2.473 1.39 3.4l3.45 3.466c0.927 0.949 2.065 1.424 3.416 1.424 1.34 0 2.473-0.463 3.4-1.39l2.462-2.445c0.949-0.927 1.424-2.060 1.424-3.4s-0.469-2.478-1.407-3.416zM14.456 12.179c-0.034-0.034-0.137-0.139-0.31-0.318s-0.293-0.299-0.36-0.36c-0.067-0.061-0.173-0.145-0.318-0.251s-0.288-0.179-0.427-0.218c-0.14-0.039-0.293-0.059-0.461-0.059-0.446 0-0.826 0.156-1.139 0.469s-0.469 0.692-0.469 1.139c0 0.167 0.019 0.321 0.059 0.46s0.112 0.282 0.218 0.427c0.106 0.145 0.19 0.251 0.251 0.318s0.181 0.187 0.36 0.36c0.179 0.173 0.285 0.276 0.318 0.31-0.335 0.346-0.737 0.519-1.206 0.519-0.458 0-0.837-0.151-1.139-0.452l-3.484-3.483c-0.312-0.313-0.469-0.692-0.469-1.139 0-0.435 0.156-0.809 0.469-1.122l2.462-2.445c0.324-0.301 0.703-0.452 1.139-0.452 0.446 0 0.826 0.156 1.139 0.469l3.45 3.466c0.313 0.313 0.469 0.692 0.469 1.139 0 0.469-0.184 0.876-0.552 1.223zM26.313 23.884l-2.462 2.445c-0.313 0.29-0.692 0.435-1.139 0.435-0.458 0-0.837-0.151-1.139-0.452l-3.45-3.467c-0.313-0.313-0.469-0.692-0.469-1.139 0-0.469 0.184-0.876 0.553-1.222 0.034 0.033 0.137 0.14 0.31 0.318s0.293 0.299 0.36 0.36c0.067 0.062 0.173 0.145 0.318 0.252s0.287 0.179 0.427 0.218c0.14 0.039 0.293 0.059 0.46 0.059 0.447 0 0.826-0.156 1.139-0.469s0.469-0.692 0.469-1.139c0-0.167-0.020-0.321-0.059-0.46s-0.112-0.282-0.218-0.427c-0.106-0.145-0.189-0.251-0.251-0.318s-0.181-0.187-0.36-0.36c-0.179-0.173-0.285-0.276-0.318-0.309 0.335-0.357 0.737-0.536 1.206-0.536 0.447 0 0.826 0.156 1.139 0.469l3.483 3.483c0.313 0.313 0.469 0.693 0.469 1.139 0 0.435-0.156 0.809-0.468 1.121z"></path>
</svg>
