<!-- Generated by IcoMoon.io -->
<svg version="1.1" xmlns="http://www.w3.org/2000/svg" width="32" height="32" viewBox="0 0 32 32">
<title>list</title>
<path fill="#4c7bc1" d="M3.333 15.334c0-1.105 0.902-2 1.998-2h21.336c1.104 0 1.998 0.899 1.998 2v1.333c0 1.105-0.902 2-1.998 2h-21.336c-1.104 0-1.998-0.899-1.998-2v-1.333zM3.333 24.667c0-1.105 0.902-2 1.998-2h21.336c1.104 0 1.998 0.899 1.998 2v1.333c0 1.105-0.902 2-1.998 2h-21.336c-1.104 0-1.998-0.899-1.998-2v-1.333zM3.333 6c0-1.105 0.902-2 1.998-2h21.336c1.104 0 1.998 0.899 1.998 2v1.333c0 1.105-0.902 2-1.998 2h-21.336c-1.104 0-1.998-0.899-1.998-2v-1.333z"></path>
</svg>
