<!-- Generated by IcoMoon.io -->
<svg version="1.1" xmlns="http://www.w3.org/2000/svg" width="32" height="32" viewBox="0 0 32 32">
<title>locked</title>
<path fill="#4c7bc1" d="M9.333 11.333v2.667c0 0-0.348-0.009-0.423 0-0.888 0.112-1.577 0.697-1.577 1.609v9.871c0 0.988 0.81 1.792 1.805 1.792h13.874c0.996 0 1.654-0.799 1.654-1.788v-9.875c0-0.988-0.658-1.609-1.654-1.609h-0.346v-2.667c0-3.741-2.898-6.677-6.667-6.677-3.769 0.005-6.667 2.936-6.667 6.677zM17.107 20.802c-0.16 0.116-0.202 0.227-0.202 0.412 0.005 0.83 0.005 1.654 0.005 2.484 0.016 0.343-0.16 0.682-0.468 0.835-0.729 0.37-1.459-0.148-1.459-0.835 0-0.835 0-1.665 0.005-2.494 0-0.169-0.037-0.28-0.186-0.391-0.756-0.555-1.006-1.501-0.628-2.331 0.367-0.809 1.267-1.284 2.113-1.115 0.942 0.19 1.597 0.941 1.608 1.876 0 0.65-0.261 1.178-0.788 1.559zM12.667 11.457c0-2.106 1.216-3.472 3.333-3.472 2.122 0 3.333 1.371 3.333 3.472v2.543h-6.667v-2.543z"></path>
</svg>
