<!-- Generated by IcoMoon.io -->
<svg version="1.1" xmlns="http://www.w3.org/2000/svg" width="32" height="32" viewBox="0 0 32 32">
<title>maintenance</title>
<path fill="#4c7bc1" d="M25.404 19.821c0.277-0.643 0.3-1.225 0.068-1.734-0.090-0.198-0.22-0.383-0.386-0.549-0.278-0.278-0.605-0.452-0.841-0.551 0.181-0.625 0.135-1.171-0.138-1.625-0.075-0.125-0.169-0.242-0.276-0.351-0.729-0.744-1.28-0.553-1.28-0.553s0.298-1.187-0.564-2.029c-0.862-0.842-1.681-0.482-2.392 0.239l-3.583 3.576c-0.506-0.19-1.303-0.668-2.123-0.574-1.461 0.168-1.842 1.143-2.048 1.959-0.466 1.845-0.328 4.595-0.855 5.657-0.649 1.307-1.92 2.404-1.92 2.404l4.984 4.976c2.029-2.026 3.982-2.551 5.439-3.159 3.302-1.379 4.922-3.030 5.746-3.916 1.709-1.838 0.41-3.434 0.169-3.77v0zM13.187 5.227l3.213-0.876c-0.176-0.403-0.404-0.785-0.679-1.134-0.77-0.977-1.869-1.643-3.095-1.877-0.131-0.025-0.267 0.020-0.357 0.119s-0.122 0.238-0.084 0.366l1.002 3.401zM12.53 11.816l2.639 3.347 3.525-3.263-2.399-3.044c0.405-0.821 0.6-1.736 0.567-2.66-0.004-0.118-0.062-0.227-0.158-0.296s-0.218-0.091-0.331-0.059l-6.536 1.848-1.891-4.989c-0.047-0.123-0.153-0.214-0.283-0.24s-0.263 0.015-0.354 0.111c-1.904 1.983-2.057 5.106-0.356 7.263 1.059 1.344 2.651 2.115 4.366 2.115 0.408 0 0.815-0.045 1.212-0.133v0z"></path>
</svg>
