<!-- Generated by IcoMoon.io -->
<svg version="1.1" xmlns="http://www.w3.org/2000/svg" width="32" height="32" viewBox="0 0 32 32">
<title>major-alert</title>
<path fill="#4c7bc1" d="M29.553 25.067c0.369 0.652 0.385 1.396 0.046 1.985s-0.988 0.948-1.734 0.948h-23.389c-0.745 0-1.394-0.359-1.734-0.948s-0.323-1.337 0.046-1.989l11.705-20.681c0.371-0.657 0.999-1.049 1.678-1.049s1.307 0.394 1.678 1.050l11.704 20.683zM17.435 23.951c0.070-0.075 0.106-0.167 0.106-0.278v-2.246c0-0.111-0.035-0.203-0.106-0.278s-0.156-0.112-0.258-0.112h-2.25c-0.101 0-0.191 0.039-0.269 0.118s-0.117 0.17-0.117 0.272v2.247c0 0.102 0.039 0.193 0.117 0.272s0.168 0.118 0.269 0.118h2.25c0.102 0 0.188-0.037 0.258-0.112zM17.515 19.596l0.211-7.343c0-0.095-0.039-0.166-0.117-0.213-0.078-0.063-0.172-0.095-0.281-0.095h-2.578c-0.109 0-0.203 0.032-0.281 0.095-0.078 0.047-0.117 0.118-0.117 0.213l0.199 7.343c0 0.079 0.039 0.148 0.117 0.207s0.172 0.088 0.281 0.088h2.168c0.109 0 0.201-0.029 0.275-0.088s0.115-0.128 0.123-0.207z"></path>
</svg>
