<!-- Generated by IcoMoon.io -->
<svg version="1.1" xmlns="http://www.w3.org/2000/svg" width="32" height="32" viewBox="0 0 32 32">
<title>map</title>
<path fill="#4c7bc1" d="M15.134 14.41h-8.091c-0.325 0-0.611 0.217-0.701 0.532l-1.553 5.429 10.886 1.203 0.854-4.128c-0.531-0.959-1.021-1.987-1.396-3.036v0zM25.301 22.637l3.269 0.362-0.977-3.414c-0.13 0.195-0.261 0.385-0.389 0.567-0.661 0.939-1.32 1.782-1.903 2.485v0zM18.211 20.119l-0.35 1.696 1.767 0.194c-0.444-0.556-0.915-1.179-1.388-1.851-0.009-0.013-0.018-0.025-0.028-0.039v0zM2.696 27.692c-0.064 0.223-0.020 0.462 0.118 0.646 0.138 0.186 0.353 0.294 0.583 0.294h10.819l1.011-4.887-11.052-1.221-1.478 5.168zM29.227 25.293l-11.815-1.306-0.962 4.645h12.764c0.404 0 0.729-0.329 0.729-0.737 0-0.088-0.016-0.172-0.043-0.25l-0.672-2.353zM22.418 23.573c0.078 0.083 0.187 0.131 0.301 0.131s0.223-0.047 0.301-0.131c0.665-0.715 1.976-2.19 3.292-4.061 1.657-2.354 3.63-5.808 3.63-8.885 0-4.023-3.241-7.294-7.223-7.294s-7.223 3.272-7.223 7.294c0 3.079 1.976 6.535 3.635 8.891 1.314 1.869 2.623 3.343 3.287 4.054v0zM22.779 7.133c1.885 0 3.419 1.539 3.419 3.431 0 1.89-1.534 3.431-3.419 3.431s-3.419-1.54-3.419-3.431c0-1.892 1.534-3.431 3.419-3.431v0z"></path>
</svg>
