<!-- Generated by IcoMoon.io -->
<svg version="1.1" xmlns="http://www.w3.org/2000/svg" width="32" height="32" viewBox="0 0 32 32">
<title>medical</title>
<path fill="#4c7bc1" d="M30 13.333l-28 0.004v12.312c0 0.563 0.475 1.018 1.064 1.018l25.872-0.004c0.589 0 1.064-0.454 1.064-1.017v-12.312zM19.755 21.43h-2.043v1.981c0 0.563-0.475 1.017-1.064 1.017h-0.851c-0.589 0-1.064-0.454-1.064-1.017v-1.981h-2.043c-0.589 0-1.064-0.454-1.064-1.017v-0.814c0-0.563 0.475-1.017 1.064-1.017h2.043v-1.954c0-0.563 0.475-1.018 1.064-1.018h0.851c0.589 0 1.064 0.454 1.064 1.018v1.954h2.043c0.589 0 1.064 0.454 1.064 1.017v0.814c0 0.563-0.475 1.017-1.064 1.017zM28.936 9.333c0.589 0 1.064 0.437 1.064 1v1.661l-28 0.004v-1.665c0-0.563 0.475-1 1.064-1h5.603v-2.982c0-0.563 0.475-1.018 1.064-1.018h12.539c0.589 0 1.064 0.454 1.064 1.018v2.982h5.603zM10.667 9.333h10.667v-1.965h-10.667v1.965z"></path>
</svg>
