<!-- Generated by IcoMoon.io -->
<svg version="1.1" xmlns="http://www.w3.org/2000/svg" width="32" height="32" viewBox="0 0 32 32">
<title>messages-open</title>
<path fill="#4c7bc1" d="M29.637 10.705c0.211 0.134 0.211 0.66-0.053 0.66h-27.168c-0.264 0-0.436-0.419 0.008-0.7 2.869-1.819 13.576-8.612 13.576-8.612s9.092 5.768 13.638 8.652zM16 21.628c-0.137 0-0.276-0.039-0.396-0.114l-14.271-9.055-0.017 14.243c0 1.447 1.192 2.63 2.65 2.63h24.034c1.457 0 2.65-1.183 2.65-2.63l0.017-14.243-14.271 9.055c-0.121 0.075-0.258 0.114-0.396 0.114z"></path>
</svg>
