<!-- Generated by IcoMoon.io -->
<svg version="1.1" xmlns="http://www.w3.org/2000/svg" width="32" height="32" viewBox="0 0 32 32">
<title>meter</title>
<path fill="#4c7bc1" d="M11.533 16.328c0 0.752-0.51 1.405-1.418 1.547v0.255c0 0.256-0.113 0.391-0.361 0.391h-0.043c-0.255 0-0.369-0.114-0.369-0.32v-0.326c-0.531-0.079-0.921-0.291-1.162-0.462-0.199-0.134-0.213-0.34-0.071-0.539l0.213-0.312c0.149-0.214 0.326-0.228 0.545-0.093 0.227 0.142 0.553 0.291 0.894 0.291 0.255 0 0.531-0.099 0.531-0.404 0-0.568-2.303-0.618-2.303-2.144 0-0.795 0.567-1.363 1.353-1.512v-0.277c0-0.256 0.114-0.391 0.369-0.391h0.043c0.248 0 0.361 0.114 0.361 0.32v0.326c0.461 0.050 0.801 0.206 1.013 0.341 0.206 0.121 0.227 0.32 0.121 0.532l-0.17 0.333c-0.12 0.235-0.297 0.263-0.531 0.136-0.199-0.114-0.483-0.22-0.78-0.22-0.255 0-0.538 0.114-0.538 0.398 0 0.604 2.303 0.56 2.303 2.13v0zM25.823 19.616h-19.661v-7.67c0-0.686 0.556-1.243 1.24-1.243h17.179c0.686 0 1.242 0.556 1.242 1.243v7.67zM28.917 19.62v-9.135c0-1.372-1.111-2.485-2.482-2.485h-20.888c-1.37 0-2.481 1.113-2.481 2.485v9.139c-1.31 0.070-2.4 1.152-2.4 2.478v1.278c0 0.342 0.278 0.621 0.62 0.621h29.35c0.343 0 0.674-0.279 0.674-0.621v-1.278c0-1.343-1.064-2.435-2.394-2.481v0z"></path>
</svg>
