<!-- Generated by IcoMoon.io -->
<svg version="1.1" xmlns="http://www.w3.org/2000/svg" width="32" height="32" viewBox="0 0 32 32">
<title>microphone-on</title>
<path fill="#4c7bc1" d="M16 21.394c-1.467 0-2.722-0.539-3.767-1.616s-1.567-2.373-1.567-3.886l0-8.39c0-1.513 0.522-2.809 1.567-3.886s2.3-1.616 3.767-1.616c1.467 0 2.722 0.539 3.767 1.616s1.566 2.373 1.566 3.886l-0 8.39c0 1.513-0.522 2.809-1.566 3.886s-2.3 1.616-3.767 1.616zM25.654 12.993c0.22 0.218 0.33 0.476 0.33 0.774v2.201c0 2.533-0.853 4.737-2.559 6.611s-3.593 2.949-6.102 3.224v2.202h4.22c0.301 0 0.561 0.109 0.781 0.327s0.33 0.37 0.33 0.668c0 0.298-0.11 0.487-0.33 0.704s-0.48 0.327-0.781 0.327h-11.102c-0.301 0-0.561-0.109-0.781-0.327s-0.33-0.407-0.33-0.704c0-0.298 0.11-0.451 0.33-0.668s0.48-0.327 0.781-0.327h4.247v-2.202c-2.51-0.275-4.423-1.349-6.129-3.224s-2.559-4.078-2.559-6.611v-2.201c0-0.298 0.11-0.556 0.33-0.774s0.48-0.327 0.781-0.327 0.561 0.109 0.781 0.327c0.22 0.218 0.33 0.476 0.33 0.774v2.201c0 2.121 0.76 3.935 2.281 5.442s3.351 2.261 5.491 2.261c2.14 0 3.97-0.754 5.49-2.261s2.281-3.321 2.281-5.442v-2.201c0-0.298 0.11-0.556 0.329-0.774s0.48-0.327 0.781-0.327c0.301 0 0.561 0.109 0.781 0.327z"></path>
</svg>
