<!-- Generated by IcoMoon.io -->
<svg version="1.1" xmlns="http://www.w3.org/2000/svg" width="32" height="32" viewBox="0 0 32 32">
<title>microphone-off</title>
<path fill="#4c7bc1" d="M13.761 20.9l-1.718 1.718c1.172 0.702 2.488 1.053 3.949 1.053 2.14 0 3.97-0.754 5.49-2.261s2.281-3.321 2.281-5.442v-2.201c0-0.298 0.11-0.556 0.329-0.774s0.48-0.327 0.781-0.327c0.301 0 0.561 0.109 0.781 0.327s0.33 0.476 0.33 0.774v2.201c0 2.533-0.853 4.737-2.559 6.611s-3.593 2.949-6.102 3.224v2.202h4.22c0.301 0 0.561 0.109 0.781 0.327s0.33 0.37 0.33 0.668c0 0.298-0.11 0.487-0.33 0.704s-0.48 0.327-0.781 0.327h-11.102c-0.301 0-0.561-0.109-0.781-0.327s-0.33-0.407-0.33-0.704c0-0.298 0.11-0.451 0.33-0.668s0.48-0.327 0.781-0.327h4.247v-2.202c-1.64-0.18-3.026-0.701-4.266-1.564l-3.122 3.122c-0.261 0.261-0.684 0.259-0.939 0.005l-1.894-1.894c-0.258-0.258-0.26-0.674 0.005-0.939l21.394-21.394c0.261-0.26 0.684-0.259 0.939-0.005l1.894 1.894c0.258 0.258 0.26 0.674-0.005 0.939l-7.361 7.361-0 2.564c0 1.513-0.522 2.809-1.566 3.886s-2.3 1.616-3.767 1.616c-0.811 0-1.557-0.165-2.239-0.494v0zM10.667 13.838l0-6.336c0-1.513 0.522-2.809 1.567-3.886s2.3-1.616 3.767-1.616c1.467 0 2.722 0.539 3.767 1.616 0.189 0.195 0.361 0.397 0.516 0.606l-9.616 9.616zM6.252 18.253c-0.168-0.729-0.252-1.491-0.252-2.285v-2.201c0-0.298 0.11-0.556 0.33-0.774s0.48-0.327 0.781-0.327 0.561 0.109 0.781 0.327c0.22 0.218 0.33 0.476 0.33 0.774v2.201c0 0.104 0.002 0.208 0.006 0.311l-1.975 1.975z"></path>
</svg>
