<!-- Generated by IcoMoon.io -->
<svg version="1.1" xmlns="http://www.w3.org/2000/svg" width="32" height="32" viewBox="0 0 32 32">
<title>missing-driver</title>
<path fill="#4c7bc1" d="M9.388 27.329l-3.032 3.032c-0.262 0.262-0.679 0.261-0.937 0.003l-1.894-1.894c-0.254-0.254-0.257-0.677 0.003-0.937l21.56-21.56c0.262-0.262 0.679-0.261 0.937-0.003l1.894 1.894c0.254 0.254 0.257 0.677-0.003 0.937l-11.326 11.326h0.371c1.666-0.032 2.686-0.606 3.263-1.111 0.419-0.366 0.976-1.079 1.479-1.324 0.756-0.369 1.906-0.596 2.949 0.559 1.743 1.934 3.124 5.332 3.124 5.332l0.567 1.206c0.235 0.498 0.475 1.393 0.154 1.843-0.573 0.804-1.861 0.697-1.861 0.697l-9.319-0c0.022-0.076 0.026-0.16 0.008-0.25l-0.644-3.218 1.567-1.958c0.206-0.258 0.105-0.46-0.219-0.46h-2.755l-0.762 0.762 1.329 1.661-0.643 3.214c-0.018 0.090-0.014 0.175 0.008 0.25l-5.819-0zM11.325 14.401c-1.017-1.347-1.634-3.116-1.634-5.052 0-4.22 2.931-7.349 6.548-7.349 1.993 0 3.778 0.949 4.979 2.507l-9.894 9.894z"></path>
</svg>
