<!-- Generated by IcoMoon.io -->
<svg version="1.1" xmlns="http://www.w3.org/2000/svg" width="32" height="32" viewBox="0 0 32 32">
<title>mobile</title>
<path fill="#4c7bc1" d="M22.733 2h-13.333c-0.773 0-1.4 0.627-1.4 1.4v25.2c0 0.773 0.627 1.4 1.4 1.4h13.333c0.773 0 1.267-0.627 1.267-1.4v-25.2c0-0.773-0.493-1.4-1.267-1.4zM16.943 28.276c-0.252 0.252-0.587 0.39-0.943 0.39-0.735-0-1.333-0.598-1.333-1.333s0.598-1.333 1.333-1.333 1.333 0.598 1.333 1.333c0 0.356-0.139 0.691-0.39 0.943zM10 24.667v-18.667h12v18.667h-12z"></path>
</svg>
