<!-- Generated by IcoMoon.io -->
<svg version="1.1" xmlns="http://www.w3.org/2000/svg" width="32" height="32" viewBox="0 0 32 32">
<title>more</title>
<path fill="#4c7bc1" d="M5.333 18.667c1.842 0 3.334-1.492 3.334-3.333s-1.493-3.333-3.334-3.333c-1.84 0-3.333 1.492-3.333 3.333s1.493 3.333 3.333 3.333v0zM16 18.667c1.841 0 3.333-1.492 3.333-3.333s-1.492-3.333-3.333-3.333c-1.84 0-3.333 1.492-3.333 3.333s1.492 3.333 3.333 3.333v0zM26.667 18.667c1.841 0 3.333-1.492 3.333-3.333s-1.492-3.333-3.333-3.333c-1.841 0-3.333 1.492-3.333 3.333s1.493 3.333 3.333 3.333v0z"></path>
</svg>
