<!-- Generated by IcoMoon.io -->
<svg version="1.1" xmlns="http://www.w3.org/2000/svg" width="32" height="32" viewBox="0 0 32 32">
<title>ncr</title>
<path fill="#4c7bc1" d="M5.028 18.667h21.944c0.568 0 1.028 0.448 1.028 1v4.667c0 0.552-0.46 1-1.028 1h-21.944c-0.568 0-1.028-0.448-1.028-1v-4.667c0-0.552 0.46-1 1.028-1zM8.679 26.667h15.975c0.375 0 0.679 0.35 0.679 0.782v1.677c0 0.648-0.456 0.874-1.019 0.874h-15.296c-0.563 0-1.019-0.226-1.019-0.874v-1.677c0-0.432 0.304-0.782 0.679-0.782zM11.991 16.7l-0.398-3.867c-4.558-3.833-1.785-11.214 4.404-11.214 6.178 0 8.975 7.371 4.405 11.214l-0.452 3.867c-0.034 0.359-0.347 0.634-0.722 0.634h-6.517c-0.375 0-0.688-0.275-0.722-0.634zM16 9.999c1.105 0 2-0.899 2-2.008 0-2.656-4-2.654-4 0 0 1.109 0.895 2.008 2 2.008z"></path>
</svg>
