<!-- Generated by IcoMoon.io -->
<svg version="1.1" xmlns="http://www.w3.org/2000/svg" width="32" height="32" viewBox="0 0 32 32">
<title>not-driving</title>
<path fill="#4c7bc1" d="M25.175 10.557c0.947 1.594 1.492 3.455 1.492 5.443 0 5.891-4.776 10.667-10.667 10.667-1.988 0-3.85-0.544-5.443-1.492l-1.552 1.552c-0.261 0.261-0.681 0.263-0.944 0.001l-1.414-1.414c-0.26-0.26-0.261-0.682 0.001-0.944l17.778-17.778c0.261-0.261 0.681-0.263 0.944-0.001l1.414 1.414c0.26 0.26 0.261 0.682-0.001 0.944l-1.608 1.608zM12.542 23.19c0.66 0.317 1.37 0.547 2.114 0.674-0.012-0.851-0.135-1.67-0.351-2.437l-1.763 1.763zM22.399 13.333h1.112c-0.096-0.268-0.205-0.53-0.328-0.784l-0.784 0.784zM20.171 6.18l-2.096 2.096c-0.661-0.18-1.357-0.275-2.076-0.275-3.471 0-6.403 2.236-7.511 5.333h4.529l-3.029 3.029c-0.628-0.236-1.296-0.363-1.989-0.363 0 0.719 0.096 1.415 0.274 2.077l-2.095 2.095c-0.545-1.281-0.847-2.691-0.847-4.171 0-5.891 4.776-10.667 10.667-10.667 1.48 0 2.89 0.302 4.171 0.847v0zM17.344 23.865c3.771-0.646 6.656-3.914 6.656-7.865-3.643 0-6.594 3.511-6.656 7.865z"></path>
</svg>
