<!-- Generated by IcoMoon.io -->
<svg version="1.1" xmlns="http://www.w3.org/2000/svg" width="32" height="32" viewBox="0 0 32 32">
<title>officer</title>
<path fill="#4c7bc1" d="M24.801 7.418c0 0-0.817-0.026-1.203-0.026-3.484 0-7.147-4.403-7.147-4.403-0.202-0.242-0.528-0.243-0.732-0.003 0 0-3.735 4.406-7.218 4.406-0.378 0-1.248 0.012-1.248 0.012-0.313 0.004-0.586 0.267-0.586 0.584v11.317c0 0.317 0.045 0.834 0.078 1.149 0 0 0.073 0.616 0.291 1.188 0.295 0.771 0.767 1.512 1.337 2.208 0.698 0.851 1.552 1.637 2.432 2.334 1.503 1.191 2.969 2.123 3.985 2.68 0.335 0.183 0.818 0.47 1.297 0.47s0.963-0.275 1.296-0.465c0.83-0.474 1.979-1.221 3.259-2.169 0.668-0.495 1.34-1.044 1.959-1.638 0.314-0.301 0.615-0.613 0.895-0.935 0.403-0.463 0.763-0.947 1.060-1.448 0.264-0.446 0.478-0.905 0.626-1.375 0.15-0.475 0.137-0.881 0.137-0.881 0.027-0.315 0.001-0.833 0.001-1.15v-11.261c-0-0.317-0.209-0.584-0.522-0.594v0zM18.71 20.142l-2.621-1.354-2.623 1.354 0.462-2.944-2.082-2.107 2.906-0.465 1.336-2.656 1.335 2.656 2.908 0.465-2.082 2.106 0.461 2.943z"></path>
</svg>
