<!-- Generated by IcoMoon.io -->
<svg version="1.1" xmlns="http://www.w3.org/2000/svg" width="32" height="32" viewBox="0 0 32 32">
<title>office</title>
<path fill="#4c7bc1" d="M15.637 5.333c0.2 0 0.363 0.162 0.363 0.361v20.996h-8.373v-2.942c0-0.199-0.163-0.361-0.363-0.361h-1.569c-0.2 0-0.363 0.162-0.363 0.361v2.942h-1.333v-20.996c0-0.199 0.162-0.361 0.363-0.361h11.274zM28.402 14.828c0.156 0.044 0.264 0.186 0.265 0.348v11.515h-7.98v-2.942c0-0.199-0.163-0.361-0.363-0.361h-1.269c-0.2 0-0.363 0.162-0.363 0.361v2.942h-1.358v-14.561c0-0.239 0.23-0.412 0.461-0.348l10.608 3.047zM7.333 21.082v-1.667c0-0.092-0.075-0.167-0.167-0.167h-1.667c-0.092 0-0.167 0.075-0.167 0.167v1.667c0 0.092 0.075 0.167 0.167 0.167h1.667c0.092 0 0.167-0.075 0.167-0.167zM7.333 17.11v-1.667c0-0.092-0.075-0.167-0.167-0.167h-1.667c-0.092 0-0.167 0.075-0.167 0.167v1.667c0 0.092 0.075 0.167 0.167 0.167h1.667c0.092 0 0.167-0.075 0.167-0.167zM7.333 13.139v-1.667c0-0.092-0.075-0.167-0.167-0.167h-1.667c-0.092 0-0.167 0.075-0.167 0.167v1.667c0 0.092 0.075 0.167 0.167 0.167h1.667c0.092 0 0.167-0.075 0.167-0.167zM7.333 9.167v-1.667c0-0.092-0.075-0.167-0.167-0.167h-1.667c-0.092 0-0.167 0.075-0.167 0.167v1.667c0 0.092 0.075 0.167 0.167 0.167h1.667c0.092 0 0.167-0.075 0.167-0.167zM10.667 21.167v-1.667c0-0.092-0.075-0.167-0.167-0.167h-1.667c-0.092 0-0.167 0.075-0.167 0.167v1.667c0 0.092 0.075 0.167 0.167 0.167h1.667c0.092 0 0.167-0.075 0.167-0.167zM10.667 17.167v-1.667c0-0.092-0.075-0.167-0.167-0.167h-1.667c-0.092 0-0.167 0.075-0.167 0.167v1.667c0 0.092 0.075 0.167 0.167 0.167h1.667c0.092 0 0.167-0.075 0.167-0.167zM10.667 13.167v-1.667c0-0.092-0.075-0.167-0.167-0.167h-1.667c-0.092 0-0.167 0.075-0.167 0.167v1.667c0 0.092 0.075 0.167 0.167 0.167h1.667c0.092 0 0.167-0.075 0.167-0.167zM10.667 9.167v-1.667c0-0.092-0.075-0.167-0.167-0.167h-1.667c-0.092 0-0.167 0.075-0.167 0.167v1.667c0 0.092 0.075 0.167 0.167 0.167h1.667c0.092 0 0.167-0.075 0.167-0.167zM14 21.167v-1.667c0-0.092-0.075-0.167-0.167-0.167h-1.667c-0.092 0-0.167 0.075-0.167 0.167v1.667c0 0.092 0.075 0.167 0.167 0.167h1.667c0.092 0 0.167-0.075 0.167-0.167zM14 17.167v-1.667c0-0.092-0.075-0.167-0.167-0.167h-1.667c-0.092 0-0.167 0.075-0.167 0.167v1.667c0 0.092 0.075 0.167 0.167 0.167h1.667c0.092 0 0.167-0.075 0.167-0.167zM14 13.167v-1.667c0-0.092-0.075-0.167-0.167-0.167h-1.667c-0.092 0-0.167 0.075-0.167 0.167v1.667c0 0.092 0.075 0.167 0.167 0.167h1.667c0.092 0 0.167-0.075 0.167-0.167zM14 9.167v-1.667c0-0.092-0.075-0.167-0.167-0.167h-1.667c-0.092 0-0.167 0.075-0.167 0.167v1.667c0 0.092 0.075 0.167 0.167 0.167h1.667c0.092 0 0.167-0.075 0.167-0.167zM20.667 21.833v-1.667c0-0.092-0.075-0.167-0.167-0.167h-1.667c-0.092 0-0.167 0.075-0.167 0.167v1.667c0 0.092 0.075 0.167 0.167 0.167h1.667c0.092 0 0.167-0.075 0.167-0.167zM20.667 17.833v-1.667c0-0.092-0.075-0.167-0.167-0.167h-1.667c-0.092 0-0.167 0.075-0.167 0.167v1.667c0 0.092 0.075 0.167 0.167 0.167h1.667c0.092 0 0.167-0.075 0.167-0.167zM24 21.833v-1.667c0-0.092-0.075-0.167-0.167-0.167h-1.667c-0.092 0-0.167 0.075-0.167 0.167v1.667c0 0.092 0.075 0.167 0.167 0.167h1.667c0.092 0 0.167-0.075 0.167-0.167zM24 17.833v-1.667c0-0.092-0.075-0.167-0.167-0.167h-1.667c-0.092 0-0.167 0.075-0.167 0.167v1.667c0 0.092 0.075 0.167 0.167 0.167h1.667c0.092 0 0.167-0.075 0.167-0.167zM27.333 21.833v-1.667c0-0.092-0.075-0.167-0.167-0.167h-1.667c-0.092 0-0.167 0.075-0.167 0.167v1.667c0 0.092 0.075 0.167 0.167 0.167h1.667c0.092 0 0.167-0.075 0.167-0.167zM27.333 17.833v-1.667c0-0.092-0.075-0.167-0.167-0.167h-1.667c-0.092 0-0.167 0.075-0.167 0.167v1.667c0 0.092 0.075 0.167 0.167 0.167h1.667c0.092 0 0.167-0.075 0.167-0.167z"></path>
</svg>
