<!-- Generated by IcoMoon.io -->
<svg version="1.1" xmlns="http://www.w3.org/2000/svg" width="32" height="32" viewBox="0 0 32 32">
<title>on-duty</title>
<path fill="#4c7bc1" d="M7.667 25.332c0-0.736 0.593-1.332 1.336-1.332h13.995c0.738 0 1.336 0.599 1.336 1.332v1.336c0 0.736-0.593 1.332-1.336 1.332h-13.995c-0.738 0-1.336-0.599-1.336-1.332v-1.336zM9.378 16.642c0-3.668 2.972-6.642 6.64-6.642s6.64 2.97 6.64 6.642v6.74h-13.28v-6.74zM17.065 11.713c0-0.268-0.218-0.486-0.493-0.486h-0.987c-2.272 0-4.615 2.188-4.615 5.345v5.25c0 0.27 0.217 0.489 0.49 0.489h0.491c0.27 0 0.49-0.218 0.49-0.489v-5.25c0-2.331 1.665-3.886 3.144-3.886h0.987c0.272 0 0.493-0.215 0.493-0.486v-0.488zM16.010 8.383c-0.434 0-0.792-0.354-0.792-0.796v-2.79c0-0.442 0.352-0.796 0.792-0.796s0.792 0.36 0.792 0.796v2.79c0 0.442-0.358 0.796-0.792 0.796zM8.024 17.755c0 0.442-0.352 0.796-0.792 0.796h-2.774c-0.44 0-0.792-0.36-0.792-0.796 0-0.442 0.358-0.796 0.792-0.796h2.774c0.44 0 0.792 0.36 0.792 0.796zM27.561 16.959c0.44 0 0.792 0.36 0.792 0.796 0 0.442-0.358 0.796-0.792 0.796h-2.774c-0.44 0-0.792-0.36-0.792-0.796 0-0.442 0.358-0.796 0.792-0.796h2.774zM23.159 11.361c-0.205 0-0.405-0.077-0.563-0.23-0.311-0.313-0.311-0.814 0-1.127l1.965-1.976c0.311-0.313 0.809-0.313 1.12 0s0.311 0.814 0 1.127l-1.965 1.976c-0.152 0.153-0.358 0.23-0.557 0.23zM8.304 11.125l-1.971-1.976c-0.311-0.313-0.311-0.814 0-1.127s0.809-0.313 1.12 0l1.965 1.976c0.311 0.313 0.311 0.814 0 1.127-0.152 0.153-0.358 0.23-0.557 0.23s-0.405-0.077-0.557-0.23z"></path>
</svg>
