<!-- Generated by IcoMoon.io -->
<svg version="1.1" xmlns="http://www.w3.org/2000/svg" width="32" height="32" viewBox="0 0 32 32">
<title>operator</title>
<path fill="#4c7bc1" d="M7.521 14.083c-1.318-0.025-2.38-1.088-2.38-2.399s1.062-2.374 2.38-2.4c0.066-0.255 0.226-0.463 0.451-0.591-0.015-0.15-0.035-0.333-0.010-0.591 0.177-7.627 11.545-10.706 15.394-2.837 0.554 1.214 0.752 2.471 0.672 3.428 0.225 0.127 0.385 0.335 0.45 0.591 3.147 0.064 3.146 4.735 0 4.799-0.069 0.268-0.24 0.488-0.483 0.612v0.663c0 3.232-2.869 3.503-6.132 4.36-0.319 1.141-1.961 0.876-1.961-0.26 0-0.907 1.116-1.344 1.74-0.672 4.042-1.062 5.387-0.87 5.387-4.154-0.257-0.171-0.437-0.449-0.437-0.78 0-4.221-0.204-4.613 0.366-5.072-1.369-7.913-12.615-7.973-13.92-0.001 0.57 0.458 0.367 0.852 0.367 5.073 0 1.054-1.593 1.367-1.885 0.229zM16.037 17.657c-3.302 0-5.977-3.097-5.977-6.915s2.675-6.647 5.977-6.647c3.302 0 5.98 2.83 5.98 6.647s-2.677 6.915-5.98 6.915zM5.549 29.328c0 0-1.421 0.091-2.047-0.742-0.338-0.45-0.103-1.362 0.129-1.87l0.566-1.246c0 0 1.566-3.383 3.349-5.343 1.095-1.202 2.398-0.928 3.24-0.537 0.519 0.241 1.106 0.941 1.534 1.313 0.591 0.512 1.634 1.093 3.339 1.126h1.046c1.704-0.033 2.747-0.614 3.338-1.126 0.428-0.371 0.999-1.094 1.513-1.343 0.773-0.374 1.95-0.604 3.017 0.567 1.783 1.96 3.196 5.405 3.196 5.405l0.58 1.222c0.24 0.505 0.486 1.412 0.157 1.868-0.587 0.815-1.904 0.707-1.904 0.707l-21.055-0z"></path>
</svg>
