<!-- Generated by IcoMoon.io -->
<svg version="1.1" xmlns="http://www.w3.org/2000/svg" width="32" height="32" viewBox="0 0 32 32">
<title>payment</title>
<path fill="#4c7bc1" d="M24.443 8.651l-14.761-6.496c-0.898-0.398-1.955 0-2.357 0.897l-5.169 11.502c-0.402 0.891 0 1.94 0.904 2.339l2.812 1.168c0.372 0.164 0.797-0.105 0.797-0.511v-4.882c0-1.87 1.695-3.278 3.58-3.278h14.035c0.419-0.005 0.538-0.567 0.159-0.737zM9.836 10.659c-0.999 0-1.808 0.803-1.808 1.794v12.416c0 0.99 0.809 1.793 1.808 1.793h2.404c-0.059-0.351-0.088-0.71-0.088-1.073 0-0.41 0.042-0.481 0.112-0.874h-2.236v-6.35l17.318 0.148v6.202h-2.033c0.071 0.391 0.112 0.458 0.112 0.867 0 0.364-0.029 0.722-0.089 1.074h2.189c0.999 0 1.808-0.803 1.808-1.793v-12.411c0-0.99-0.808-1.793-1.808-1.793h-17.689zM10.028 14.667v-2h17.318v2.148l-17.318-0.148zM14 25.332c0 2.577 2.090 4.668 4.666 4.668s4.667-2.091 4.667-4.668c0-2.576-2.090-4.666-4.667-4.666s-4.666 2.090-4.666 4.666zM19.473 27.771c-0.145 0.037-0.206 0.11-0.2 0.259 0.006 0.143 0 0.285 0 0.435 0 0.13-0.068 0.198-0.195 0.198-0.154 0.006-0.312 0.006-0.467 0-0.137 0-0.199-0.080-0.199-0.21v-0.317c0-0.23-0.014-0.241-0.238-0.28-0.288-0.043-0.569-0.111-0.831-0.235-0.205-0.1-0.232-0.149-0.168-0.366 0.043-0.161 0.087-0.323 0.136-0.478 0.057-0.186 0.108-0.204 0.282-0.118 0.293 0.149 0.599 0.236 0.924 0.274 0.206 0.024 0.413 0.006 0.606-0.081 0.363-0.154 0.419-0.57 0.112-0.817-0.107-0.087-0.219-0.149-0.344-0.199-0.319-0.136-0.649-0.24-0.943-0.42-0.487-0.285-0.793-0.681-0.756-1.271 0.037-0.664 0.419-1.072 1.031-1.295 0.25-0.094 0.256-0.088 0.256-0.347v-0.268c0.006-0.198 0.037-0.229 0.238-0.235h0.181c0.424 0 0.424 0 0.424 0.42 0 0.298 0 0.298 0.3 0.341 0.224 0.038 0.443 0.1 0.655 0.193 0.118 0.050 0.162 0.13 0.125 0.254-0.051 0.18-0.1 0.366-0.162 0.539-0.057 0.167-0.112 0.192-0.275 0.118-0.331-0.161-0.676-0.224-1.036-0.205-0.095 0.006-0.188 0.020-0.276 0.056-0.312 0.137-0.369 0.484-0.1 0.694 0.139 0.106 0.287 0.186 0.45 0.254 0.281 0.111 0.555 0.224 0.824 0.371 0.825 0.454 1.055 1.502 0.462 2.213-0.212 0.26-0.494 0.434-0.817 0.521z"></path>
</svg>
