<!-- Generated by IcoMoon.io -->
<svg version="1.1" xmlns="http://www.w3.org/2000/svg" width="32" height="32" viewBox="0 0 32 32">
<title>pie-chart</title>
<path fill="#4c7bc1" d="M18.247 3.497c6.065 0 11 4.944 11 11.022 0 0.468-0.379 0.848-0.846 0.848h-10.154c-0.467 0-0.846-0.38-0.846-0.848v-10.174c0-0.468 0.379-0.848 0.846-0.848zM24.625 17.381c0.467 0 0.846 0.38 0.846 0.848 0 6.077-4.935 11.022-11 11.022s-11-4.944-11-11.022c0-6.077 4.935-11.022 11-11.022 0.467 0 0.846 0.38 0.846 0.848v9.326h9.308z"></path>
</svg>
