<!-- Generated by IcoMoon.io -->
<svg version="1.1" xmlns="http://www.w3.org/2000/svg" width="32" height="32" viewBox="0 0 32 32">
<title>power</title>
<path fill="#4c7bc1" d="M24.905 12.97c-0.151-0.343-0.487-0.564-0.857-0.564h-7.059l2.903-7.784c0.109-0.292 0.070-0.62-0.106-0.878s-0.464-0.411-0.772-0.411h-6.983c-0.39 0-0.739 0.245-0.877 0.615l-4.427 11.868c-0.109 0.292-0.070 0.62 0.106 0.878s0.464 0.411 0.772 0.411l7.834-0.048-4.139 11.166c-0.055 0.148 0.002 0.314 0.135 0.396s0.304 0.056 0.408-0.061l12.903-14.564c0.247-0.28 0.31-0.681 0.159-1.024z"></path>
</svg>
