<!-- Generated by IcoMoon.io -->
<svg version="1.1" xmlns="http://www.w3.org/2000/svg" width="32" height="32" viewBox="0 0 32 32">
<title>question</title>
<path fill="#4e7bbe" d="M12.894 23.333c-0.237 0-0.445 0.090-0.623 0.269-0.179 0.179-0.268 0.388-0.268 0.627v5.544c0 0.238 0.089 0.447 0.268 0.626 0.178 0.178 0.385 0.268 0.623 0.268h5.496c0.238 0 0.446-0.090 0.624-0.268 0.179-0.179 0.319-0.388 0.319-0.626v-5.544c0-0.239-0.141-0.448-0.319-0.627-0.178-0.179-0.385-0.269-0.624-0.269h-5.496zM17.043 2c-5.764 0-8.534 1.983-10.908 5.948-0.118 0.193-0.159 0.402-0.122 0.626s0.152 0.41 0.345 0.559l3.651 2.795c0.193 0.119 0.378 0.179 0.557 0.179 0.268 0 0.497-0.12 0.69-0.358 1.068-1.342 1.863-2.199 2.381-2.572 0.639-0.431 1.44-0.647 2.404-0.647 0.904 0 1.703 0.239 2.394 0.715 0.69 0.477 1.034 1.029 1.034 1.655 0 0.7-0.185 1.267-0.556 1.7s-1.477 0.881-2.285 1.401c-0.962 0.619-1.523 1.131-2.77 2.278s-1.856 2.262-1.856 3.498v1.006c0 0.283 0.078 0.563 0.233 0.838 0.156 0.276 0.345 0.414 0.567 0.414h5.496c0.238 0 0.446-0.116 0.624-0.348 0.178-0.23 0.357-0.472 0.357-0.726 0-0.372 0.437-1.387 3.371-3.698s4.068-2.877 4.068-6.596c0-3.719-3.914-8.667-9.678-8.667z"></path>
</svg>
