<!-- Generated by IcoMoon.io -->
<svg version="1.1" xmlns="http://www.w3.org/2000/svg" width="32" height="32" viewBox="0 0 32 32">
<title>radio</title>
<path fill="#4c7bc1" d="M0.001 15.999c0-4.415 1.778-8.3 4.711-11.213 0.089-0.177 0.356-0.265 0.622-0.265s0.444 0.088 0.622 0.265l1.244 1.236c0.356 0.353 0.356 0.883 0 1.236-2.222 2.207-3.644 5.298-3.644 8.741s1.422 6.534 3.644 8.741c0.356 0.353 0.356 0.883 0 1.236l-1.244 1.236c-0.178 0.177-0.356 0.265-0.622 0.265s-0.444-0.088-0.622-0.265c-2.933-2.825-4.711-6.799-4.711-11.213zM9.647 22.336c-1.67-1.63-2.69-3.802-2.69-6.337s1.020-4.708 2.69-6.337c0.371-0.362 0.928-0.362 1.299 0l1.299 1.267c0.371 0.362 0.371 0.905 0 1.267-0.928 0.996-1.577 2.354-1.577 3.802s0.557 2.806 1.577 3.802c0.371 0.362 0.371 0.905 0 1.267l-1.299 1.267c-0.371 0.362-0.928 0.362-1.299 0zM32.001 15.999c0 4.415-1.778 8.3-4.711 11.213-0.089 0.177-0.356 0.265-0.622 0.265s-0.444-0.088-0.622-0.265l-1.244-1.236c-0.356-0.353-0.356-0.883 0-1.236 2.222-2.207 3.644-5.298 3.644-8.741s-1.422-6.534-3.644-8.741c-0.356-0.353-0.356-0.883 0-1.236l1.244-1.236c0.178-0.177 0.356-0.265 0.622-0.265s0.444 0.088 0.622 0.265c2.933 2.825 4.711 6.799 4.711 11.213zM22.354 9.662c1.67 1.63 2.69 3.802 2.69 6.337s-1.020 4.708-2.69 6.337c-0.371 0.362-0.928 0.362-1.299 0l-1.299-1.267c-0.371-0.362-0.371-0.905 0-1.267 0.928-0.996 1.577-2.354 1.577-3.802s-0.557-2.806-1.577-3.802c-0.371-0.362-0.371-0.905 0-1.267l1.299-1.267c0.371-0.362 0.928-0.362 1.299 0zM13.913 16.348c0-1.153 0.934-2.087 2.087-2.087s2.087 0.934 2.087 2.087c0 1.153-0.934 2.087-2.087 2.087s-2.087-0.934-2.087-2.087z"></path>
</svg>
