<!-- Generated by IcoMoon.io -->
<svg version="1.1" xmlns="http://www.w3.org/2000/svg" width="32" height="32" viewBox="0 0 32 32">
<title>re-wind</title>
<path fill="#4c7bc1" d="M16.716 25.984c0 0.197-0.11 0.379-0.286 0.469-0.176 0.091-0.387 0.077-0.549-0.037l-14.646-10.048c-0.141-0.098-0.225-0.26-0.225-0.432s0.084-0.334 0.225-0.432l14.646-10.048c0.091-0.064 0.198-0.097 0.305-0.097 0.083 0 0.167 0.020 0.244 0.059 0.175 0.091 0.286 0.272 0.286 0.47v8.571l12.478-9.003c0.091-0.064 0.198-0.097 0.305-0.097 0.083 0 0.167 0.020 0.244 0.059 0.175 0.091 0.286 0.272 0.286 0.47v20.095c0 0.197-0.11 0.379-0.286 0.469-0.176 0.091-0.387 0.077-0.549-0.037l-12.478-9.003v8.571z"></path>
</svg>
