<!-- Generated by IcoMoon.io -->
<svg version="1.1" xmlns="http://www.w3.org/2000/svg" width="32" height="32" viewBox="0 0 32 32">
<title>reciept-printer</title>
<path fill="#4c7bc1" d="M24.205 8.059c1.36 0 2.461 1.144 2.461 2.556v7.041c0 1.412-1.102 2.344-2.461 2.344h-0.872v8.393c0 0.517-0.404 0.936-0.901 0.936h-12.864c-0.498 0-0.902-0.419-0.902-0.936v-8.393h-0.871c-1.36 0-2.462-0.933-2.462-2.344v-7.041c0-1.412 1.102-2.556 2.462-2.556l0.871-0.059v-5.064c0-0.516 0.404-0.936 0.902-0.936h12.864c0.497 0 0.901 0.419 0.901 0.936v5.064l0.872 0.059zM8.92 17.878c0.684 0 1.239-0.576 1.239-1.287s-0.555-1.286-1.239-1.286c-0.181 0-0.352 0.042-0.507 0.115-0.431 0.201-0.733 0.649-0.733 1.171 0 0.524 0.301 0.971 0.733 1.172 0.155 0.073 0.326 0.114 0.507 0.114zM19.321 22.667h-6.642c-0.375 0-0.679-0.298-0.679-0.667 0-0.367 0.304-0.666 0.679-0.666h6.642c0.375 0 0.679 0.299 0.679 0.666 0 0.369-0.304 0.667-0.679 0.667zM19.321 26h-6.642c-0.375 0-0.679-0.298-0.679-0.666s0.304-0.667 0.679-0.667h6.642c0.375 0 0.679 0.299 0.679 0.667s-0.304 0.666-0.679 0.666zM21.333 27.333v-7.333h-10.667v7.333h10.667zM21.784 8.059h-0.451v-4.059h-10.667v4.059h11.117z"></path>
</svg>
