<!-- Generated by IcoMoon.io -->
<svg version="1.1" xmlns="http://www.w3.org/2000/svg" width="32" height="32" viewBox="0 0 32 32">
<title>repair</title>
<path fill="#4c7bc1" d="M28.949 24.384l-2.708-2.708c-0.010-0.010-0.021-0.018-0.031-0.028s-0.017-0.021-0.027-0.031c-0.834-0.834-2.011-1.113-3.077-0.842l-4.776-4.776 4.775-4.775c1.066 0.27 2.243-0.008 3.078-0.843 0.010-0.010 0.018-0.021 0.028-0.031s0.020-0.018 0.030-0.028l2.708-2.708c0.513-0.513 0.513-1.343 0-1.856l-2.708-2.708c-0.513-0.513-1.344-0.513-1.857 0l-2.707 2.708c-0.010 0.010-0.018 0.021-0.028 0.031s-0.021 0.018-0.031 0.028c-0.834 0.834-1.112 2.012-0.842 3.078l-4.776 4.776-4.776-4.776c0.27-1.066-0.008-2.244-0.842-3.078-0.010-0.010-0.021-0.018-0.031-0.028s-0.018-0.020-0.028-0.030l-2.708-2.708c-0.513-0.513-1.344-0.513-1.856-0.001l-2.708 2.708c-0.513 0.513-0.513 1.344 0 1.856l2.708 2.708c0.010 0.010 0.021 0.018 0.031 0.027s0.018 0.021 0.028 0.031c0.834 0.835 2.012 1.113 3.078 0.842l4.775 4.776-4.775 4.776c-1.067-0.27-2.244 0.008-3.079 0.842-0.010 0.010-0.018 0.021-0.028 0.031s-0.021 0.018-0.031 0.028l-2.708 2.708c-0.513 0.512-0.513 1.343 0 1.856l2.708 2.709c0.513 0.512 1.344 0.512 1.857 0l2.708-2.708c0.010-0.009 0.018-0.021 0.028-0.031s0.021-0.017 0.031-0.027c0.834-0.835 1.113-2.011 0.842-3.077l4.776-4.776 4.775 4.775c-0.27 1.066 0.008 2.243 0.842 3.078 0.010 0.010 0.021 0.017 0.031 0.028s0.018 0.021 0.028 0.030l2.708 2.708c0.513 0.512 1.344 0.513 1.856 0l2.708-2.708c0.513-0.513 0.513-1.344 0-1.856z"></path>
</svg>
