<!-- Generated by IcoMoon.io -->
<svg version="1.1" xmlns="http://www.w3.org/2000/svg" width="32" height="32" viewBox="0 0 32 32">
<title>repeat</title>
<path fill="#4c7bc1" d="M23.555 2.095l6.548 4.787c0.315 0.223 0.315 0.705-0.005 0.92l-6.548 4.777c-0.358 0.247-0.837-0.012-0.837-0.457v-2.789h-16.046v8.667h-4v-10.583c0-1.15 0.926-2.084 2.044-2.084h18.007v-2.781c0-0.439 0.481-0.705 0.837-0.457zM8.474 29.905l-6.548-4.787c-0.315-0.223-0.315-0.705 0.005-0.92l6.548-4.777c0.358-0.247 0.837 0.012 0.837 0.457v2.789h16.046v-8.667h4v10.583c0 1.15-0.926 2.084-2.044 2.084h-18.007v2.781c0 0.439-0.481 0.705-0.837 0.457z"></path>
</svg>
