<!-- Generated by IcoMoon.io -->
<svg version="1.1" xmlns="http://www.w3.org/2000/svg" width="32" height="32" viewBox="0 0 32 32">
<title>reset</title>
<path fill="#4c7bc1" d="M27.106 14.453c-0.156-1.484-0.604-2.902-1.332-4.214-0.535-0.966-1.206-1.841-1.994-2.602-0.763-0.737-1.628-1.36-2.573-1.853-0.93-0.486-1.925-0.838-2.955-1.048-0.641-0.131-1.297-0.205-1.949-0.222-0.19-0.005-0.382-0.004-0.573 0.001l0.020-4.075c0.001-0.177-0.105-0.336-0.268-0.405s-0.351-0.032-0.477 0.093l-5.302 5.254c-0.082 0.082-0.129 0.193-0.13 0.309-0 0.075 0.019 0.149 0.055 0.213 0.019 0.035 0.043 0.067 0.072 0.096l5.251 5.292c0.125 0.125 0.312 0.163 0.476 0.096s0.271-0.226 0.272-0.403l0.017-3.559c0.193-0.007 0.385-0.008 0.577-0.001 0.418 0.014 0.839 0.061 1.252 0.138 0.778 0.147 1.529 0.402 2.232 0.761 0.714 0.364 1.367 0.827 1.942 1.378 0.595 0.569 1.101 1.226 1.504 1.952 0.537 0.97 0.868 2.017 0.983 3.112 0.111 1.058 0.018 2.115-0.278 3.144s-0.778 1.975-1.435 2.813c-0.68 0.868-1.516 1.581-2.487 2.119s-2.019 0.87-3.115 0.987c-1.059 0.113-2.117 0.020-3.146-0.274s-1.976-0.776-2.814-1.431c-0.867-0.678-1.58-1.514-2.117-2.483-0.458-0.826-0.547-1.362-0.547-1.362-0.206-0.705-0.962-1.176-1.693-1.052l-0.236 0.040c-0.729 0.124-1.163 0.799-0.954 1.509 0 0 0.26 1.163 0.878 2.279 0.728 1.313 1.693 2.444 2.868 3.363 1.135 0.887 2.416 1.538 3.809 1.937s2.825 0.523 4.259 0.371c1.485-0.158 2.904-0.607 4.219-1.336s2.448-1.694 3.369-2.87c0.889-1.135 1.542-2.416 1.942-3.808s0.527-2.824 0.376-4.256z"></path>
</svg>
