<!-- Generated by IcoMoon.io -->
<svg version="1.1" xmlns="http://www.w3.org/2000/svg" width="32" height="32" viewBox="0 0 32 32">
<title>reward</title>
<path fill="#4c7bc1" d="M30 8.646c0-1.369-0.533-2.656-1.501-3.624-1.44-1.441-3.528-1.826-5.332-1.189v-0.312c0-0.472-0.382-0.854-0.854-0.854h-11.958c-0.472 0-0.854 0.382-0.854 0.854v0.312c-1.804-0.637-3.892-0.252-5.332 1.189-0.968 0.968-1.501 2.255-1.501 3.624s0.533 2.656 1.501 3.624c0.011 0.011 0.023 0.018 0.034 0.028s0.018 0.022 0.028 0.031l5.833 5.272c0.268 0.243 3.105 2.404 4.562 2.78v2.787l-0.854 3.417h-0.854c-0.943 0-1.708 0.765-1.708 1.708v1.708h10.25v-1.708c0-0.943-0.765-1.708-1.708-1.708h-0.854l-0.854-3.417v-2.786c1.457-0.376 4.294-2.537 4.562-2.78l5.833-5.272c0.011-0.010 0.018-0.021 0.028-0.031s0.024-0.017 0.034-0.028c0.968-0.968 1.501-2.255 1.501-3.624zM23.667 7.438c0.666-0.666 1.75-0.666 2.417 0 0.322 0.323 0.5 0.752 0.5 1.208 0 0.452-0.175 0.876-0.492 1.197l-2.925 2.644v-4.708c0.181-0.082 0.352-0.193 0.5-0.341zM6.583 7.438c0.666-0.666 1.75-0.666 2.417 0 0.148 0.148 0.319 0.259 0.5 0.341v4.708l-2.925-2.644c-0.316-0.322-0.492-0.746-0.492-1.197 0-0.456 0.178-0.885 0.5-1.208z"></path>
</svg>
