<!-- Generated by IcoMoon.io -->
<svg version="1.1" xmlns="http://www.w3.org/2000/svg" width="32" height="32" viewBox="0 0 32 32">
<title>route</title>
<path fill="#4c7bc1" d="M25.63 15.997c-0.078 0-0.153-0.033-0.207-0.090-0.456-0.489-1.356-1.501-2.259-2.786-1.14-1.619-2.498-3.993-2.498-6.109 0-2.763 2.227-5.012 4.963-5.012s4.963 2.248 4.963 5.012c0 2.114-1.356 4.487-2.494 6.105-0.904 1.285-1.805 2.299-2.262 2.79-0.053 0.057-0.129 0.090-0.207 0.090zM28.020 6.968c0-1.3-1.054-2.357-2.349-2.357s-2.349 1.057-2.349 2.357c0 1.299 1.054 2.357 2.349 2.357s2.349-1.058 2.349-2.357zM6.297 29.33c-0.078 0-0.153-0.033-0.207-0.090-0.456-0.489-1.356-1.501-2.259-2.786-1.14-1.619-2.498-3.993-2.498-6.109 0-2.763 2.227-5.012 4.963-5.012s4.963 2.248 4.963 5.012c0 2.114-1.356 4.487-2.494 6.105-0.904 1.285-1.805 2.299-2.262 2.79-0.053 0.057-0.129 0.090-0.207 0.090zM8.687 20.302c0-1.3-1.054-2.357-2.349-2.357s-2.349 1.057-2.349 2.357c0 1.299 1.054 2.357 2.349 2.357s2.349-1.058 2.349-2.357zM21.685 29.365h-12.571c-0.566 0-0.874-0.66-0.511-1.094 0.352-0.421 0.694-0.856 1.023-1.302 0.126-0.17 0.325-0.271 0.536-0.271h11.523c4.555 0 5.731-0.229 5.737-2.161 0.004-1.564-0.898-1.907-5.939-1.907-5.843 0-7.4-0.893-7.348-4.669 0.047-3.402 2.138-4.685 7.18-4.842 0.225-0.007 0.439 0.1 0.568 0.285 0.035 0.050 0.035 0.050 0.071 0.101 0.282 0.401 0.577 0.797 0.881 1.183 0.344 0.436 0.036 1.076-0.519 1.080-4.338 0.026-5.492 0.555-5.515 2.23-0.025 1.826 0.262 1.966 4.682 1.966 3.18 0 4.475 0.108 5.705 0.514 1.908 0.63 2.906 2.014 2.9 4.066-0.011 3.815-2.43 4.82-8.403 4.82z"></path>
</svg>
