<!-- Generated by IcoMoon.io -->
<svg version="1.1" xmlns="http://www.w3.org/2000/svg" width="32" height="32" viewBox="0 0 32 32">
<title>run</title>
<path fill="#4c7bc1" d="M10.606 18.634h-6.835c-0.608 0-1.105-0.491-1.105-1.090v-2.453c0-0.6 0.497-1.090 1.105-1.090h6.569c0.822-2.33 3.038-4 5.644-4s4.823 1.67 5.644 4h5.933c0.608 0 1.105 0.491 1.105 1.090v2.453c0 0.6-0.497 1.090-1.105 1.090h-6.198c-0.973 1.994-3.016 3.366-5.379 3.366s-4.406-1.373-5.379-3.366v0zM16 18.667c1.473 0 2.667-1.194 2.667-2.667s-1.194-2.667-2.667-2.667c-1.473 0-2.667 1.194-2.667 2.667s1.194 2.667 2.667 2.667z"></path>
</svg>
