<!-- Generated by IcoMoon.io -->
<svg version="1.1" xmlns="http://www.w3.org/2000/svg" width="32" height="32" viewBox="0 0 32 32">
<title>safety-check</title>
<path fill="#4c7bc1" d="M18.758 4c-0.356-0.984-1.302-1.693-2.425-1.693s-2.069 0.709-2.425 1.693h-6.186c-0.951 0-1.722 0.758-1.722 1.693v22.118c0 0.935 0.771 1.523 1.722 1.523h16.556c0.951 0 1.722-0.643 1.722-1.578v-22.118c0-0.935-0.771-1.638-1.722-1.638h-5.519zM17.194 4.846c0 0.467-0.386 0.846-0.861 0.846s-0.861-0.379-0.861-0.846c0-0.467 0.386-0.846 0.861-0.846s0.861 0.379 0.861 0.846zM9.333 26.055v-18.721h4v1.257c0 0.467 0.386 0.846 0.861 0.846h4.278c0.476 0 0.861-0.379 0.861-0.846v-1.257h3.333v18.667l-13.333 0.055zM13.701 15.654c-0.694-0.682-1.82-0.682-2.514 0s-0.694 1.789 0 2.471l2.667 2.621c0.347 0.341 0.802 0.512 1.257 0.512s0.91-0.171 1.257-0.512l4.444-4.368c0.694-0.682 0.694-1.788 0-2.471s-1.82-0.682-2.514 0l-3.188 3.132-1.41-1.385z"></path>
</svg>
