<!-- Generated by IcoMoon.io -->
<svg version="1.1" xmlns="http://www.w3.org/2000/svg" width="32" height="32" viewBox="0 0 32 32">
<title>Satellite-dish</title>
<path fill="#4c7bc1" d="M26.176 19.499l-7.115-7.124 1.595-1.593c0.831 0.264 1.774 0.078 2.433-0.58 0.942-0.941 0.942-2.466 0.002-3.408s-2.466-0.942-3.408-0.002c-0.658 0.658-0.846 1.601-0.584 2.432l-1.595 1.593-7.114-7.123c-0.25-0.251-0.597-0.381-0.951-0.357s-0.679 0.199-0.894 0.481c-3.741 4.899-3.351 11.928 1.125 16.408 0.286 0.286 0.913 0.807 0.913 0.807v3.779h-1.17c-0.491 0-0.935 0.293-1.128 0.745l-0.927 2.162c-0.090 0.21-0.069 0.452 0.057 0.643s0.34 0.305 0.568 0.305h8.4c0.229 0 0.442-0.115 0.568-0.306s0.148-0.432 0.057-0.643l-0.927-2.162c-0.193-0.452-0.637-0.745-1.128-0.745h-1.067v-1.827c3.855 1.603 8.639 1.065 12.19-1.641 0.282-0.215 0.444-0.54 0.469-0.894 0.023-0.354-0.118-0.701-0.37-0.951z"></path>
</svg>
