<!-- Generated by IcoMoon.io -->
<svg version="1.1" xmlns="http://www.w3.org/2000/svg" width="32" height="32" viewBox="0 0 32 32">
<title>script</title>
<path fill="#4c7bc1" d="M29.834 6.841c0.152 0.252 0.188 0.553 0.097 0.833-0.025 0.078-2.604 7.478-5.144 14.082-1.759 4.569-3.162 7.422-7.156 7.514-1.481 0.066-2.843-0.573-2.845-0.574l-8.726-3.897c0 0-4.125-1.27-3.278-6.55l11.919 4.735c0 0-0.067 4.68 3.665 4.165 0 0.003 0.002 0.005 0.004 0.007 1.826-0.304 2.787-1.79 4.456-6.13 1.915-4.975 3.913-10.318 4.752-12.878l-13.443-3.374-5.589 14.011-1.969-0.706 5.897-14.735c0.176-0.479 0.68-0.756 1.189-0.659l15.471 3.669c0.292 0.058 0.544 0.234 0.697 0.486zM22.781 12.783l-4.541-1.378c-0.56-0.15-0.888-0.718-0.735-1.267s0.736-0.872 1.287-0.721l4.541 1.378c0.558 0.15 0.889 0.717 0.735 1.267-0.129 0.457-0.549 0.759-1.009 0.759-0.093 0-0.187-0.013-0.278-0.037zM15.686 14.267c0.184-0.539 0.775-0.829 1.327-0.649l4.515 1.587c0.551 0.18 0.846 0.764 0.663 1.304-0.147 0.433-0.56 0.706-1 0.704-0.109-0.001-0.216-0.017-0.326-0.053l-4.517-1.588c-0.549-0.181-0.844-0.763-0.662-1.304zM15.289 17.919l4.527 1.58c0.55 0.177 0.85 0.76 0.669 1.301-0.145 0.432-0.555 0.708-0.994 0.708-0.11 0-0.219-0.016-0.328-0.052l-4.526-1.581c-0.55-0.177-0.851-0.761-0.67-1.299 0.18-0.543 0.773-0.838 1.323-0.657zM15.121 8.215c0.641 0 1.162 0.498 1.162 1.111s-0.521 1.111-1.162 1.111c-0.642 0-1.162-0.497-1.162-1.111s0.521-1.111 1.162-1.111zM13.478 12.346c0.642 0 1.162 0.497 1.162 1.111s-0.52 1.11-1.162 1.11c-0.642 0-1.162-0.497-1.162-1.11s0.521-1.111 1.162-1.111zM11.724 16.607c0.642 0 1.162 0.498 1.162 1.112 0 0.613-0.52 1.11-1.162 1.11s-1.162-0.497-1.162-1.11c0-0.614 0.521-1.112 1.162-1.112z"></path>
</svg>
