<!-- Generated by IcoMoon.io -->
<svg version="1.1" xmlns="http://www.w3.org/2000/svg" width="32" height="32" viewBox="0 0 32 32">
<title>search</title>
<path fill="#4e7bbe" d="M26.125 21.099c4.21-4.211 4.21-11.063 0-15.273s-11.063-4.211-15.274 0c-3.572 3.572-4.113 8.886-1.625 13.034 0 0 0.179 0.3-0.062 0.541-1.378 1.378-5.51 5.51-5.51 5.51-1.096 1.096-1.358 2.63-0.385 3.603l0.168 0.168c0.972 0.972 2.506 0.711 3.603-0.385 0 0 4.124-4.124 5.498-5.498 0.253-0.253 0.553-0.074 0.553-0.074 4.149 2.488 9.462 1.947 13.034-1.626v0 0zM12.845 19.104c-3.111-3.111-3.111-8.174 0-11.286s8.174-3.111 11.286 0c3.111 3.111 3.111 8.174 0 11.286s-8.174 3.111-11.286 0v0zM13.535 12.82c-0.145 0-0.292-0.029-0.434-0.089-0.567-0.24-0.832-0.894-0.592-1.461 1.508-3.564 5.634-5.236 9.197-3.728 0.567 0.24 0.832 0.893 0.592 1.461s-0.894 0.832-1.462 0.592c-2.431-1.030-5.246 0.112-6.274 2.543-0.18 0.426-0.592 0.681-1.027 0.681v0z"></path>
</svg>
