<!-- Generated by IcoMoon.io -->
<svg version="1.1" xmlns="http://www.w3.org/2000/svg" width="32" height="32" viewBox="0 0 32 32">
<title>send</title>
<path fill="#4c7bc1" d="M28.911 2.232c1.075-0.562 1.691-0.066 1.374 1.106l-5.643 20.736c-0.318 1.171-0.583 2.126-0.589 2.124-0.006-0.001-0.012-0.022-0.012-0.029s-0.92-0.386-2.044-0.843l-3.7-1.506c-1.123-0.459-2.969-1.193-4.098-1.63l-0.39-0.153c-1.129-0.44-1.376-1.523-0.546-2.406l11.456-12.264c0.828-0.886 0.726-0.998-0.227-0.247l-14.49 11.426c-0.957 0.749-2.664 0.99-3.79 0.545l-3.336-1.319c-1.128-0.447-1.172-1.272-0.097-1.836l26.133-13.704zM13.383 23.426c1.122 0.46 1.499 1.667 0.836 2.684 0 0-2.348 3.599-2.28 3.398 0.066-0.202-2.31-5.928-2.311-5.928-0.465-1.121 0.073-1.66 1.195-1.201l2.56 1.047z"></path>
</svg>
