<!-- Generated by IcoMoon.io -->
<svg version="1.1" xmlns="http://www.w3.org/2000/svg" width="32" height="32" viewBox="0 0 32 32">
<title>settings</title>
<path fill="#4c7bc1" d="M21.953 8c-0.379 0-0.671 0.299-0.671 0.668v2.66c0 0.373 0.301 0.668 0.671 0.668l6.708 0.003c0.379 0 0.671-0.299 0.671-0.668v-2.66c0-0.373-0.301-0.668-0.671-0.668h-1.38v-4.674c0-0.363-0.299-0.663-0.668-0.663l-2.612-0.003c-0.373 0-0.668 0.297-0.668 0.663v4.674h-1.38zM8.667 3.328c0-0.358-0.299-0.661-0.668-0.661h-2.612c-0.373 0-0.668 0.296-0.668 0.661l-0.051 10.672-1.354-0.002c-0.379 0-0.646 0.299-0.646 0.668v2.715c0 0.373 0.326 0.668 0.697 0.668l6.631 0.002c0.379 0 0.671-0.299 0.671-0.668v-2.766c0-0.373-0.352-0.617-0.723-0.617h-1.329l0.051-10.672zM18.051 3.335c0-0.363-0.299-0.668-0.668-0.668h-2.716c-0.373 0-0.667 0.298-0.667 0.667v16.661h-1.341c-0.379 0-0.659 0.407-0.659 0.776v2.561c0 0.373 0.301 0.668 0.671 0.668h6.662c0.379 0 0.671-0.299 0.671-0.668v-2.665c0-0.373-0.216-0.672-0.587-0.672h-1.38l0.013-16.66zM13.974 25.332l4.026 0.001 0.051 3.332c0 0.369-0.295 0.668-0.668 0.668h-2.716c-0.369 0-0.641-0.296-0.641-0.67l-0.038-3.332h-0.013zM27.333 13.333v15.336c0 0.366-0.295 0.664-0.668 0.664l-2.663-0.003c-0.369 0-0.668-0.299-0.668-0.664v-15.336l4 0.003zM8.667 19.333v9.327c0 0.372-0.295 0.673-0.668 0.673h-2.612c-0.369 0-0.668-0.296-0.668-0.673v-9.327h3.949z"></path>
</svg>
