<!-- Generated by IcoMoon.io -->
<svg version="1.1" xmlns="http://www.w3.org/2000/svg" width="32" height="32" viewBox="0 0 32 32">
<title>skip</title>
<path fill="#4c7bc1" d="M28.448 12c0.123-0.375-0.096-0.674-0.489-0.674h-22.974c-0.393 0-0.611 0.302-0.489 0.674l3.383 10.667h-0.813c-0.395 0-0.592 0.278-0.592 0.669v0.624c0 0.389 0.319 0.707 0.712 0.707h18.267c0.395 0 0.712-0.317 0.712-0.707v-0.624c0-0.389-0.439-0.669-0.833-0.669h-0.535l3.649-10.667zM6.066 7.333h-0.626c-0.35 0-0.643 0.333-0.7 0.667h-1.363c-0.394 0-0.71 0.278-0.71 0.669v0.624c0 0.389 0.318 0.707 0.71 0.707h25.913c0.394 0 0.71-0.317 0.71-0.707v-0.624c0-0.389-0.318-0.669-0.71-0.669h-1.363c-0.056-0.334-0.348-0.667-0.7-0.667h-0.626c-0.35 0-0.643 0.333-0.7 0.667h-19.135c-0.056-0.334-0.348-0.667-0.7-0.667z"></path>
</svg>
