<!-- Generated by IcoMoon.io -->
<svg version="1.1" xmlns="http://www.w3.org/2000/svg" width="32" height="32" viewBox="0 0 32 32">
<title>sleep</title>
<path fill="#4c7bc1" d="M7.869 13.129c-1.233 0-2.232-1.004-2.232-2.244s0.999-2.243 2.232-2.243 2.232 1.004 2.232 2.243c0 1.239-0.999 2.244-2.232 2.244zM30.624 12.657c0.76 0 1.376 0.619 1.376 1.383v8.575c0 0.764-0.616 1.384-1.376 1.384h-1.308c-0.76 0-1.376-0.62-1.376-1.384v-2.246h-23.878v2.246c0 0.764-0.616 1.384-1.376 1.384h-1.308c-0.76 0-1.376-0.62-1.376-1.384v-13.232c0-0.764 0.616-1.384 1.376-1.384h1.308c0.76 0 1.376 0.619 1.376 1.384v6.904h1.348c-0.043-0.087-0.069-0.184-0.069-0.288v-1.642c0-0.36 0.29-0.651 0.647-0.651h4.569v-1.386c0-0.555 0.448-1.004 0.999-1.004h0.93c0.552 0 0.999 0.45 0.999 1.004v3.679c0 0.104-0.027 0.202-0.070 0.288h0.783v-4.161c0-0.671 0.815-1.078 1.762-0.917l9.608 1.627c0.393 0.067 0.701 0.446 0.701 0.849v2.602h1.67v-2.246c0-0.764 0.616-1.383 1.376-1.383h1.308z"></path>
</svg>
