<!-- Generated by IcoMoon.io -->
<svg version="1.1" xmlns="http://www.w3.org/2000/svg" width="32" height="32" viewBox="0 0 32 32">
<title>sound-off</title>
<path fill="#4c7bc1" d="M15.276 25.756c-0.171 0.082-0.354 0.122-0.535 0.122-0.288 0-0.573-0.1-0.803-0.294l-7.015-5.559h-3.664c-0.695 0.001-1.258-0.572-1.258-1.277v-5.433c0-0.705 0.564-1.277 1.258-1.277h3.665l7.015-5.665c0.376-0.316 0.897-0.384 1.338-0.172 0.441 0.21 0.724 0.66 0.724 1.155l-0 17.244c0 0.495-0.282 0.945-0.724 1.155zM23.045 11.595c-0.348-0.348-0.919-0.35-1.269 0.001l-0.846 0.846c-0.349 0.349-0.351 0.919-0.001 1.269l2.328 2.328-2.328 2.328c-0.348 0.348-0.35 0.919 0.001 1.269l0.846 0.846c0.349 0.349 0.919 0.351 1.269 0.001l2.328-2.328 2.328 2.328c0.348 0.348 0.919 0.35 1.269-0.001l0.846-0.846c0.349-0.349 0.351-0.919 0.001-1.269l-2.328-2.328 2.328-2.328c0.348-0.348 0.35-0.918-0.001-1.269l-0.846-0.846c-0.349-0.349-0.919-0.351-1.269-0.001l-2.328 2.328-2.328-2.328z"></path>
</svg>
