<!-- Generated by IcoMoon.io -->
<svg version="1.1" xmlns="http://www.w3.org/2000/svg" width="32" height="32" viewBox="0 0 32 32">
<title>sound</title>
<path fill="#4c7bc1" d="M15.276 25.756c-0.171 0.082-0.354 0.122-0.535 0.122-0.288 0-0.573-0.1-0.803-0.294l-7.015-5.559h-3.664c-0.695 0.001-1.258-0.572-1.258-1.277v-5.433c0-0.705 0.564-1.277 1.258-1.277h3.665l7.015-5.665c0.376-0.316 0.897-0.384 1.338-0.172 0.441 0.21 0.724 0.66 0.724 1.155l-0 17.244c0 0.495-0.282 0.945-0.724 1.155zM20.702 22.605c-0.031 0.002-0.060 0.003-0.091 0.003-0.332 0-0.653-0.133-0.89-0.374l-0.168-0.171c-0.441-0.447-0.493-1.155-0.122-1.663 0.942-1.289 1.44-2.818 1.44-4.421 0-1.724-0.565-3.342-1.634-4.678-0.407-0.508-0.369-1.245 0.087-1.708l0.168-0.171c0.251-0.255 0.588-0.394 0.953-0.372 0.355 0.018 0.687 0.188 0.912 0.467 1.483 1.841 2.266 4.075 2.266 6.462 0 2.223-0.693 4.338-2.003 6.117-0.219 0.296-0.554 0.483-0.918 0.509zM25.905 26.551c-0.228 0.273-0.557 0.437-0.909 0.452-0.017 0.001-0.035 0.001-0.053 0.001-0.333 0-0.653-0.134-0.89-0.374l-0.165-0.168c-0.462-0.468-0.493-1.218-0.073-1.725 2.030-2.449 3.148-5.56 3.148-8.759 0-3.328-1.197-6.531-3.37-9.020-0.441-0.505-0.418-1.27 0.051-1.748l0.165-0.168c0.245-0.25 0.563-0.387 0.928-0.375 0.346 0.010 0.674 0.165 0.904 0.428 2.627 3 4.073 6.866 4.073 10.883 0.001 3.865-1.352 7.62-3.809 10.572z"></path>
</svg>
