<!-- Generated by IcoMoon.io -->
<svg version="1.1" xmlns="http://www.w3.org/2000/svg" width="32" height="32" viewBox="0 0 32 32">
<title>spedometer</title>
<path fill="#4c7bc1" d="M28.12 21.395c-0.002 0.082-0.070 0.147-0.152 0.147h-1.523c-0.041 0-0.080-0.017-0.109-0.046s-0.044-0.069-0.043-0.109l0.003-0.089c0.002-0.066 0.004-0.131 0.004-0.198 0-0.227-0.010-0.466-0.031-0.755-0.003-0.042 0.011-0.083 0.040-0.114s0.069-0.048 0.112-0.048h1.528c0.080 0 0.147 0.062 0.152 0.141 0.019 0.296 0.028 0.542 0.028 0.775 0 0.066-0.002 0.13-0.004 0.196l-0.003 0.099zM23.77 14.197c-0.029 0.028-0.067 0.044-0.108 0.044-0.044-0.001-0.083-0.018-0.112-0.048-0.236-0.251-0.49-0.494-0.755-0.725-0.032-0.028-0.051-0.067-0.052-0.109s0.015-0.082 0.044-0.112l1.083-1.073c0.057-0.057 0.149-0.059 0.209-0.006 0.263 0.232 0.524 0.484 0.773 0.747 0.056 0.059 0.055 0.152-0.003 0.21l-1.081 1.071zM16.972 22.904c-0.259 0.295-0.634 0.463-1.029 0.463-0.33-0-0.648-0.118-0.896-0.333-0.275-0.238-0.44-0.567-0.464-0.927s0.093-0.709 0.333-0.981c0.469-0.532 4.176-3.564 4.176-3.564 1.558-1.287 1.948-0.942 0.868 0.767 0 0-2.52 4.042-2.988 4.574zM8.59 14.185c-0.028 0.030-0.068 0.047-0.109 0.048-0.043 0-0.082-0.016-0.11-0.044l-1.081-1.071c-0.058-0.058-0.060-0.151-0.003-0.21 0.25-0.263 0.511-0.514 0.775-0.746 0.060-0.053 0.152-0.050 0.209 0.006l1.083 1.073c0.030 0.030 0.046 0.070 0.045 0.112s-0.020 0.081-0.052 0.109c-0.265 0.23-0.52 0.473-0.756 0.724zM15.389 9.309c0-0.081 0.064-0.148 0.146-0.151 0.144-0.006 0.335-0.013 0.531-0.013 0.163 0 0.337 0.004 0.549 0.014 0.081 0.004 0.145 0.070 0.145 0.151v1.51c0 0.041-0.017 0.081-0.048 0.11-0.028 0.027-0.066 0.041-0.105 0.041-0.003 0-0.005 0-0.008-0-0.354-0.018-0.697-0.018-1.051-0.001-0.041 0.003-0.082-0.013-0.112-0.041s-0.047-0.068-0.047-0.109v-1.51zM5.84 21.387c0.001 0.041-0.014 0.081-0.043 0.11s-0.068 0.046-0.109 0.046h-1.524c-0.083 0-0.15-0.065-0.152-0.147l-0.003-0.099c-0.002-0.065-0.004-0.13-0.004-0.196 0-0.235 0.009-0.481 0.028-0.776 0.005-0.079 0.072-0.141 0.152-0.141h1.528c0.042 0 0.083 0.018 0.112 0.048s0.043 0.072 0.040 0.114c-0.021 0.286-0.031 0.526-0.031 0.755 0 0.067 0.002 0.134 0.005 0.201l0.003 0.086zM2.333 20.945c0 1.291 0.184 2.538 0.523 3.722h26.419c0.339-1.183 0.523-2.431 0.523-3.722 0-7.518-6.148-13.612-13.733-13.612s-13.733 6.094-13.733 13.612z"></path>
</svg>
