<!-- Generated by IcoMoon.io -->
<svg version="1.1" xmlns="http://www.w3.org/2000/svg" width="32" height="32" viewBox="0 0 32 32">
<title>split</title>
<path fill="#4c7bc1" d="M31.445 8.945l-5.11-5.199c-0.396-0.402-0.992-0.522-1.509-0.305s-0.857 0.73-0.857 1.298v2.601c-3.43 0.678-6.368 2.886-8.050 5.899-1.681-3.013-4.584-5.221-8.048-5.899v-2.601c0-0.568-0.336-1.081-0.852-1.298-0.514-0.218-1.108-0.097-1.503 0.306l-5.111 5.199c-0.54 0.549-0.54 1.439 0 1.987l5.111 5.201c0.396 0.402 0.988 0.522 1.504 0.304s0.852-0.73 0.852-1.298v-1.958c2.377 0.924 4.041 3.258 4.041 5.984v7.604c0 1.148 0.914 2.077 2.040 2.077h3.932c1.128 0 2.041-0.929 2.041-2.077v-7.603c0-2.727 1.698-5.060 4.041-5.984v1.958c0 0.569 0.338 1.081 0.857 1.298 0.515 0.218 1.111 0.097 1.506-0.304l5.113-5.201c0.542-0.549 0.542-1.439 0.002-1.988v0 0z"></path>
</svg>
