<!-- Generated by IcoMoon.io -->
<svg version="1.1" xmlns="http://www.w3.org/2000/svg" width="32" height="32" viewBox="0 0 32 32">
<title>stats</title>
<path fill="#4c7bc1" d="M21.333 23.333h-2.667v-8.662c0-0.744-0.596-1.338-1.332-1.338h-2.669c-0.741 0-1.332 0.599-1.332 1.338v8.662h-2.667v-18.004c0-0.735-0.596-1.33-1.332-1.33h-2.669c-0.741 0-1.332 0.595-1.332 1.33v18.004h-0.665c-0.734 0-1.335 0.598-1.335 1.337v0.66c0 0.741 0.598 1.337 1.335 1.337h22.663c0.734 0 1.335-0.598 1.335-1.337v-0.66c0-0.741-0.598-1.337-1.335-1.337h-0.665v-12.664c0-0.741-0.596-1.336-1.332-1.336h-2.669c-0.741 0-1.332 0.598-1.332 1.336v12.664z"></path>
</svg>
