<!-- Generated by IcoMoon.io -->
<svg version="1.1" xmlns="http://www.w3.org/2000/svg" width="32" height="32" viewBox="0 0 32 32">
<title>stockyard</title>
<path fill="#4c7bc1" d="M27.129 12.158c0.127 0.071 0.205 0.204 0.205 0.348v14.046c0 0.066-0.054 0.12-0.121 0.12h-2.412c-0.067 0-0.121-0.054-0.121-0.12v-11.847h-17.359v11.847c0 0.066-0.054 0.12-0.121 0.12h-2.412c-0.067 0-0.121-0.054-0.121-0.12v-14.046c-0-0.144 0.078-0.277 0.205-0.348l10.931-6.106c0.122-0.068 0.272-0.068 0.394 0l10.931 6.106zM12.271 17.333c0.216 0 0.391 0.174 0.391 0.388v3.238c0 0.214-0.175 0.388-0.391 0.388h-3.213c-0.216 0-0.391-0.174-0.391-0.388v-3.238c0-0.214 0.175-0.388 0.391-0.388h3.213zM12.271 22.667c0.216 0 0.391 0.174 0.391 0.388v3.238c0 0.214-0.175 0.388-0.391 0.388h-3.213c-0.216 0-0.391-0.174-0.391-0.388v-3.238c0-0.214 0.175-0.388 0.391-0.388h3.213zM17.604 22.667c0.216 0 0.391 0.174 0.391 0.388v3.238c0 0.214-0.175 0.388-0.391 0.388h-3.213c-0.216 0-0.391-0.174-0.391-0.388v-3.238c0-0.214 0.175-0.388 0.391-0.388h3.213zM17.604 17.333c0.216 0 0.391 0.174 0.391 0.388v3.238c0 0.214-0.175 0.388-0.391 0.388h-3.213c-0.216 0-0.391-0.174-0.391-0.388v-3.238c0-0.214 0.175-0.388 0.391-0.388h3.213zM22.938 22.667c0.216 0 0.391 0.174 0.391 0.388v3.238c0 0.214-0.175 0.388-0.391 0.388h-3.213c-0.216 0-0.391-0.174-0.391-0.388v-3.238c0-0.214 0.175-0.388 0.391-0.388h3.213z"></path>
</svg>
