<!-- Generated by IcoMoon.io -->
<svg version="1.1" xmlns="http://www.w3.org/2000/svg" width="32" height="32" viewBox="0 0 32 32">
<title>tac</title>
<path fill="#4c7bc1" d="M12.531 16h-5.898c-0.688 0-1.245-0.558-1.245-1.251v-0.844c0-0.691 0.555-1.251 1.245-1.251h1.402v-3.32h-1.402c-0.688 0-1.245-0.363-1.245-1.044v-4.379c0-0.687 0.555-1.243 1.245-1.243h18.792c0.688 0 1.245 0.562 1.245 1.243v4.090c0 0.877-0.555 1.333-1.245 1.333h-1.383v3.32h1.383c0.688 0 1.245 0.468 1.245 1.161v0.934c0 0.691-0.555 1.251-1.245 1.251h-5.959l-3.197 14.16c-0.15 0.673-0.391 0.677-0.542 0l-3.197-14.16z"></path>
</svg>
