<!-- Generated by IcoMoon.io -->
<svg version="1.1" xmlns="http://www.w3.org/2000/svg" width="32" height="32" viewBox="0 0 32 32">
<title>target</title>
<path fill="#4c7bc1" d="M26.275 14.471h1.977c0.229 0 0.415 0.186 0.415 0.415v2.228c0 0.229-0.186 0.415-0.415 0.415h-1.97c-0.296 2.165-1.313 4.206-2.888 5.782-1.577 1.577-3.648 2.621-5.865 2.964v1.977c0 0.229-0.186 0.415-0.415 0.415h-2.228c-0.229 0-0.415-0.186-0.415-0.415v-1.97c-2.165-0.296-4.206-1.313-5.782-2.888-1.577-1.577-2.621-3.648-2.964-5.865h-1.977c-0.229 0-0.415-0.186-0.415-0.415v-2.228c0-0.229 0.186-0.415 0.415-0.415h1.969c0.294-2.217 1.312-4.288 2.889-5.865s3.648-2.595 5.865-2.889v-1.969c0-0.229 0.186-0.415 0.415-0.415h2.228c0.229 0 0.415 0.186 0.415 0.415v1.97c2.165 0.296 4.206 1.313 5.782 2.888 1.577 1.577 2.621 3.648 2.964 5.865zM16 23.382c1.99 0 3.849-0.763 5.234-2.148s2.148-3.244 2.148-5.234c0-1.99-0.763-3.849-2.148-5.234s-3.244-2.148-5.234-2.148c-1.99 0-3.849 0.763-5.234 2.148s-2.148 3.244-2.148 5.234c0 1.99 0.763 3.849 2.148 5.234s3.244 2.148 5.234 2.148zM11.13 16c0-2.685 2.185-4.87 4.87-4.87s4.87 2.185 4.87 4.87c0 2.685-2.185 4.87-4.87 4.87s-4.87-2.185-4.87-4.87z"></path>
</svg>
