<!-- Generated by IcoMoon.io -->
<svg version="1.1" xmlns="http://www.w3.org/2000/svg" width="32" height="32" viewBox="0 0 32 32">
<title>taxi</title>
<path fill="#4c7bc1" d="M27.2 18.555h-3.15c-0.525 0-1.050-0.522-1.050-1.045v-1.393c0-0.522 0.525-1.045 1.050-1.045h3.15c0.525 0 1.050 0.522 1.050 1.045v1.393c0 0.522-0.525 1.045-1.050 1.045zM7.775 9.153c0.35-0.696 1.050-1.153 1.75-1.153h12.95c0.7 0 1.4 0.457 1.75 1.153l2.1 4.178h-20.65l2.1-4.178zM19.5 22.037h-7v-1.741h7v1.741zM7.95 18.555h-3.15c-0.525 0-1.050-0.522-1.050-1.045v-1.393c0-0.522 0.525-1.045 1.050-1.045h3.15c0.525 0 1.050 0.522 1.050 1.045v1.393c0 0.522-0.525 1.045-1.050 1.045zM22.3 6.259h-0.967v-2.374c0-0.696-0.633-1.219-1.333-1.219h-8.050c-0.7 0-1.283 0.522-1.283 1.219v2.374h-1.142c-1.4 0-2.8 0.979-3.325 2.198l-2.45 5.049c-1.050 0.174-1.75 0.864-1.75 1.734v6.316c0 1.045 0.281 2.096 2.031 2.27v3.26c0 1.045 0.594 1.915 1.644 1.915h2.001c1.050 0 1.657-0.87 1.657-1.915v-3.086h13.333v3.086c0 1.045 0.7 1.915 1.75 1.915h1.908c1.050 0 1.675-0.87 1.675-1.915v-3.26c1.75-0.174 2-1.045 2-2.089v-6.316c0-0.87-0.7-1.741-1.75-1.915l-2.45-5.049c-0.7-1.219-1.925-2.198-3.5-2.198z"></path>
</svg>
