<!-- Generated by IcoMoon.io -->
<svg version="1.1" xmlns="http://www.w3.org/2000/svg" width="32" height="32" viewBox="0 0 32 32">
<title>technician</title>
<path fill="#4c7bc1" d="M27.108 29.328l-10.034-0c0.024-0.082 0.028-0.173 0.009-0.27l-0.693-3.48 1.687-2.117c0.222-0.279 0.113-0.498-0.236-0.498h-3.81c-0.345 0-0.455 0.223-0.236 0.498l1.691 2.122-0.692 3.475c-0.019 0.097-0.015 0.189 0.008 0.27l-9.856-0c0 0-1.496 0.097-2.154-0.792-0.356-0.48-0.108-1.452 0.135-1.995l0.596-1.329c0 0 1.649-3.608 3.525-5.699 1.153-1.282 2.524-0.99 3.411-0.573 0.546 0.257 1.164 1.004 1.615 1.4 0.622 0.546 1.72 1.166 3.515 1.201h1.101c1.794-0.035 2.892-0.655 3.513-1.201 0.451-0.396 1.051-1.167 1.593-1.432 0.814-0.399 2.053-0.644 3.175 0.605 1.877 2.091 3.364 5.765 3.364 5.765l0.611 1.304c0.253 0.539 0.512 1.506 0.166 1.993-0.617 0.869-2.004 0.754-2.004 0.754zM15.986 18.187c-3.727 0-7.088-3.953-7.088-9.149l2.405 1.763c0 0 0.838-1.602 4.704-1.602s4.899 1.604 4.899 1.604c0 0 2.081-1.481 2.081-1.481 0 4.534-3.274 8.866-7 8.866zM15.985 2c6.628 0.010 6.494 3.519 6.959 5.506l-1.843 1.709c0 0-1.504-1.339-5.095-1.339s-4.692 1.36-4.692 1.36l-2.372-1.946c0.545-2.287 0.414-5.301 7.042-5.291zM15.935 6.459c0.701 0 1.269-0.57 1.269-1.274s-0.568-1.274-1.269-1.274c-0.701 0-1.269 0.57-1.269 1.274s0.568 1.274 1.269 1.274z"></path>
</svg>
