<!-- Generated by IcoMoon.io -->
<svg version="1.1" xmlns="http://www.w3.org/2000/svg" width="32" height="32" viewBox="0 0 32 32">
<title>time</title>
<path fill="#4c7bc1" d="M29.659 15.829c0 7.638-6.192 13.829-13.829 13.829s-13.829-6.192-13.829-13.829c0-7.638 6.192-13.829 13.829-13.829s13.829 6.192 13.829 13.829zM5.639 15.829c0 5.628 4.562 10.19 10.19 10.19s10.19-4.562 10.19-10.19c0-5.628-4.562-10.19-10.19-10.19s-10.19 4.562-10.19 10.19zM14.124 8.109c0-0.296 0.24-0.535 0.536-0.535h2.143c0.296 0 0.536 0.239 0.536 0.535v7.012l4.215 2.691c0.249 0.159 0.322 0.49 0.163 0.739l-1.155 1.802c-0.076 0.119-0.197 0.204-0.336 0.234-0.038 0.009-0.077 0.012-0.115 0.012-0.101 0-0.202-0.029-0.289-0.084l-5.451-3.48c-0.154-0.098-0.247-0.268-0.247-0.45v-8.476z"></path>
</svg>
