<!-- Generated by IcoMoon.io -->
<svg version="1.1" xmlns="http://www.w3.org/2000/svg" width="32" height="32" viewBox="0 0 32 32">
<title>to-end</title>
<path fill="#4c7bc1" d="M12.783 13.159v-3.386c0-0.371 0.229-0.476 0.511-0.234l6.080 5.211c0.282 0.242 0.282 0.634 0 0.876l-6.080 5.211c-0.282 0.242-0.511 0.137-0.511-0.234v-3.386h-7.445c-0.368 0-0.671-0.3-0.671-0.67v-2.718c0-0.378 0.301-0.67 0.671-0.67h7.445zM27.517 14.628c0 0-3.575-3.111-3.575-3.329v-7.777c0-0.84-0.681-1.522-1.522-1.522s-1.522 0.681-1.522 1.522v8.431c0 0.422 0.175 0.825 0.483 1.112l2.863 2.672-2.842 2.516c-0.321 0.289-0.505 0.7-0.505 1.132v8.483c0 0.84 0.681 1.522 1.522 1.522s1.522-0.681 1.522-1.522v-7.807c0-0.226 3.553-3.191 3.553-3.191 0.664-0.597 0.674-1.635 0.021-2.244z"></path>
</svg>
