<!-- Generated by IcoMoon.io -->
<svg version="1.1" xmlns="http://www.w3.org/2000/svg" width="32" height="32" viewBox="0 0 32 32">
<title>training</title>
<path fill="#4c7bc1" d="M27.611 14.168c0 0 0.635 5.837 0.639 5.903 0.031 0.446-0.342 0.763-0.764 0.763-0.002-0-0.079-0.002-0.116-0.008-0.603-0.088-1.22-0.132-1.835-0.132-3.663 0-6.941 1.551-8.157 3.859-0.132 0.251-0.392 0.407-0.676 0.407h-0.234c-0.284 0-0.544-0.157-0.676-0.408-1.216-2.308-4.494-3.859-8.158-3.859-0.613 0-1.231 0.045-1.834 0.132-0.236 0.034-0.474-0.044-0.644-0.21s-0.253-0.403-0.224-0.639l0.628-5.747 11.025 4.14 11.026-4.2zM30.487 9.842c0.297 0.112 0.495 0.396 0.495 0.714s-0.197 0.602-0.495 0.714l-13.633 5.126c-0.174 0.065-0.365 0.065-0.538 0l-12.449-4.681v8.133h-1.713v-9.279c0-0.318 0.197-0.602 0.495-0.714l13.668-5.139c0.174-0.065 0.365-0.065 0.538 0l13.633 5.126zM1.338 25.909l0.498-4.732h2.349l0.499 4.731c0.023 0.215-0.047 0.43-0.192 0.591s-0.351 0.252-0.568 0.252h-1.827c-0.217 0-0.423-0.092-0.568-0.252s-0.214-0.375-0.192-0.591z"></path>
</svg>
