<!-- Generated by IcoMoon.io -->
<svg version="1.1" xmlns="http://www.w3.org/2000/svg" width="32" height="32" viewBox="0 0 32 32">
<title>truck</title>
<path fill="#4c7bc1" d="M2.479 23.731c0-1.622 1.272-2.937 2.842-2.937s2.842 1.315 2.842 2.937c0 1.622-1.271 2.936-2.842 2.936s-2.842-1.314-2.842-2.936zM19.974 7.158v11.683c0 0.639-0.502 1.158-1.12 1.158l-16.4 0.067c-0.619 0-1.121-0.519-1.121-1.158v-11.75c0-0.64 0.502-1.158 1.121-1.158h16.4c0.618 0 1.12 0.519 1.12 1.158zM27.365 11.158l3.299 5.508v6.479c0 0.447-0.509 0.779-0.971 0.779-0.427 0-0.997-0.313-0.997-0.798 0-1.814-1.514-3.125-3.046-3.125h-3.048c-0.717 0-1.236-0.587-1.236-1.405v-7.439c0-0.64 0.502-1.158 1.122-1.158h3.697c0.619 0 0.932 0.647 1.179 1.158zM10.363 20.667h10.453c0.555 0 0.517 0.447 0.517 1 0 0.552-0.45 1-1.005 1h-10.582c-0.556 0-0.389-0.448-0.389-1 0-0.553 0.45-1 1.007-1zM22.133 23.731c0-1.622 1.272-2.937 2.842-2.937 1.569 0 2.842 1.315 2.842 2.937s-1.272 2.936-2.842 2.936c-1.571 0-2.842-1.314-2.842-2.936z"></path>
</svg>
