<!-- Generated by IcoMoon.io -->
<svg version="1.1" xmlns="http://www.w3.org/2000/svg" width="32" height="32" viewBox="0 0 32 32">
<title>turnover</title>
<path fill="#4c7bc1" d="M8 7.994c1.044-1.042 2.26-1.861 3.613-2.434 1.402-0.593 2.889-0.893 4.421-0.893 1.127 0 2.241 0.165 3.31 0.491 1.035 0.315 2.020 0.778 2.928 1.375 0.894 0.588 1.701 1.299 2.398 2.112 0.434 0.506 0.825 1.053 1.163 1.625 0.098 0.167 0.193 0.338 0.283 0.51l3.628-2.027c0.157-0.088 0.352-0.072 0.494 0.039s0.202 0.297 0.153 0.47l-2.067 7.308c-0.032 0.114-0.108 0.21-0.211 0.268-0.067 0.038-0.142 0.057-0.218 0.057-0.041 0-0.081-0.005-0.121-0.017l-7.323-2.062c-0.174-0.049-0.3-0.197-0.322-0.376s0.067-0.353 0.225-0.441l3.169-1.77c-0.089-0.175-0.184-0.347-0.284-0.514-0.22-0.365-0.47-0.717-0.743-1.046-0.516-0.62-1.116-1.162-1.784-1.611-0.678-0.456-1.415-0.809-2.191-1.049-0.802-0.249-1.639-0.375-2.486-0.375-1.131 0-2.23 0.222-3.265 0.66-0.999 0.422-1.897 1.027-2.67 1.798s-1.378 1.667-1.801 2.664c-0.438 1.033-0.661 2.129-0.661 3.258s0.222 2.226 0.661 3.259c0.424 0.998 1.030 1.894 1.801 2.664s1.67 1.376 2.67 1.798c1.035 0.437 2.133 0.659 3.265 0.659 0.964 0 1.91-0.162 2.81-0.483 0.871-0.31 1.681-0.76 2.408-1.338 0.72-0.573 1.339-1.254 1.838-2.025 0.25-0.387 0.47-0.796 0.652-1.217 0.185-0.428 0.336-0.874 0.446-1.326 0.029-0.116 0.103-0.216 0.206-0.277s0.227-0.079 0.342-0.047l2.011 0.535c0.235 0.063 0.376 0.302 0.318 0.538-0.132 0.527-0.303 1.049-0.509 1.551-0.268 0.652-0.6 1.284-0.986 1.876-0.676 1.039-1.513 1.956-2.486 2.726-0.983 0.778-2.078 1.384-3.254 1.802-1.217 0.432-2.494 0.651-3.796 0.651-1.532 0-3.020-0.3-4.421-0.893-1.353-0.573-2.569-1.391-3.613-2.434s-1.865-2.256-2.438-3.607c-0.594-1.399-0.895-2.884-0.895-4.413s0.301-3.014 0.895-4.413c0.573-1.35 1.393-2.564 2.438-3.607v0z"></path>
</svg>
