<!-- Generated by IcoMoon.io -->
<svg version="1.1" xmlns="http://www.w3.org/2000/svg" width="32" height="32" viewBox="0 0 32 32">
<title>un-identified</title>
<path fill="#4c7bc1" d="M27.741 30.625c0 0 1.457 0.121 2.106-0.789 0.364-0.509 0.092-1.522-0.174-2.086l-0.642-1.364c0 0-1.562-3.845-3.535-6.033-1.18-1.307-2.482-1.050-3.337-0.633-0.569 0.277-1.2 1.084-1.674 1.499-0.653 0.571-1.807 1.221-3.692 1.257h-1.157c-1.886-0.037-3.040-0.686-3.694-1.257-0.474-0.415-1.123-1.197-1.697-1.466-0.932-0.436-2.373-0.742-3.584 0.6-1.972 2.188-3.705 5.965-3.705 5.965l-0.626 1.391c-0.256 0.568-0.516 1.586-0.142 2.088 0.692 0.93 2.264 0.829 2.264 0.829l10.357 0c-0.025-0.085-0.029-0.181-0.009-0.283l0.727-3.637-1.777-2.221c-0.23-0.288-0.115-0.521 0.248-0.521h4.004c0.367 0 0.481 0.229 0.248 0.521l-1.773 2.216 0.728 3.642c0.020 0.101 0.016 0.197-0.009 0.283l10.545 0zM17.77 15.484h-3.356c-0.149 0-0.28 0.057-0.391 0.169s-0.168 0.244-0.168 0.394v3.371c0 0.149 0.056 0.281 0.168 0.393s0.242 0.169 0.391 0.169h3.356c0.149 0 0.28-0.057 0.392-0.169s0.169-0.244 0.169-0.393v-3.371c0-0.15-0.056-0.282-0.169-0.394s-0.242-0.169-0.392-0.169v0zM22.177 5.392c-0.383-0.707-0.877-1.304-1.483-1.791s-1.287-0.876-2.042-1.166c-0.756-0.29-1.505-0.435-2.252-0.435-2.835 0-4.998 1.246-6.49 3.736-0.074 0.122-0.1 0.253-0.077 0.393s0.095 0.257 0.217 0.351l2.294 1.756c0.121 0.075 0.238 0.113 0.35 0.113 0.168 0 0.312-0.075 0.434-0.225 0.671-0.843 1.17-1.381 1.496-1.615 0.401-0.271 0.905-0.406 1.51-0.406 0.568 0 1.070 0.15 1.504 0.449s0.65 0.646 0.65 1.040c0 0.44-0.116 0.796-0.349 1.068s-0.625 0.534-1.175 0.787c-0.727 0.328-1.394 0.836-2 1.524s-0.909 1.421-0.909 2.197v0.632c0 0.178 0.049 0.354 0.147 0.527s0.217 0.26 0.356 0.26h3.356c0.149 0 0.28-0.073 0.392-0.219 0.112-0.145 0.168-0.296 0.168-0.456 0-0.233 0.129-0.548 0.385-0.941s0.576-0.698 0.959-0.913c0.363-0.206 0.647-0.372 0.852-0.498s0.473-0.331 0.804-0.611c0.331-0.281 0.587-0.559 0.77-0.836 0.181-0.277 0.345-0.634 0.489-1.075s0.217-0.913 0.217-1.419c-0.001-0.776-0.192-1.518-0.574-2.225v0z"></path>
</svg>
