<!-- Generated by IcoMoon.io -->
<svg version="1.1" xmlns="http://www.w3.org/2000/svg" width="32" height="32" viewBox="0 0 32 32">
<title>unlocked</title>
<path fill="#4c7bc1" d="M23.013 14.035c0.996 0 1.654 0.622 1.654 1.612v9.895c0 0.99-0.658 1.791-1.654 1.791h-13.874c-0.996 0-1.805-0.805-1.805-1.796v-9.891c0-0.914 0.689-1.5 1.577-1.612 0.075-0.009 0.423 0 0.423 0v-5.344c0-3.749 2.898-6.686 6.667-6.69 3.769 0 6.667 2.941 6.667 6.69v1.99c0 0.371-0.296 0.672-0.667 0.672h-2c-0.368 0-0.667-0.301-0.667-0.667v-1.871c0-2.106-1.212-3.479-3.333-3.479-2.117 0-3.333 1.369-3.333 3.479v5.221h10.346zM17.107 20.851c0.527-0.381 0.788-0.911 0.788-1.562-0.011-0.937-0.665-1.689-1.608-1.88-0.846-0.169-1.746 0.307-2.113 1.117-0.378 0.831-0.128 1.779 0.628 2.335 0.149 0.111 0.186 0.222 0.186 0.392-0.005 0.831-0.005 1.663-0.005 2.499 0 0.688 0.729 1.207 1.459 0.837 0.309-0.154 0.484-0.492 0.468-0.837 0-0.831 0-1.657-0.005-2.489 0-0.185 0.043-0.297 0.202-0.413z"></path>
</svg>
