<!-- Generated by IcoMoon.io -->
<svg version="1.1" xmlns="http://www.w3.org/2000/svg" width="32" height="32" viewBox="0 0 32 32">
<title>usb-logo</title>
<path fill="#4c7bc1" d="M12.647 13.679c0.012-1.525-1.245-2.817-2.765-2.847-1.586-0.033-2.882 1.246-2.882 2.826 0 1.255 0.822 2.306 1.949 2.675v1.075c0 0.661 0.309 1.282 0.837 1.679l5.434 4.099c-1.395 0.402-2.414 1.691-2.414 3.216 0 1.85 1.496 3.348 3.344 3.348s3.344-1.498 3.344-3.348c0-1.54-1.041-2.838-2.456-3.228v-1.579l4.99-3.471c0.564-0.393 0.903-1.039 0.903-1.727v-1.486h0.57c0.828 0 1.5-0.673 1.5-1.501v-2.438c0-0.829-0.672-1.501-1.5-1.501h-2.885c-0.828 0-1.5 0.673-1.5 1.501v2.438c0 0.829 0.672 1.501 1.5 1.501h0.57v1.673l-4.148 2.883v-10.999h1.466c1.050 0 1.697-1.15 1.155-2.051l-2.225-3.69c-0.579-0.961-1.967-0.967-2.558-0.015l-2.285 3.693c-0.558 0.901 0.090 2.063 1.149 2.063h1.556v12.585l-4.597-3.465v-1.252c1.122-0.366 1.94-1.411 1.949-2.654z"></path>
</svg>
