<!-- Generated by IcoMoon.io -->
<svg version="1.1" xmlns="http://www.w3.org/2000/svg" width="32" height="32" viewBox="0 0 32 32">
<title>usb</title>
<path fill="#4c7bc1" d="M28.619 10.129c0-0.356-0.14-0.689-0.39-0.937l-4.811-4.808c-0.519-0.514-1.361-0.511-1.876 0.003l-4.014 4.009c-0.839-0.773-2.15-0.758-2.964 0.054l-7.211 7.206c-0.466 0.465-0.722 1.084-0.722 1.742s0.256 1.277 0.722 1.741c0.161 0.162 0.161 0.424 0 0.586l-0.506 0.504c-0.682 0.683-0.683 1.792 0 2.476l0.798 0.797-3.344 3.341c-0.401 0.401-0.401 1.048 0 1.449 0.2 0.2 0.463 0.3 0.725 0.3s0.525-0.1 0.725-0.3l3.344-3.341 0.798 0.797c0.342 0.341 0.791 0.512 1.238 0.512 0.449 0 0.898-0.171 1.239-0.512l0.505-0.504c0.163-0.162 0.425-0.161 0.588 0 0.928 0.929 2.556 0.931 3.487 0l7.212-7.205c0.405-0.404 0.629-0.942 0.629-1.514 0-0.543-0.207-1.052-0.574-1.448l4.012-4.008c0.252-0.251 0.392-0.585 0.391-0.942zM22.772 13.624l-3.787-3.783 3.497-3.492 3.786 3.783-3.496 3.492z"></path>
</svg>
