<!-- Generated by IcoMoon.io -->
<svg version="1.1" xmlns="http://www.w3.org/2000/svg" width="32" height="32" viewBox="0 0 32 32">
<title>user</title>
<path fill="#4c7bc1" d="M15.968 18.327c-3.7 0-6.698-3.424-6.698-7.645s2.998-7.349 6.698-7.349c3.701 0 6.701 3.128 6.701 7.349s-3.001 7.645-6.701 7.645v0zM5.549 28.662c0 0-1.421 0.089-2.047-0.732-0.338-0.444-0.103-1.343 0.129-1.845l0.566-1.23c0 0 1.566-3.337 3.349-5.271 1.095-1.186 2.398-0.916 3.24-0.53 0.519 0.237 1.106 0.929 1.534 1.295 0.591 0.505 1.634 1.079 3.339 1.111h1.046c1.704-0.032 2.747-0.606 3.338-1.111 0.428-0.366 0.999-1.079 1.513-1.324 0.773-0.369 1.95-0.596 3.017 0.559 1.783 1.934 3.196 5.332 3.196 5.332l0.58 1.206c0.24 0.498 0.486 1.393 0.157 1.843-0.587 0.804-1.904 0.697-1.904 0.697l-21.055-0z"></path>
</svg>
