<!-- Generated by IcoMoon.io -->
<svg version="1.1" xmlns="http://www.w3.org/2000/svg" width="32" height="32" viewBox="0 0 32 32">
<title>visible</title>
<path fill="#4c7bc1" d="M16.045 7.333c5.622 0 10.72 2.966 14.481 7.789 0.307 0.395 0.307 0.946 0 1.341-3.762 4.817-8.86 7.783-14.481 7.783s-10.72-2.966-14.481-7.789c-0.307-0.395-0.307-0.946 0-1.341 3.762-4.817 8.86-7.783 14.481-7.783zM16.448 21.744c3.076-0.192 5.573-2.6 5.772-5.566 0.235-3.604-2.847-6.57-6.579-6.344-3.082 0.186-5.579 2.594-5.772 5.566-0.235 3.604 2.847 6.57 6.579 6.344zM16.262 18.993c-2.010 0.122-3.671-1.474-3.539-3.413 0.102-1.602 1.451-2.896 3.112-3.001 2.010-0.122 3.671 1.474 3.539 3.413-0.108 1.608-1.457 2.902-3.112 3.001z"></path>
</svg>
