<!-- Generated by IcoMoon.io -->
<svg version="1.1" xmlns="http://www.w3.org/2000/svg" width="32" height="32" viewBox="0 0 32 32">
<title>web-camera</title>
<path fill="#4c7bc1" d="M16.308 25.283c3.304 0 6.419-1.232 8.823-3.476 0.674 1.517 1.055 3.156 1.055 4.756 0 5.461-19.755 5.461-19.755 0 0-1.601 0.38-3.239 1.055-4.756 2.404 2.245 5.519 3.476 8.823 3.476zM16.308 23.308c-6.061 0-10.975-4.919-10.975-10.987s4.914-10.987 10.975-10.987 10.975 4.919 10.975 10.987c0 6.068-4.914 10.987-10.975 10.987zM16.308 5.87c-3.553 0-6.444 2.894-6.444 6.451s2.891 6.451 6.444 6.451c3.553 0 6.444-2.894 6.444-6.451s-2.891-6.451-6.444-6.451zM16.308 15.809c-1.921 0-3.484-1.565-3.484-3.488s1.563-3.488 3.484-3.488c1.921 0 3.484 1.565 3.484 3.488s-1.563 3.488-3.484 3.488z"></path>
</svg>
