<!-- Generated by IcoMoon.io -->
<svg version="1.1" xmlns="http://www.w3.org/2000/svg" width="32" height="32" viewBox="0 0 32 32">
<title>weight</title>
<path fill="#4c7bc1" d="M28.96 25.543l-3.027-15.219c-0.312-1.566-1.821-2.792-3.438-2.792h-1.561c-0.416-2.38-2.517-4.198-5.044-4.198s-4.628 1.818-5.045 4.198h-1.56c-1.617 0-3.128 1.226-3.438 2.792l-3.028 15.219c-0.16 0.803 0.031 1.603 0.523 2.194s1.251 0.93 2.081 0.93h20.934c0.829 0 1.588-0.339 2.080-0.929s0.683-1.391 0.523-2.195v0zM15.889 5.057c1.561 0 2.875 1.051 3.261 2.474h-6.522c0.386-1.423 1.7-2.474 3.261-2.474v0zM13.936 21.708l-2.037-2.793-0.549 0.602v2.191h-1.061v-8.548h1.061v5.393h0.024c0.146-0.205 0.354-0.457 0.525-0.662l1.732-2.011h1.293l-2.281 2.395 2.598 3.432h-1.305zM21.048 17.483v3.383c0 1.336-0.268 2.155-0.841 2.661-0.573 0.53-1.403 0.698-2.146 0.698-0.708 0-1.488-0.169-1.963-0.482l0.268-0.806c0.39 0.241 1 0.457 1.732 0.457 1.097 0 1.902-0.566 1.902-2.035v-0.65h-0.024c-0.329 0.541-0.964 0.976-1.878 0.976-1.464 0-2.512-1.228-2.512-2.841 0-1.974 1.305-3.094 2.658-3.094 1.025 0 1.586 0.53 1.841 1.011h0.024l0.049-0.879h0.939c-0.024 0.421-0.049 0.891-0.049 1.601v0zM18.426 16.58c-1.025 0-1.756 0.854-1.756 2.203 0 1.143 0.585 2.094 1.744 2.094 0.659 0 1.256-0.409 1.487-1.083 0.062-0.181 0.085-0.385 0.085-0.566v-1.047c0-0.181-0.012-0.337-0.061-0.482-0.195-0.614-0.719-1.119-1.5-1.119v0z"></path>
</svg>
