<!-- Generated by IcoMoon.io -->
<svg version="1.1" xmlns="http://www.w3.org/2000/svg" width="32" height="32" viewBox="0 0 32 32">
<title>wifi</title>
<path fill="#4c7bc1" d="M16 7.333c4.359 0 8.195 1.744 11.072 4.621 0.174 0.087 0.262 0.349 0.262 0.61s-0.087 0.436-0.262 0.61l-1.221 1.22c-0.349 0.349-0.872 0.349-1.221 0-2.18-2.179-5.231-3.574-8.631-3.574s-6.451 1.395-8.631 3.574c-0.349 0.349-0.872 0.349-1.22 0l-1.22-1.22c-0.174-0.174-0.262-0.349-0.262-0.61s0.087-0.436 0.262-0.61c2.79-2.877 6.713-4.62 11.072-4.62zM10.159 16.836c1.569-1.569 3.662-2.528 6.103-2.528s4.533 0.959 6.103 2.528c0.349 0.349 0.349 0.872 0 1.221l-1.221 1.221c-0.349 0.349-0.872 0.349-1.221 0-0.959-0.872-2.267-1.482-3.662-1.482s-2.703 0.523-3.662 1.482c-0.349 0.349-0.872 0.349-1.22 0l-1.22-1.221c-0.349-0.349-0.349-0.872 0-1.221zM16 21.282c0.963 0 1.744 0.781 1.744 1.744s-0.781 1.744-1.744 1.744c-0.963 0-1.744-0.781-1.744-1.744s0.781-1.744 1.744-1.744z"></path>
</svg>
